<mxfile host="65bd71144e">
    <diagram id="f106602c-feb2-e66a-4537-3a34d633f6aa" name="Page-1">
        <mxGraphModel dx="862" dy="288" grid="1" gridSize="10" guides="1" tooltips="1" connect="1" arrows="1" fold="1" page="1" pageScale="1" pageWidth="1169" pageHeight="827" background="none" math="0" shadow="0">
            <root>
                <mxCell id="0"/>
                <mxCell id="1" parent="0"/>
                <mxCell id="NeyLfoXZ4A740E0lLUlC-1031" value="" style="outlineConnect=0;dashed=0;verticalLabelPosition=bottom;verticalAlign=top;align=center;html=1;shape=mxgraph.aws3.mysql_db_instance;fillColor=#2E73B8;gradientColor=none;" parent="1" vertex="1">
                    <mxGeometry x="960" y="277.75" width="100" height="84.5" as="geometry"/>
                </mxCell>
                <mxCell id="14" value="&lt;b&gt;Google &lt;/b&gt;Cloud Platform" style="fillColor=#F6F6F6;strokeColor=none;shadow=0;gradientColor=none;fontSize=14;align=left;spacing=10;fontColor=#717171;9E9E9E;verticalAlign=top;spacingTop=-4;fontStyle=0;spacingLeft=40;html=1;container=0;" parent="1" vertex="1">
                    <mxGeometry x="480" y="200" width="400" height="200" as="geometry"/>
                </mxCell>
                <mxCell id="818" value="MH-API Architecture" style="fillColor=#4DA1F5;strokeColor=none;shadow=1;gradientColor=none;fontSize=14;align=left;spacingLeft=50;fontColor=#ffffff;html=1;" parent="1" vertex="1">
                    <mxGeometry x="120" y="140" width="1000" height="40" as="geometry"/>
                </mxCell>
                <mxCell id="998" style="edgeStyle=elbowEdgeStyle;rounded=0;elbow=vertical;html=1;labelBackgroundColor=none;startFill=1;startSize=4;endArrow=blockThin;endFill=1;endSize=4;jettySize=auto;orthogonalLoop=1;strokeColor=#4284F3;strokeWidth=2;fontSize=12;fontColor=#000000;align=left;dashed=0;entryX=0;entryY=0.5;entryDx=0;entryDy=0;" parent="1" source="997" target="NeyLfoXZ4A740E0lLUlC-1003" edge="1">
                    <mxGeometry relative="1" as="geometry">
                        <mxPoint x="440" y="325" as="targetPoint"/>
                    </mxGeometry>
                </mxCell>
                <mxCell id="1001" style="edgeStyle=orthogonalEdgeStyle;rounded=0;elbow=vertical;html=1;labelBackgroundColor=none;startFill=1;startSize=4;endArrow=blockThin;endFill=1;endSize=4;jettySize=auto;orthogonalLoop=1;strokeColor=#4284F3;strokeWidth=2;fontSize=12;fontColor=#000000;align=left;dashed=0;exitX=1;exitY=0.5;exitDx=0;exitDy=0;entryX=0;entryY=0.5;entryDx=0;entryDy=0;" parent="1" source="NeyLfoXZ4A740E0lLUlC-1003" target="NeyLfoXZ4A740E0lLUlC-1014" edge="1">
                    <mxGeometry relative="1" as="geometry">
                        <mxPoint x="570" y="324.5" as="sourcePoint"/>
                        <mxPoint x="720" y="430" as="targetPoint"/>
                    </mxGeometry>
                </mxCell>
                <mxCell id="NeyLfoXZ4A740E0lLUlC-1013" value="" style="group" parent="1" connectable="0" vertex="1">
                    <mxGeometry x="450" y="290" width="110" height="60" as="geometry"/>
                </mxCell>
                <mxCell id="NeyLfoXZ4A740E0lLUlC-1003" value="" style="strokeColor=#dddddd;shadow=1;strokeWidth=1;rounded=1;absoluteArcSize=1;arcSize=2;" parent="NeyLfoXZ4A740E0lLUlC-1013" vertex="1">
                    <mxGeometry width="110" height="60" as="geometry"/>
                </mxCell>
                <mxCell id="NeyLfoXZ4A740E0lLUlC-1006" value="" style="sketch=0;html=1;verticalAlign=top;labelPosition=center;verticalLabelPosition=bottom;align=center;spacingTop=-6;fontSize=11;fontStyle=1;fontColor=#999999;shape=image;aspect=fixed;imageAspect=0;image=data:image/svg+xml,PHN2ZyB4bWxuczppbmtzY2FwZT0iaHR0cDovL3d3dy5pbmtzY2FwZS5vcmcvbmFtZXNwYWNlcy9pbmtzY2FwZSIgeG1sbnM6c29kaXBvZGk9Imh0dHA6Ly9zb2RpcG9kaS5zb3VyY2Vmb3JnZS5uZXQvRFREL3NvZGlwb2RpLTAuZHRkIiB4bWxucz0iaHR0cDovL3d3dy53My5vcmcvMjAwMC9zdmciIHhtbG5zOnN2Zz0iaHR0cDovL3d3dy53My5vcmcvMjAwMC9zdmciIHdpZHRoPSI5OS45OTczMDIyMDQ4OTI5NiIgaGVpZ2h0PSI5Ny44ODA4NTM5MDQyOTYzMyIgdmlld0JveD0iLTAuMDQ1Nzc2MzY3MTg3NSAxLjA4Nzc4ODU4MTg0ODE0NDUgOTkuOTk3Mjk5MTk0MzM1OTQgOTcuODgwODQ0MTE2MjEwOTQiIHZlcnNpb249IjEuMSIgaWQ9InN2ZzUiIGlua3NjYXBlOnZlcnNpb249IjEuMSAoYzY4ZTIyYzM4NywgMjAyMS0wNS0yMykiIHNvZGlwb2RpOmRvY25hbWU9ImNsb3VkX25hdC5zdmciPiYjeGE7ICA8c29kaXBvZGk6bmFtZWR2aWV3IGlkPSJuYW1lZHZpZXc3IiBwYWdlY29sb3I9IiNmZmZmZmYiIGJvcmRlcmNvbG9yPSIjNjY2NjY2IiBib3JkZXJvcGFjaXR5PSIxLjAiIGlua3NjYXBlOnBhZ2VzaGFkb3c9IjIiIGlua3NjYXBlOnBhZ2VvcGFjaXR5PSIwLjAiIGlua3NjYXBlOnBhZ2VjaGVja2VyYm9hcmQ9IjAiIGlua3NjYXBlOmRvY3VtZW50LXVuaXRzPSJtbSIgc2hvd2dyaWQ9ImZhbHNlIiBpbmtzY2FwZTp6b29tPSIwLjU3OTMzNzQ0IiBpbmtzY2FwZTpjeD0iLTQyLjI4OTY4OSIgaW5rc2NhcGU6Y3k9IjI1NC42MDExOSIgaW5rc2NhcGU6d2luZG93LXdpZHRoPSIxOTIwIiBpbmtzY2FwZTp3aW5kb3ctaGVpZ2h0PSIxMDE3IiBpbmtzY2FwZTp3aW5kb3cteD0iLTgiIGlua3NjYXBlOndpbmRvdy15PSItOCIgaW5rc2NhcGU6d2luZG93LW1heGltaXplZD0iMSIgaW5rc2NhcGU6Y3VycmVudC1sYXllcj0ibGF5ZXIxIiBmaXQtbWFyZ2luLXRvcD0iMCIgZml0LW1hcmdpbi1sZWZ0PSIwIiBmaXQtbWFyZ2luLXJpZ2h0PSIwIiBmaXQtbWFyZ2luLWJvdHRvbT0iMCIvPiYjeGE7ICA8ZGVmcyBpZD0iZGVmczIiLz4mI3hhOyAgPGcgaW5rc2NhcGU6bGFiZWw9IkxheWVyIDEiIGlua3NjYXBlOmdyb3VwbW9kZT0ibGF5ZXIiIGlkPSJsYXllcjEiIHRyYW5zZm9ybT0idHJhbnNsYXRlKDI1OC42MTk3NSwxNi42Njc3MTUpIj4mI3hhOyAgICA8cGF0aCBpZD0icGF0aDE3MzYyIiBzdHlsZT0ib3BhY2l0eToxO2ZpbGw6IzQyODVmNDtmaWxsLW9wYWNpdHk6MTtzdHJva2U6bm9uZTtzdHJva2Utd2lkdGg6MC45OTk5OTlweDtzdHJva2UtbGluZWNhcDpidXR0O3N0cm9rZS1saW5lam9pbjptaXRlcjtzdHJva2Utb3BhY2l0eToxIiBkPSJNIDE0MS40MTc5Nyw0LjExMTMyODEgMTI0LjQwMjM0LDI0LjM3NSBjIDU3Ljg5NTM3LDQ4LjYxNjQyNiA4My40MTQwNyw5Ni4wNjQ2NyA4My40MTQwNywxNjMuOTQzMzYgMCw3Mi4zMTIyOCAtMzYuMTA3MzEsMTI0LjgyOTc3IC04Mi4wMTk1MywxNjYuMDQ4ODMgbCAxNy42Nzk2OCwxOS42ODc1IGMgNDkuMjAyOTksLTQ0LjE3MzQyIDkwLjc5Njg4LC0xMDQuNDk4MzcgOTAuNzk2ODgsLTE4NS43MzYzMyAwLC03NC44ODE1MiAtMzEuMTU5NDEsLTEzMi4zOTkwMjIgLTkyLjg1NTQ3LC0xODQuMjA3MDMxOSB6IE0gOTYuNTU2NjQxLDc1Ljg4NDc2NiBWIDEwMi4zNDE4IEggMTY2LjQ4MzA1IEMgMTYyLjM5Mjc0LDk0LjU1NDQyIDE1OC40NTE0Myw4Ni44NDE1NDIgMTQ4LjAyMjMzLDc1Ljg4NDc2NiBaIE0gMzE3Ljc3OTMsMjAyLjMwNjY0IHYgMzIuMjkyOTcgbCA1OS45OTAyMywtNDUuNTE3NTggLTU5Ljk5MDIzLC00NS41MTc1OCB2IDMyLjI4NTE2IGggLTY0LjQ3NDYxIHYgMjYuNDU3MDMgeiBNIDUwLjA1ODU5NCwxNzUuODQ5NjEgdiAyNi40NTcwMyBIIDE4Ny4yODEyNSBjIDEuMTU3NDUsLTguMDQ3MzcgMS4yODIzMSwtMTYuNzgzMTUgMCwtMjYuNDU3MDMgeiBtIDQ3LjAzNzEwOSwxMDAuMDQ2ODcgdiAyNi40NTcwNCBoIDUwLjY4MjY3NyBjIDguMDE2NTcsLTguMDE0NjYgMTQuNDYxNjksLTE2LjgxNTA0IDE5LjIyMzU3LC0yNi40NTcwNCB6IiB0cmFuc2Zvcm09Im1hdHJpeCgwLjI2NDU4MzMzLDAsMCwwLjI2NDU4MzMzLC0yNTguNjE5NzUsLTE2LjY2NzcxNSkiIHNvZGlwb2RpOm5vZGV0eXBlcz0iY2NzY2NzY2NjY2NjY2NjY2NjY2NjY2NjY2NjY2NjIi8+JiN4YTsgICAgPHBhdGggaWQ9InBhdGgxNjI3MS03IiBzdHlsZT0iY29sb3I6IzAwMDAwMDtvcGFjaXR5OjE7ZmlsbDojNjY5ZGY2O3N0cm9rZS1saW5lam9pbjpyb3VuZDstaW5rc2NhcGUtc3Ryb2tlOm5vbmU7ZmlsbC1vcGFjaXR5OjEiIGQ9Im0gLTIzNy45NTQwOCw1MS45MDU2ODYgYyAtNC4zNDYzLDEwZS03IC03LjkyMzgyLDMuNTc3NTIxIC03LjkyMzgyLDcuOTIzODI4IDAsNC4zNDYzMDcgMy41Nzc1Miw3LjkyMzgyOCA3LjkyMzgyLDcuOTIzODI4IDQuMzQ2MzEsMCA3LjkyMzgzLC0zLjU3NzUyMSA3LjkyMzgzLC03LjkyMzgyOCAwLC00LjM0NjMwNyAtMy41Nzc1MiwtNy45MjM4MjcgLTcuOTIzODMsLTcuOTIzODI4IHogbSAwLDUgYyAxLjY0NDExLDAgMi45MjM4MywxLjI3OTcxOCAyLjkyMzgzLDIuOTIzODI4IDAsMS42NDQxMSAtMS4yNzk3MiwyLjkyMzgyOCAtMi45MjM4MywyLjkyMzgyOCAtMS42NDQxMSwwIC0yLjkyMzgyLC0xLjI3OTcxOCAtMi45MjM4MiwtMi45MjM4MjggMCwtMS42NDQxMSAxLjI3OTcxLC0yLjkyMzgyOCAyLjkyMzgyLC0yLjkyMzgyOCB6IG0gLTEyLjc4NzYxLC0zMS40ODg1OTMgYyAtNC4zNDYzLDEwZS03IC03LjkyMzgyLDMuNTc3NTIxIC03LjkyMzgyLDcuOTIzODI4IDAsNC4zNDYzMDcgMy41Nzc1Miw3LjkyMzgyOCA3LjkyMzgyLDcuOTIzODI4IDQuMzQ2MzEsMCA3LjkyMzgzLC0zLjU3NzUyMSA3LjkyMzgzLC03LjkyMzgyOCAwLC00LjM0NjMwNyAtMy41Nzc1MiwtNy45MjM4MjcgLTcuOTIzODMsLTcuOTIzODI4IHogbSAwLDUgYyAxLjY0NDExLDAgMi45MjM4MywxLjI3OTcxOCAyLjkyMzgzLDIuOTIzODI4IDAsMS42NDQxMSAtMS4yNzk3MiwyLjkyMzgyOCAtMi45MjM4MywyLjkyMzgyOCAtMS42NDQxMSwwIC0yLjkyMzgyLC0xLjI3OTcxOCAtMi45MjM4MiwtMi45MjM4MjggMCwtMS42NDQxMSAxLjI3OTcxLC0yLjkyMzgyOCAyLjkyMzgyLC0yLjkyMzgyOCB6IG0gMTIuNjE2NTIsLTMxLjQzMTQ5MjkgYyAtNC4zNDYzLDZlLTcgLTcuOTIzODIsMy41Nzc1MjA4IC03LjkyMzgyLDcuOTIzODI4MSAwLDQuMzQ2MzA2OCAzLjU3NzUyLDcuOTIzODI3OCA3LjkyMzgyLDcuOTIzODI3OCA0LjM0NjMxLDAgNy45MjM4MywtMy41Nzc1MjEgNy45MjM4MywtNy45MjM4Mjc4IDAsLTQuMzQ2MzA3MyAtMy41Nzc1MiwtNy45MjM4Mjc1IC03LjkyMzgzLC03LjkyMzgyODEgeiBtIDAsNSBjIDEuNjQ0MTEsMmUtNyAyLjkyMzgzLDEuMjc5NzE4NCAyLjkyMzgzLDIuOTIzODI4MSAwLDEuNjQ0MTA5NiAtMS4yNzk3MiwyLjkyMzgyNzkgLTIuOTIzODMsMi45MjM4Mjc5IC0xLjY0NDExLDAgLTIuOTIzODIsLTEuMjc5NzE4MyAtMi45MjM4MiwtMi45MjM4Mjc5IDAsLTEuNjQ0MTA5NyAxLjI3OTcxLC0yLjkyMzgyNzkgMi45MjM4MiwtMi45MjM4MjgxIHoiLz4mI3hhOyAgPC9nPiYjeGE7PC9zdmc+;" parent="NeyLfoXZ4A740E0lLUlC-1013" vertex="1">
                    <mxGeometry x="11" y="11" width="38.5" height="38.5" as="geometry"/>
                </mxCell>
                <mxCell id="NeyLfoXZ4A740E0lLUlC-1012" value="API Gateway" style="text;strokeColor=none;align=center;fillColor=none;html=1;verticalAlign=middle;whiteSpace=wrap;rounded=0;" parent="NeyLfoXZ4A740E0lLUlC-1013" vertex="1">
                    <mxGeometry x="52.25" y="15" width="55" height="30" as="geometry"/>
                </mxCell>
                <mxCell id="NeyLfoXZ4A740E0lLUlC-1020" value="" style="group" parent="1" connectable="0" vertex="1">
                    <mxGeometry x="150" y="200" width="90" height="280" as="geometry"/>
                </mxCell>
                <mxCell id="997" value="Multiple&lt;br&gt;Clients&lt;br&gt;API Requests&lt;br&gt;" style="rounded=1;absoluteArcSize=1;arcSize=2;html=1;strokeColor=none;gradientColor=none;shadow=0;dashed=0;fontSize=12;fontColor=#9E9E9E;align=left;verticalAlign=top;spacing=10;spacingTop=-4;fillColor=#F1F8E9;" parent="NeyLfoXZ4A740E0lLUlC-1020" vertex="1">
                    <mxGeometry width="90" height="280" as="geometry"/>
                </mxCell>
                <mxCell id="NeyLfoXZ4A740E0lLUlC-1019" value="" style="group" parent="NeyLfoXZ4A740E0lLUlC-1020" connectable="0" vertex="1">
                    <mxGeometry x="10" y="70" width="70" height="186.66666666666663" as="geometry"/>
                </mxCell>
                <mxCell id="985" value="" style="strokeColor=#dddddd;fillColor=#ffffff;shadow=1;strokeWidth=1;rounded=1;absoluteArcSize=1;arcSize=2;labelPosition=center;verticalLabelPosition=middle;align=center;verticalAlign=bottom;spacingLeft=0;fontColor=#999999;fontSize=12;whiteSpace=wrap;spacingBottom=2;html=1;" parent="NeyLfoXZ4A740E0lLUlC-1019" vertex="1">
                    <mxGeometry width="70" height="81.66666666666666" as="geometry"/>
                </mxCell>
                <mxCell id="986" value="" style="dashed=0;connectable=0;html=1;fillColor=#757575;strokeColor=none;shape=mxgraph.gcp2.mobile_devices;part=1;" parent="985" vertex="1">
                    <mxGeometry x="0.5" width="50" height="36.5" relative="1" as="geometry">
                        <mxPoint x="-25" y="16.75" as="offset"/>
                    </mxGeometry>
                </mxCell>
                <mxCell id="987" value="" style="strokeColor=#dddddd;fillColor=#ffffff;shadow=1;strokeWidth=1;rounded=1;absoluteArcSize=1;arcSize=2;labelPosition=center;verticalLabelPosition=middle;align=center;verticalAlign=bottom;spacingLeft=0;fontColor=#999999;fontSize=12;whiteSpace=wrap;spacingBottom=2;html=1;" parent="NeyLfoXZ4A740E0lLUlC-1019" vertex="1">
                    <mxGeometry y="105" width="70" height="81.66666666666666" as="geometry"/>
                </mxCell>
                <mxCell id="988" value="" style="dashed=0;connectable=0;html=1;fillColor=#757575;strokeColor=none;shape=mxgraph.gcp2.laptop;part=1;" parent="987" vertex="1">
                    <mxGeometry x="0.5" width="50" height="33" relative="1" as="geometry">
                        <mxPoint x="-25" y="18.5" as="offset"/>
                    </mxGeometry>
                </mxCell>
                <mxCell id="NeyLfoXZ4A740E0lLUlC-1027" value="" style="shape=image;verticalLabelPosition=bottom;labelBackgroundColor=default;verticalAlign=top;aspect=fixed;imageAspect=0;image=data:image/png,iVBORw0KGgoAAAANSUhEUgAAADsAAAA4CAYAAABDsYAdAAABUWlDQ1BJQ0MgUHJvZmlsZQAAGJV1kM1Kw1AQhU+0UihFFFwqZNGFQhVJxa3Egj/oItT6V3SRpjFV0np7ExHfoA+hINKlqDvBlQt9AkXwCdy5EUughji3UdMqzmWYj8NhZu4APdAZs2MAKlWX5+Zn5Y3Nghx/QQL9GISMlG44TNW0ZbLgu3ZH8wmSqA/jotfeOlM9f9vLv7uXjenT1l9/VyRKpmNQ/aAcNRh3ASlFrB26TDAlhjgtRVwXbIV8LLgY8lXbk89lie+IB4yyXiJ+JE4XO3Srgyv2gfG1g9g+aVZXV0SlHMYSFqDQm8TaP76pti+LfTAcgWMXFspw6WIqKQw2TOJFVGFgAmli0U1BRtz3990ijT8DM2KHeqQVzoDzCxp9HWljW/TlOeD+lelc/7mm1Iw5Oxkl5CQH+rwgeBsB4jeAz4OgdRIEfgPopTm3tU/GXWOeIa8YlAAAAFZlWElmTU0AKgAAAAgAAYdpAAQAAAABAAAAGgAAAAAAA5KGAAcAAAASAAAARKACAAQAAAABAAAAO6ADAAQAAAABAAAAOAAAAABBU0NJSQAAAFNjcmVlbnNob3TrNwjVAAAB1GlUWHRYTUw6Y29tLmFkb2JlLnhtcAAAAAAAPHg6eG1wbWV0YSB4bWxuczp4PSJhZG9iZTpuczptZXRhLyIgeDp4bXB0az0iWE1QIENvcmUgNi4wLjAiPgogICA8cmRmOlJERiB4bWxuczpyZGY9Imh0dHA6Ly93d3cudzMub3JnLzE5OTkvMDIvMjItcmRmLXN5bnRheC1ucyMiPgogICAgICA8cmRmOkRlc2NyaXB0aW9uIHJkZjphYm91dD0iIgogICAgICAgICAgICB4bWxuczpleGlmPSJodHRwOi8vbnMuYWRvYmUuY29tL2V4aWYvMS4wLyI+CiAgICAgICAgIDxleGlmOlBpeGVsWURpbWVuc2lvbj41NjwvZXhpZjpQaXhlbFlEaW1lbnNpb24+CiAgICAgICAgIDxleGlmOlBpeGVsWERpbWVuc2lvbj41OTwvZXhpZjpQaXhlbFhEaW1lbnNpb24+CiAgICAgICAgIDxleGlmOlVzZXJDb21tZW50PlNjcmVlbnNob3Q8L2V4aWY6VXNlckNvbW1lbnQ+CiAgICAgIDwvcmRmOkRlc2NyaXB0aW9uPgogICA8L3JkZjpSREY+CjwveDp4bXBtZXRhPgqdG66nAAACu0lEQVRoBe2Yy63qMBCGfdAtgC2PLRKiAF4FUAAgqIIFiC00wKMCSoAiWIDoALFjgegC5fLnnlyFORGxPZNDBLYEZJzxzHz+ncThy7s39SEt8yGcPqaDfVe1nbJO2TeYAbeM30DESASnbOS0vEGnU/YNRIxE+BPZm0DnfD73ox4OB/93v9/7v81m0/+t1+sKx4Htdwp/fSX91gPI5XKpXTZgR6NRItCJwZpC0tkANNQej8f0lLWdCGy321XBMrWu7HsgVJYCFoUFIEClG1Rer9fssGKPnqRAQSgVWwzW5CZkIxGAgzu6zXiMEYGVvEafgWBCOcDsa1ZqiT2DpOeu1yvt0rLZyia9fKMoMME2jQ1rm9imWIzhbDhYsK8A5TxzWbC/uYQlNhcsWNulaDpOAhQ5WXfjfD5vWrexvxQoEqdaWUnQl8ICBM/L4AM73OJAp9Np2F3r+CXKUhD6OkjPUxKAbrdb2h1rs2Bt/lWgIDagq9VKFQqFWDjqwILFy7VJkwJFznK5bJLa92XBmmSTBEXeWq1mkv6fL/6D4rRcLufFfWaz2UMK2OEx9PyD892YTCYP/qVSybvdbtQt1mYrC8WeNWlFkavf76tMxqL02OnQcAirFD6minEVDWKfz2eNqn66qJ9d5j0UAkUlBbpYLMwL/B4hAotYnU7n/3WVFGiv17MGxUAx2N1u58MmBVqtVr37bisdsKgCwOFGlzediLAvjuldN7hGAXo6nai7sS2mLM0sBdput73L5ULDW9kW9+9nD5roc/TxQ72w18UWkLbBYKA2m43V1pDG8m2rKdIchGVts3SHw6F3PB41s+i7sV7eI2fPoBOKQrlisagqlYpqNBqq1WqpbDZrEEXf9aWw+mXKeP7KNStTKj+Kg+XPYTojOGXTqQu/Kqcsfw7TGcEpm05d+FV9lLJ/AYagHLWkB1FkAAAAAElFTkSuQmCC;" parent="1" vertex="1">
                    <mxGeometry x="1061" y="221.75" width="59" height="56" as="geometry"/>
                </mxCell>
                <mxCell id="NeyLfoXZ4A740E0lLUlC-1032" value="" style="edgeStyle=orthogonalEdgeStyle;rounded=0;orthogonalLoop=1;jettySize=auto;html=1;exitX=1;exitY=0.5;exitDx=0;exitDy=0;entryX=0;entryY=0.5;entryDx=0;entryDy=0;entryPerimeter=0;" parent="1" source="NeyLfoXZ4A740E0lLUlC-1014" target="NeyLfoXZ4A740E0lLUlC-1031" edge="1">
                    <mxGeometry relative="1" as="geometry">
                        <mxPoint x="810" y="320" as="sourcePoint"/>
                        <mxPoint x="1050" y="258" as="targetPoint"/>
                    </mxGeometry>
                </mxCell>
                <mxCell id="NeyLfoXZ4A740E0lLUlC-1028" value="PlanetScale" style="text;strokeColor=none;align=center;fillColor=none;html=1;verticalAlign=middle;whiteSpace=wrap;rounded=0;fontSize=16;" parent="1" vertex="1">
                    <mxGeometry x="965" y="240" width="90" height="37.75" as="geometry"/>
                </mxCell>
                <mxCell id="1002" value="" style="dashed=0;outlineConnect=0;html=1;align=center;labelPosition=center;verticalLabelPosition=bottom;verticalAlign=top;shape=mxgraph.webicons.github;gradientColor=#DFDEDE" parent="1" vertex="1">
                    <mxGeometry x="628.8" y="530" width="102.4" height="102.4" as="geometry"/>
                </mxCell>
                <mxCell id="15" value="" style="shape=mxgraph.gcp2.google_cloud_platform;fillColor=#F6F6F6;strokeColor=none;shadow=0;gradientColor=none;" parent="1" vertex="1">
                    <mxGeometry x="493.5" y="210" width="23" height="20" as="geometry">
                        <mxPoint x="20" y="10" as="offset"/>
                    </mxGeometry>
                </mxCell>
                <mxCell id="NeyLfoXZ4A740E0lLUlC-1014" value="" style="strokeColor=#dddddd;shadow=1;strokeWidth=1;rounded=1;absoluteArcSize=1;arcSize=2;fontSize=16;" parent="1" vertex="1">
                    <mxGeometry x="650" y="290" width="160" height="60" as="geometry"/>
                </mxCell>
                <mxCell id="NeyLfoXZ4A740E0lLUlC-1015" value="Cloud Run" style="editableCssRules=.*;html=1;fontColor=#999999;shape=image;verticalLabelPosition=middle;labelBackgroundColor=#ffffff;verticalAlign=middle;labelPosition=right;align=left;spacingLeft=20;part=1;points=[];imageAspect=0;image=data:image/svg+xml,PHN2ZyB4bWxucz0iaHR0cDovL3d3dy53My5vcmcvMjAwMC9zdmciIHhtbG5zOnY9Imh0dHBzOi8vdmVjdGEuaW8vbmFubyIgd2lkdGg9IjM2NS40NjQ5OTY3NzA0MjQ5MyIgaGVpZ2h0PSIzNzkuMjIyOTk0NDYzNTc3OTUiIHZpZXdCb3g9IjAgMCA5Ni42OTU5OTkxNDU1MDc4MSAxMDAuMzM1OTk4NTM1MTU2MjUiPiYjeGE7PHN0eWxlIHR5cGU9InRleHQvY3NzIj4mI3hhOwkuc3Qwe2ZpbGw6IzQyODVmNDt9JiN4YTsJLnN0MXtmaWxsOiNhZWNiZmE7fSYjeGE7PC9zdHlsZT4mI3hhOwk8cGF0aCBjbGFzcz0ic3QwIiBkPSJNMjkuNzk0IDEwMC4zMzZMNDYuOTIgNTAuMTY4aDQ5Ljc3NnpNMCA5OS42NzFsMTIuOTc2LTQ5LjUwMkgyOS4yMkwxNi44OTcgOTIuMDU0eiIvPiYjeGE7CTxwYXRoIGNsYXNzPSJzdDEiIGQ9Ik0yOS43OTQgMEw0Ni45MiA1MC4xNjhoNDkuNzc2ek0wIC42NjZsMTIuOTc2IDQ5LjUwMkgyOS4yMkwxNi44OTcgOC4yODN6Ii8+JiN4YTs8L3N2Zz4=;" parent="NeyLfoXZ4A740E0lLUlC-1014" vertex="1">
                    <mxGeometry width="30" height="30" relative="1" as="geometry">
                        <mxPoint x="15" y="15" as="offset"/>
                    </mxGeometry>
                </mxCell>
                <mxCell id="NeyLfoXZ4A740E0lLUlC-1018" value="バックエンド" style="text;strokeColor=none;align=center;fillColor=none;html=1;verticalAlign=middle;whiteSpace=wrap;rounded=0;fontSize=16;" parent="1" vertex="1">
                    <mxGeometry x="650" y="250" width="160" height="30" as="geometry"/>
                </mxCell>
                <mxCell id="1007" value="developer" style="text;strokeColor=none;align=center;fillColor=none;html=1;verticalAlign=middle;whiteSpace=wrap;rounded=0;fontSize=16;" parent="1" vertex="1">
                    <mxGeometry x="265" y="640" width="160" height="30" as="geometry"/>
                </mxCell>
                <mxCell id="1008" value="terraform" style="text;strokeColor=none;align=center;fillColor=none;html=1;verticalAlign=middle;whiteSpace=wrap;rounded=0;fontSize=16;" parent="1" vertex="1">
                    <mxGeometry x="640" y="414" width="160" height="30" as="geometry"/>
                </mxCell>
                <mxCell id="1016" value="" style="strokeColor=#dddddd;fillColor=#ffffff;shadow=1;strokeWidth=1;rounded=1;absoluteArcSize=1;arcSize=2;labelPosition=center;verticalLabelPosition=middle;align=center;verticalAlign=bottom;spacingLeft=0;fontColor=#999999;fontSize=12;whiteSpace=wrap;spacingBottom=2;html=1;" parent="1" vertex="1">
                    <mxGeometry x="310" y="540.37" width="70" height="81.66666666666666" as="geometry"/>
                </mxCell>
                <mxCell id="1017" value="" style="dashed=0;connectable=0;html=1;fillColor=#757575;strokeColor=none;shape=mxgraph.gcp2.laptop;part=1;" parent="1016" vertex="1">
                    <mxGeometry x="0.5" width="50" height="33" relative="1" as="geometry">
                        <mxPoint x="-25" y="18.5" as="offset"/>
                    </mxGeometry>
                </mxCell>
                <mxCell id="1019" value="push" style="text;strokeColor=none;align=center;fillColor=none;html=1;verticalAlign=middle;whiteSpace=wrap;rounded=0;fontSize=16;" parent="1" vertex="1">
                    <mxGeometry x="424.5" y="592.4" width="160" height="40" as="geometry"/>
                </mxCell>
                <mxCell id="1021" style="edgeStyle=elbowEdgeStyle;rounded=0;elbow=vertical;html=1;labelBackgroundColor=none;startFill=1;startSize=4;endArrow=blockThin;endFill=1;endSize=4;jettySize=auto;orthogonalLoop=1;strokeColor=#4284F3;strokeWidth=2;fontSize=12;fontColor=#000000;align=left;dashed=0;exitX=0.5;exitY=0;exitDx=0;exitDy=0;" parent="1" source="1016" edge="1">
                    <mxGeometry relative="1" as="geometry">
                        <mxPoint x="450" y="320" as="targetPoint"/>
                        <mxPoint x="270" y="440" as="sourcePoint"/>
                        <Array as="points">
                            <mxPoint x="415" y="320"/>
                            <mxPoint x="430" y="340"/>
                        </Array>
                    </mxGeometry>
                </mxCell>
                <mxCell id="1022" value="データの作成/更新&lt;br&gt;POST/PUT/DELETE" style="text;strokeColor=none;align=center;fillColor=none;html=1;verticalAlign=middle;whiteSpace=wrap;rounded=0;fontSize=16;rotation=0;" parent="1" vertex="1">
                    <mxGeometry x="343" y="480" width="173.5" height="50" as="geometry"/>
                </mxCell>
                <mxCell id="1023" value="データの取得&lt;br&gt;GET" style="text;strokeColor=none;align=center;fillColor=none;html=1;verticalAlign=middle;whiteSpace=wrap;rounded=0;fontSize=16;" parent="1" vertex="1">
                    <mxGeometry x="260" y="270" width="160" height="40" as="geometry"/>
                </mxCell>
                <mxCell id="1024" style="edgeStyle=elbowEdgeStyle;rounded=0;elbow=vertical;html=1;labelBackgroundColor=none;startFill=1;startSize=4;endArrow=blockThin;endFill=1;endSize=4;jettySize=auto;orthogonalLoop=1;strokeColor=#4284F3;strokeWidth=2;fontSize=12;fontColor=#000000;align=left;dashed=0;exitX=1;exitY=0.5;exitDx=0;exitDy=0;" parent="1" source="1016" target="1002" edge="1">
                    <mxGeometry relative="1" as="geometry">
                        <mxPoint x="610" y="480" as="targetPoint"/>
                        <mxPoint x="505" y="700.3699999999999" as="sourcePoint"/>
                        <Array as="points">
                            <mxPoint x="550" y="581"/>
                            <mxPoint x="590" y="500"/>
                        </Array>
                    </mxGeometry>
                </mxCell>
                <mxCell id="1025" style="edgeStyle=elbowEdgeStyle;rounded=0;elbow=vertical;html=1;labelBackgroundColor=none;startFill=1;startSize=4;endArrow=blockThin;endFill=1;endSize=4;jettySize=auto;orthogonalLoop=1;strokeColor=#4284F3;strokeWidth=2;fontSize=12;fontColor=#000000;align=left;dashed=0;entryX=0.5;entryY=1;entryDx=0;entryDy=0;" parent="1" source="1002" target="14" edge="1">
                    <mxGeometry relative="1" as="geometry">
                        <mxPoint x="680" y="410" as="targetPoint"/>
                        <mxPoint x="730" y="520" as="sourcePoint"/>
                        <Array as="points">
                            <mxPoint x="680" y="480"/>
                            <mxPoint x="1005" y="500"/>
                        </Array>
                    </mxGeometry>
                </mxCell>
                <mxCell id="1026" value="" style="shape=image;verticalLabelPosition=bottom;labelBackgroundColor=default;verticalAlign=top;aspect=fixed;imageAspect=0;image=data:image/png,iVBORw0KGgoAAAANSUhEUgAAAegAAAHACAYAAABpr/tXAAABdWlDQ1BrQ0dDb2xvclNwYWNlRGlzcGxheVAzAAAokXWQvUvDUBTFT6tS0DqIDh0cMolD1NIKdnFoKxRFMFQFq1OafgltfCQpUnETVyn4H1jBWXCwiFRwcXAQRAcR3Zw6KbhoeN6XVNoi3sfl/Ticc7lcwBtQGSv2AijplpFMxKS11Lrke4OHnlOqZrKooiwK/v276/PR9d5PiFlNu3YQ2U9cl84ul3aeAlN//V3Vn8maGv3f1EGNGRbgkYmVbYsJ3iUeMWgp4qrgvMvHgtMunzuelWSc+JZY0gpqhrhJLKc79HwHl4plrbWD2N6f1VeXxRzqUcxhEyYYilBRgQQF4X/8044/ji1yV2BQLo8CLMpESRETssTz0KFhEjJxCEHqkLhz634PrfvJbW3vFZhtcM4v2tpCAzidoZPV29p4BBgaAG7qTDVUR+qh9uZywPsJMJgChu8os2HmwiF3e38M6Hvh/GMM8B0CdpXzryPO7RqFn4Er/QcXKWq8UwZBywAAADhlWElmTU0AKgAAAAgAAYdpAAQAAAABAAAAGgAAAAAAAqACAAQAAAABAAAB6KADAAQAAAABAAABwAAAAACCTgPQAABAAElEQVR4Aey9aZAkR3Ym9ioz666uvk80gEaj0TgaDTTQuAbAADPgXMRwdiguSZHLJcXlLmcpk4w0ck2ytSVlGjOt0agfS2nNpNWuSIpcUrx2qBkec89gAMxgAAyAbjSuRt/oA31fdVdWHlV6X1R5VVaezyv9q6yoDm+rjszIiC9ePH/vfe4e7i/aZPFL2+JfMrliooFEA4kGEg0kGmhaA1NNI3gAZDyOXexDEyJfbI0n10s0kGgg0cCNqYFFJV6ripcaQdcj5Xq/We83OS7RQKKBRAOJBhINlBNyKb+U/9YybZUKxRSi3nXKfyv/7uSqtd/9nmwTDSQaSDSQaCDRgEUDtUi4fH/591Lser+VHrfgzyzSq4Vbvh/fS/fNfv7N3/zNzG/91m/tWLly5fZMJnNrOp3e1NbWtjGVSq3Rc1bpdoVu+/SvR/+6hoaGOqampjr0c0aPbZ+cnBT9rl+rlxUrVogeV/3Hsr3Dw8NSLBajvTinEXZfX5+ozGUo1b+Ojo5KPp83Y/f09EhHB26zcRkbG5NcLhcdaJG7q6tL8Gcp4+PjMjExYcbu7OyU7u5uC3SEC3wUi9zQB/RiKdA1dI6iNhRtUZ+1CuoR9WkpsBHYCkqqLSVtqbZZu6l2Pq7f399f7aeKfaXY6geR7M4mKw6e2bFq1apaP83bDz8ZHByc3Qedh8IG6MDAwDzsRv4Dnbi6mT2xxgf1+8gf8bPFVph+39vbK+3t7TUknb87rn6fzWYFfygWffv4JmIVYhYK6h92WSOGR4FddT2lOofz4g8BGn8FPQcBFYEPgo6pvY2p3w+rzgf1t2vqP5f0+wX9O622+cGXv/zl41/84heng7CeoAX4peRR63N0cMl/pceV7F74RxuLLBzfnTlLvLqj6mdV0spHH330U6r0JzQoPqZKvE/JuR3ByLcguFiMxxcXxy8GNoyyHmksVG4YPfTJwIa+4yY39ACd4C+0TianJqVtsi2yw0Zk51ufTs/QeWhsyDJZnJz2H91qiPQVr+7xi+E/qEvoKGRZDLldvYaWO45+73yzRrxypIDtdCu7RGnlnOG4AFtXXEMKDbbf+I3fyP/6r//6e1rHr2qn4+UTJ05886mnnrrujq2yDWtcVS7gdlXcnPsh4NYpsxQS+9p++Zd/OXPx4sXPX7t27UvPPPPMh9oL+gtV3H+nCt6rv9uaoqWoJZ/hUM4wS3YH+QhsGAHwQxdgozCwHQkxsOMqN1MnLuCWBoZQ9kLFVlIGSafS0w26UDI7HLZvJn7vND29Zdp4rP1eaXYmFqIjuEc7hr+mPfI/3b1791kdUfpbHcX72d///d8HD0V8VaLV8u8lP4X9GIphnMD1trhW9Pe1r31t3aVLl/4HvfnDOgTyN6qYn9TfbGOrHvfPDARMo2djI7inU3OtSQ+V1j3Uyc0gJDZ2pJOSFnbdG/X4kUqkMyMtDH2j5xyR9Myoi8ctmw5l+iYT29kho5FLx54jJFMdWQ9ycjPskIqto1w1/B6E/Vl93Pfn/+xf/Orxy1ev/87LL7+8UfUxy2H6GVyH77U4T39qvuACoQsERikVPLqR3/u93+s9f/78v3n88cePak/5d1UJt+BApkMxsZ3xsJwVxsPAjkhDjZPlUDWMHlXdVIG+8ceQO9JJgj2vfkDSs/4TufO8n5v+Mou9gMdYjS7usDEXIHRZDL9n2DgeuzB9c2pSG/6ERm4r/T7V1ra5o6P9f961+75jl69c+bd/+Id/iEkj1ci53MwcD5bv9/oe0nodIUMAJ5zb1zYyMvJzX/jCF97VVskX9feKWTfOoTB0HLowsZnOCmdiORSTkFrpUM3YjtNJJh1+aobDZgQwYMPGMaGNUSL/0eFuRmH6JrAxUS9uJM22Ffgnww7RAGBhLwGddHV0dv2PP/2z//XBixcv/8qOHTuiTqf6hCMsx3VB3aQZr3MCOQGdYKX727773e+u0dlyf4WxfSXfre6galu2s6I3ymgAsEk6tkavzzEZpMEkJGAXioXYyQ1/KhQ4cgMbvskI6g6b5ZsJSUPD84sjO5Zv4tEICxv12Ups5Y+NXT3d//G1N/b9nQ57b1DNzuO7ku9Qeulv+O5dfAm62gVL97nPwE1fuHDhqWeeeeYNVeh/ZZXMkbT1eJ/jHHZC0nNac2THCL4YImWSRoI9V4/uE1MnrOAI2Zm+CWz0pBO/d1aia4jQECU16G4Ev9d4+el77t29/8SpU59RrWJCj+tRu63jQqd0fPcuvieVH+++Y1v6OXX69Omf1yns/7fun52NbV2XibsoXSeI742KLskyO2Dp+uBGuPjdZ+1k6fpgC7bPmmmsO3brgy3YPmumdZRjdn2wBdtnzTQCpFsfbMH2WTMNbH18EgUcC7bPukyMXADbjZA0wkfL3rpmGgESOrFio4dpXTMNOUvX7jeSG7/7+CZ0guBuLT7Yvn7vs2aa6fel64MtevFZM126PtiC7eP3qEfUp7Uw/d7HN339HsuqoHNLKfX7VGaWvmqdOjk6OvKbWzZt+k96ANZjuyVY2JZ+xvnuOz6bim8PuhTUEbLb50i67dy5c7+lpPb/6A8N786dXL71MeDycxt99zHgRljlvyMZBwiGUXyIy/f6Pgbsi43eORo5jB4MsEGKDGyQIrCxDV0gr0/Dz/f6wGYMBUIOn0alr9xx9XsQF8vvQVzWJD+++naNSh1f8D214fE3iN+nenv7/v2lK1e+qAqZ5cCZz05HC1auT+QpvUipIMCY/VNy/p/UmH63TEAnqNeWNQQDIdACg3EyDBMtsAibNOGNhe30zSA7YLOeM0LfLGz0dFEYJA258YdAFrowhzAhq7OV0HIDz/kmE5th43H2+3QmTWnkoi5ZvrkYfm+1wc7Orn996cq1f6fH1xvuLuVNE7QPQQPQXcCBu+8RQeuw9r9Qcv4d92OIrQsEDIcCNsswI2wNvDS5ydgMQmI6KxMbgQCFoRMQKYukITP0wmgAANv5Jj6HLhG2zqaPq/8kcs9ZBNM3mdjO7+fupP6nzs6O//7ChUv/So9yHVbHj+7E8u9uf82tL0GXAuFis+Xo0aM/oc+a/v3sjoAf4KysVhgbG8GR5qyabKQWaaDjd+lCXj48NSEjQwUN1PbHH9AJZK6F3UzVMh3KYTPkds7KwGaSNBMbdgBbiWycMESK2fTQN81/yL7JlJthh8xY6HyToROHzdCJb6zr7u35X06fPfvzZefN48qy3+p+bUTQjvHLL+D2Ry2FF198cfvatWv/SBWlvhp+uA534CqBWcEMbGf0DONBAIPM1bB1SaKSc15+8PywvPDdYTny/riMDE+nEa1rETM/Qt+1sC3n1zvG1WU1ueudZ/mNKTebpFmJHtgkHdVnDNOCOt+k+P1M44Jh45A7rr4JfTB0wvR7S9wpOaZtZf/K//Ott97apfvKe9KORx1/um3J6fM/NiLo0qMdGLY4Lxprf+KJJzp27dr1J2oweLsUfbgOlctwKEcaLGymQ1XDRrAHIb9zICvf+uqQfOtrg/LKD4bl1IkJ7fXYetNMo2djwxYZjUUmSUeZnkjZmBaFpGPqm8yYUs03YZvNFrb/xFVu6JXh95711XXzttv+VN/IiGnjjqSxdRxqhqtH0AArL+4C7rfUl770pX+tCnnEHZgEAqeJ+Vu2Q+Fq1VqmqI9r1wqy/7Vx+YcvD8rX/35A3j0wLteuFvQ1l8hUNl/O8m9ObobRAxulmtzlcvh+B5Hi3hlyO5KmYCMdY0xJejZ3N2G4G7bCJFJgMzKOOf9h2LjDZtgh0zcdNkNupt/7xKB0KrXrX/+b3/63eo7jTHd6+Xfsd3zqjpnd1iPo2YNmAByI26a+9a3nt+ukMDwUn1cSkp6njtkvzjAZztqINPAM+uqVgrz8/VH5k/94RX7w3LCcPJ6VocFCwx415I4l2ZFJmqaTuKZM1GWe7i1Ys0Yf8APskEnSrLSgTL9fDN9kxSua/xD93secdendv3zljTfu03McKTvuBEzp55qw1QjagTkQ9x1b103HNvXg3vvRQqi66DchaaivsjgibZXRT2rv7PKVvPzNXw3IX/7n6/LDF4bl3Ic5fQm79twqxZ3dw2yZLgY2lqaFLpAbf4yeANN/qNggaZJOUH90ksacjuQFG7OugrpEYfkPm6QZcs8qp/GH1B3bb/9f9TC39MrxZymn4jOK2zf9beb/agQ974CZE7HPAUTkvG/fvic6Ojs+X35w6XcXCFhKcs5aes1Qnx02nsWELs7omSSNd/nWK5DhsE4c+y9/fl3+9A+uyoE3RmV8BMPCtc/COfhjEBIbG/XJsEOmjc9iE1/ewXoxCPTNsBNYJ9M3i5P62EVdPo5+z/RNlv/E1e9rR8n5v2gCqKffeefgZ3VvxJszW0cqbjv/pJJv1m4FgOb93Xzrtoqh7RLc2Y8IMph1yAiOuAg7ECDIsJyVNVwHo8dzzDZ9rtao4Dn04UNZOau96Hvu7ZS9j2bkth0Z6e6pbjuzpEHokTpsRmAHNivIOGxkYwtdImwlDYb/OLkZ2NBD4puV1gDfhN8zGueoTxZJO1thZEtzciNjWuji5GZgW2XdvHXLb+mxX9U/dH9KebROd2gavVoUdvtKgfDZtQDavvnNb97xkSeefBMXW9HbM41k+B+5cEHW1uKTZhE5qpFP2lp8sJFnF/lwrQWpRK1BD/m18WctSPlnIYJCflJe/O6AfPvrw0q+jZdXYaCgsyslmzZ1yN1K1A883C07dnZJR2d1kkfwRd5ka4GDIB2ipSDIABvOZSnQB/RiKcCGHWJrKahH1KelQF5gQzeWgiANO7QUYMPGrf6DRiXSfVqLr2/6pG71xfbxTV+/RypRawPQ1zd9/B6xyievPnzHSjK+vgnStRKvL7avby4Vv4eNwFaGR8esLlT3uENHDj/16N69+/UgBB78uSCBIOf+9GNUZgNfeQ+6lJxxZClJI1JjLL3tvvsf+LWZ37x6lzBKBDxrkPHpYQIbSrViq/xm2YEJua0NAARHa68bBu+DbZUb14+G66IqxFn1C7gwOz4pH56ZkOvX83L0CHrUWXn28yulbwUyOs0/39WlVSc426oT6Bt1z6jLUmK2NABwjFVuYOMPx5deZ77m5r75Yju9WBoAPtg41tWnVec+PUBgt+tLB/IFWwMa+rPqHPL6+I8PttMJw8Z9sX3kRmeCGQtZ2LBr3CfsEX+Nio+NO38EvvtcD98Hux6O++3Wrbf8t/r5X+qfi6SlpFzzZqt1jxyA2+Ia+Bz9fe5zn+vs6e0pz5SCY0zFOZTpYM+DmNguyHiKZDrcOavpYM+DLIZeCok10oMDRfngWFZ++OJI9Hz6B88NyuWLee0ZzrcjptzMukQg8Gn8leqn0Wfn/D4E1gjT/Y66BD4CJKNALyxskDOIlFGYdsjGtoyGLURnTP9hYjvfXMg9NzrHNQBA0otdurq7fuq3f/u3V+l1HZeWi1BVqGoEXXpiOVjb7/7u7z2jN7iy9CDfz6hgViBgGg8zyDDl9q0fHO+WZb32yqh8QxOdfPMfBuT1V0Z0/XReSWKOqJlyM7FdIGA4a1xJmt0AYNZnXLGZDYC46oTZUGT6fb04q3Gm81d+5Vc/V3KM49aqxOyOsxK0G95Ord2w7ifdyc1smZUAw4xjA4Ap90LrCj3q0ydz8pL2pr+pRP2drw/JkYNZGR+be4brAgGD7JxOGNhMZ2WTdFyTmUS2QpiVDvt2drhQW693XpyxEQsZ/uN0wsB2/MDCZo2g1bOh/pX9P6O/11pyhVMdWbttNPHLYc7unDkQ38v/0l2dXR9xJzS7jetwHQyTZfRMw2ymvkaGJ+WozvYGQX/jHwZl/+tZOX+2qEQ93ZuGTlhGzyRSJjaTpOOcFhQ55JkN6Mg3Z2NdM1Y//1ym3zOxmTYeV7mhE5A/owEw32rmvrV3tH/k05/+NGazosMLbnVbx7NzB898Ku9B48Dy4k5u+53f+Z01avzbyg9Y6Hf2kBoqgUmkcSSkhdaVO29cJ5Lte21MvvG3o/L972bl4Dt5uXS+qBmkppfVsIzeBRnGs10mdkLSznLmb5FxjEXSUX3G8OUdzg4ZpMHEdo1zRoIXJzfD7+Gb0DUDe761T3/Ta3V+8YtffEi/OU6tdti8feUEjR/dyW47u+/Zz31uz7yzA3xZDJKOI5HCMFlk12y1oc4u6KssX3lpQr7+lXFdzpWVUx8UZGwUa415Ru90wnAoYKMwsNkkDXwG2TF9U+fpRmlBkwb0fG9kEhLdf5QxGP4TV9+cX7PT3zZtuQkj0I5ba21nTy3tYs/unPmAk/H77N/qVat2lB8U4jszEEA+Z/Rxa5kudgvPty6R5OTChYK8+L2s/MH/MSJvvJaTa1eKulxLe9T6iDpx1jmNMkma6T9U7Jm0oLCTuPkmO6bAchj+w7TDBHvO32t96uzqRCe39Dl0KQeDc12JyBs/lhfH6m6/O6mtq6v7Frcz9JYZCCAr26FYQYZp9KHqEEsWsTTry38xJn/xJ2OaNnQieltWocDp2TmdMHqNbGzYOUNupv+wsWd9M+pYhLLKaZxZbMLSGofNGNp1dsgiadQpCxtpNxg27nRCwybJXWrRnR2dd+n3WU4t+Vx62OzncoJ2J7oDSr+3dbR3bHY/MLYwGhg9owIgr3OouLXWnWEyHCpkPeY1e9nRQzn5yl+Py5f+bFQOvZvTzFqcCUHQCf4YtsLEZpMdSyeR3Pr4gpG7e9Y3G+SPX6itsv0+eguWjgKELqhLFIbfoz7xR/Ef4itTmb6JiZcs/3G2obkAbt67dy9yAs/jVvd72f7ZsXD8jhNK/2BxAMI2+nzx0uUvd3V3P6nfZ8uUzsi0lv7+fuuhUapHOJa1MNMD+mAvlbSgRSXL/a9Nyne/OSZnTtvTlFr1Xe84dFaQInTVqrQ88FC3PPSRblm/oSDtHaU2WRthqaQFRQAbGRkxZTXC3SARh09aUB9sBGlrWlDIAmwX4PG9XkGD1SctqA82rnsjpAVl+j0ygwHfWnzSgmKC1xjSWdpcM0oJak0LCvsbGR4xYy+VtKClft9GWBL413/5pUe+8IV/dlTrE0tgQHJIsYfP+EOrzH2Waql9Skm69HNKW1vIhDKvoAWGSrYUn54rghFy+FpzYCOAWfERRH2wcW9WbJcT2ppfG7hWbDgejrXk8FVuiQrIcrELrj2hr6+8dHFSJ5JNaS7wgqYN7ZBtt0/J5pvSJqK26gT2h5y5CASYeGQpVmwcF2EbSRqO7YMNG0fuYUtD1AcbOgApgkgtvrkw7FHFtqXu9OkBQt8+vgl9W3Xu6/c+2PB7HO9DpFa5QYg4FnqxFB+5QYq9feo/aivWYpUbvtm3ok+Gh4et0Oa6nPV7om/66MR8g3rg7Ttv26qb4/oHMnYc64IXvrvPUc9YvzcsUZjXtyNVZN9HAICyGIWZZQdBkZVmDy1HFjZT7tB1CKIeHCjoay2z8sJ3R+RbX83KSy9oru9r00N3oa4XDUtlODYIGX0afz73BGKE7D4EZsUHdrHAe1wEcmal7kRMYWEz/YeJDZ2wYgoTGzph1SXLd+Bj8B9WWblyZfmjYkfSFZes9eCk2gnacGrrrUDQHagEFkkznZXZAGBjs5y1Wv02uy83gd50QddMa0ay5yfk218dl3cP5GR0BATVLPr0+Uw7gX0zSRp3QCFpbYhHjRdSA5qpcyZ2XH0TcrP8nqkTZl0yuQe+wygr+vrWl+BGnd+S7/M+gqBLybj0Mw50z5+j/UrQNd8XyEw8wKzguGIzHWqehQT6ggZpLqfLss4X5NUfTuiz8XF5+cWsHHk/HxF1iAarq0vrEJzPrTFJ2gUCCkmrYhOSrqxpZyuVvzS/ZzGIVAf2mxe0DMHphOE/TGxH0gy5y1QU5Ks2stYq0DxunQEurdSIc2v1oMsFcQTdWf6D+x4lHtAWB7MnzcRmDcMwDZOJ7eqVsc1NTMmxwwX53rfG9S8rr2rCkw9PFfS92M0PK0EnrN5uQtLVrQE6j7VvEsjONaAZpBHpWx/p0LB1xCVu2EzfrG71C9+rvrJGz444dWYLsFJyxveo1CPoihO00uo+6HPP1FjO6lpKTviQWybZuQAWN6MPqd9yLPSYh4amolShX/3KmDz/nawcPpjX9dOTkteedjM9aqazMrHj3JNm99JZMQW+mSKlBY2r3zu5GSM6kb49JvSWx41635m+We+6vr9lMu0Vc7lmMBxpz0LWImhHzu4Et611/Cxg3Ema1ftiGqZzKEYDYLZiSR9gL+hRv/ZyTr76ZR32fiErJ47lZPB6QWcJL7xH7ZyVEWSY2GySjutbsKBzkDTDxl19MrCZvuliCsPGmdhO3wy5mdihQqAmtsF6Y8epblsVvpRw3YHYopR+d5+nf2nwP5ukma11V8EMZ2ViMx2qQXUH+Rk2c/ZMQZ9NZ+Wv/3RInvv2kJz7MKfkrRM1FsjT0DfqkRUIWNhMko7zW7CY/sPEdr7JiiksO4TcLOy4+maIYNeWTvVUwXG8i59mP5cSdJVzFr6LSdJMbNwx01nZ2CyHWrgl+J2J/N6nT+Xl7740IP/X71+W118ZEexb6JA3OxDg7hjDrwlJV7ebWf+Zi2HVD1zA3llsbdSFLg6bkRaUbeOsmMKWG3XIaJw3axvp6dVQrtNb19hqEXTdk6wCMomUiY37cw4F4wxd2NiQF+kH41yKxSn58GxO/vxPrst/+N8vyjtvjekz64LWi393GvpGYREpbJGFTZObmNaQ7ZtYMYLnxozC9k1WWlBn4wxCctgMG2diu0YuQ+6mbC+VqjnZuhy3Wiax8mOa+s50ViY2bhrGg8plkTQL2xmmJpZpqu5affKkkvHQYEHe3j8p504XZOfdnfLEx/o0I1mndHX53Rt0guDFqEuHzQgETGznP4wVDA6boZNoxcjM+6QZ9Un3+1Sa0rNztsIg6cXAZtgKU+6FxkftO2G5cmkPyn1221nopgnamsMXjoRUda7FNCtBnQ/W3MPARoo9PDOxFpeaz3I80o1i2YS1IDUf0nJaCvSBdI/WQIM81RadF6Jh4SEvfVvkXexjMLSd1bSh587lZGAgL8ePjcvuPR3y0KOdsnFzRkcKpnvGFp042ZHCDwRiKQgaPtioSwQFS0EgtWIvxH/iio2UnBZ/wDFIqevjm/BLK4EB15pqGPXt4/ewEYbfO7sbGhoy6RDHI/mJ1VZwvE/qTjT+fLCZvumD7XxzdNyeAx26MZW2FN5xgVJByNO75/63ELQDcdu5s/WTT6sHxg5jsDoUlGRxVAgEbBiDFRu4VtnRsIAsVmwca8VGwwLHWrGtck9pAChGLzKpWm3z6jAOXyYn8eKKKQ1qkzI8WNSEJ3m56552uf2Ods3v3SXpnrorAGdv0ekZAdJC0lZ94wJobDlytjREcX2rnQAPssO2LNiQx4oNOfK5vKR1ba21kWvFhhzON63YuEf8WQqwffzHxzd9/d7HVlh+D51Bbh+dICZb6xNy4z6tdQlcKzbqErZo9U2fuoTvANvhW2zLKrcFq/SYVFubI+jS3VU/N/ICF93dtiqIz04oijGkBhnY2DBkRoHcLGwY5HIquJ1rmsv7nQN5ze+dlec00cm+H43L1StwQNudIrjA+RBoQhdHnlaC8bm+CzCMwIFhY8jO8k3onIXN9J8Eu9JCmXUJG2TYN+4C2PB5ht9XaqnunlIicUGofBsB1CNod0LdKy3kRyTxZzkr03ji6qwLqaOlfs5EFsuyivLGjybkO98Yk+9+Y1jef3fMnORklqQbjzJ5q8IFAgZJu94FAxsNAGaATHyz0pTiGlOYdcnEhn3Dd1pJ0jpR0Dbcp+ZSjaBpxOzMM+6tdVbjgumsTvfLaYsec3Z8Sk6eyMtz3xySr/3tgCY8GZEzp3IyPqZD2A0eBUckTXoLliNpRiBww+gskgY+qxfDDL7wH6ZvMrFZI2jMmMKsSya2I+mWxUJ9smW9djWCtp7b1HGL0VpPgkxTVRSrk0dHi/L2m1n58z++pq+1HJQDb4zpG7TyUY+6XqKTxQgECUnPN6W49tKZtsJuXLAaAEydMLGZNjjf2qt+C0rQrkfttlWvuJCdIGlma51ZCUzjYWIvpJ7icg4mkg3qsqzvf29Y/t8/uhr1qo8fyeqs06IO3Wp3u8Yzauib1ZhzrfU4knRc04Iy/Seu2MwGQFx1wuSHejFTYwG41P3VO7TqEHe1E4KTs7sIm6SZDQBmYJ/G1mVEhGekTvfLdQuiHlCi/trfDch//oOr8sMXhuWizvrGci0dva1anLMyiDSuJB3ntKBs32QNdzu5GXYYZ2zom6ETpt9XDTTTO8182rIh7lLhmSTNxMY9MCsYy6RYb9op1f9y/nz61IT8l7+4Ln/8n67Iy98f0rdl1V4rzyRSJjbzmXScSdr5JsO+mWTHtJW4YkPfrMldTJ3UsD0zQVvWQde4RtjdpUQKhYUsTGzICXkxRIpAiWuFLEzskHIuZSy8cOPw+1md9Z2X237ULg89npHd97VLpqPST5y+nc2EvC9guyDjSDUUPvCAjb/g2Drbrm1yOm8A7iFkcXqG/4TGhpxICxr5pm4xOTVkcbYSN793cuMRBhpgIcss9szjy9DYLP9hyl1FB5WBp8pB2LUketBOtlJndftCbZnYkBEV7IwnlMwOh4ntrrGct2gzFfXVlUgb+v57E/IPfzMmX/7rMR32rk420DcK6jN0ceQZN2ym/1CxlZRd7m7WEGkc/T6ycaUJhh3G1X+YcteJIyBrR9huO3s4drgo5D5jhhk+Y9sxs40+Dw6PnNLv80qbRwsMKfwsBY6EbDhwXGvxwR4fH/fqZfikBUXqQQzHWIMB0gNaJyhhogey7ViwC/lJeePVgk6UGpUzp+1pSq36jvNx4N116zLy7Of75elP9qv+a9+NTzpG1CPq01JQh0g9aKlL4CGQWtPH4likY7RiA9/Hf6ATn+KD7ev3Vt+ELsY1bSOCcDRFx3ADPmlB4ZfwT6vOWX6P20I6YOszcjQYEQ+tcmM2uHVGOOI3bMXaCIDMkN1aWL6J6zvsKeQSJpSVK/q2KCyGL9AbmJjZgvDwHX8R+TU9xI2KBSFZipWIgNXb2xsZDgzfUmAEViNDwIBRWrGBa5UdAQMkjZR4lgK5rdg4DrJA9kYFL5pAK8uqk0Z4y+l3TBQb03XSSB06rX9oqnqBHVpz+PrYCa4GbBCSa7lXl2B6L4Kd1U5wBvLYA5vhmw4bhGQpPnIvxO+tBNDT0x35JfzTUnx8E2SO+rf6vY+tQH+QBfVpKb7YwLQ2ukDOPvUJW7Hm7gauD7aPb/rUJfQB7EgntUMDDqOXppsHCADW1prP3cDIWEsDgI2gaG0J+soNnTCwIQdLbp97vNGOhXPDZhgFxAv80MXZuE/As8rA9k34PcN/IDfLN52+GXKjXlhyA5sZU4DN4AfIjd4/w3eAvVRKkMgA42EEAigJ2KwKZgYCFjZ0wsQGflLmawBBhkXSzGfSIH/gx803XQOARXZM/0mw5/sOvkWNi0xp+unKYxa6h90AWKhcoc4LQtAQJo6BAHLDoeLWAHByswIY8G/0MqLJTc6eyc0uy3IkzdCLI2kQU+gSV5KGHpajb07oioIPPhiWq1cbP6aqZguxbQAUOKMi0BGzE1etDhZzXzCCdoGANeSQ9NIrzYLprJVXu7H2XLpYkB9+f1he+cFI9FKOUX1eXcjzh+tYJM0aSodVoPESt1465GY3AEob/rncpFy+PC4H37smf/93p+TI4esQYUGF6fdxxV6uJN30JLFSC0MQQAFJu15B6e/NfnaBANvQxVUwtqGLCwRxww6thzjhYY3ouQ9zcvDtCbl1e1r27NV3T+/MyOq1UzrjuV3tu+i1ysBy786+4TvOlyznWY4BJvyS4ZuucQ6SjptvMv0e2KlUWq5fH5cPz4zIvv2XZd++a3L+wrjs3bvJUm01j3FEim3oEtd45eoSb0sMveY9tI6teEEJGhd1gYURCICPQJMEAmhirixHw5y7u9Z+wks43n+3KB8cK8iOnWl58uNdSthTsqIfqQfn7D2UlAlJV9ckbDxOfo++Sl6XOl4fGJcfvHheXnrpopw9N67DsdOdmOp36bfXESlsxsVdP4TaR8/GlAS7tpIW4ZfgBA2ZYSwYqmOQ9GK01tmBIG4OtQh2uKQvgWA7Pj4p77yFv7w8/lSnPPVMl2y9tUNtPCFpV3ls34xT43x4OCf7tcf8Z392Qq5dsy0VdXr02SZEWqktpk4qr8bdQyFoiBznITXXi8E2dGEaD7DRuIDulTZCi57gzWjg9Vdz8uHpgtz/YIfsfrBLNm5K6UTDsOpxNuhILyR6XH3T6YLZgI78Z4FpQdGQGxzMyfvvX5dXXr4kb799XYaGwz8yK7cFdkzJpDNRTAmdFtTJDXucjlnld7bw7y4WMtKZLlwq/zMDh5X5AsQ1EOAuXA5fFknPEel8nTX7zQX2trawOXablWs5nZ/P4fl0UQYHJuTIoYLs3tOpZN0uG5p7rFihIleXGIkKXdi+6V5VGdp/2CTtdO5LGHmdQHjgzYs6lH1BDh8ZkkuXsjrqgqHn0DVXHc8Rkq/c1dHm7y3oS3sQr1JT4e3Qyc2wcVeXDLnna4j3jUrQENsFAlRw6FLqrMGxkcN35nk3Y2atMx4WdpsG9bbUIkWH0MqPAZ4OVmhu70nN7jQlVy4V5cTRdtn7yKQ89Fi39PaFS2wCO0HwYgQwpm+it5WatGfJ86lypt9DDuebFpnyuaJcuDgq3/3OKfnRjy7oBLAxzUA18/7xOgCEFXWzcjNsxekkrtiMOFuneoP91DRBI5WbpUBBSIOHirYWpOS0KBbHIG0nWmPWgly4FmMDNnCBb5EF18f6ZEtOZuAhSPrkwsXSDYvOMUFFE/ipvpOedDWbQJBHnY6OjEqmvXL98fg47Km+raJ3hN701StTmg40L4O6cub0ycty170dsu22dunpRSOp2tWn96H+LXWJo3Es7AT2Yi1LBdvX733ya2OiFMvv6/lmUVPpnjs3IgcPXpN337ku7757Xa7qs2a8i9xScJRPLnar3+PasBUfbHSefGzFBxsx1gfbmnLU3acPtk+ed+ebY1lbWljIwyhNE3TpWr9GAiInK463OpSVoHFdGA2wrcsOkDvX2qtHxcLQrNggZ6teELxgDFZskL8JW3swBU0OkJTaGsBjDAzfVQupBW1I+pDhRFYTUJzIyaWLeTl9qiC3bU/JXbs7ZOsteIFGZQMAUsGmrC+SQMMWNgJbsTZykU/YUlxjBf5g9U0rNq4Pv4fdWm0cBG1pPAMbAR1yW7Gb9Xu0jwYHs3LgrWv6CtMBOXJ0SM6fH9fOh73hBLmhZ9yj9X0AZr9XbMQrn5gC/ZliimL7xiufF3dAF7BF2De2jYqPTmAfDtfi13M6iTlBN1Ji+e8wTBiDNRCUn1/vOyrBJxDUwyr/La7YFkMvv9cb5ruSXciC3tPw8JQcOqiTyE6J9rCKsvv+Dtm+IyOr1qb0TT3NXQ+BBUEdwcNK0tb7c4Ex8c35GnN+PzGR106A1uuHo/L2W1flR69dkYsXp4nZwCXzQWe+gZCSeDVfNUx+gM/Ad9B4iUtcbLoHPV+9tm9QVBII5uvKBQJsk7I4GkgFJmgnNSZIaadRDryRkwtni7Lrvg654+522XJTWvpXtkl7E0S9GCTNaABAN7Btpt+zsAd0LfPlyzk5fOiqHDhwLeo9+/aYnW2Ub5l+H1fsxSBp+FEcSLolBO1a62mdvl/UIcbQhR0I2jXxe54wfMx0qNA6Xg54cFKQkU4Lot3OhfNFuXI5K8eP5eXue9vljjvb5aab09FEsoVe1MmN3jQ+hyzwTfyxSJrZOA8d2HM6AezypXEdxh6QN9+8qmk6B+TS5fBDnky/jyt26Los9RGmDZZeJ8TnlhA0BEcQQLpEViBgVjDImdVaZzpUCINZbhhw1q4u+/PRhdw/skedPKEv3zhdlEPvFeThxzq0V90uq9dgkiCeRfujQm74DoOkQfpxHUoP4feFAmbnF+To0UF54fmz8vobV2RgIB/VlX9N2c5g+n1csUPUZS3tM7FrXXMh+1tG0BB2mqR5qTuZLSVmBcOhWA2AhRjJcj+HGcBmdacNUjy9+EB70hfPFeTIwXb52Ke6NX1oPkobmknr82nPR9SOpBnP1BxJMxoA8HsnO7ahy0J9U8XSSVtFOa+zs1977bx8R5dOnTozGs3UDy1jNTymHcYVe6F1WU2/5fuY2OXXWuj3lhI0hIaz4o/Rk3aBAJlwMFs3dGFWMBM7tB6WA95iNoqwdvqtN3Ny/GhBHthblI99sl9fxNFVdblXI906ogOhwt5DFjZJA5/h99CB04u1AaCLHnRGeEG+972T8txzp+XoscEovWtIfVqwmHbIxmZNeGPGQia2pb4bHdNygoaALhAwnDUiafJQOkNu6GWpGw9kXE5lMfUNLh0ZmZRXXx5Vss7KI4/3yLOfXyXrN7brLFM/rToySkh6Tm/we2sDYHy8oOuYL8sf/dF7cuG8JhrR78WAL7WYk8r2iWmHTGxmA4ApNxPbVuO1j1oSBA3xHEmzhtSszlpbVbV/WYy0oNaeQG0pk18sGoCzosHV1hZ+xKX8+iDpnCY6yeUK0Xunz5/Ly8Mf6dXn0z2yfkNGH3PYmTrOJN2KtKDTDSQdxTg2IC+/fE5enckCBmLGb60uTNJYDGzYY+gRHeebjIao0wlD7mZsackQNG7CkXRa36Fa1F5vyOLTova9Lt49ymwAzAbfJCuYb9Us6HjoG8918bdYBb3pw+9n5drlohw9lJVd93bLnbu6Nb+3vUc9aycxG+4uTQuKewhZqvk9eszHj12XN964IO+8e00++GBIBq5rkoyQFw6AVUpIAeDmQcQVu9TG591QgC/TOsGLQcLaYDOiNU3QPqnZfNOyISOOtVizjiHoImWiT3pNn7SgExMTs9l2LLLjuY01LSgSGwAfQ0mNSkFTfeJl8ek0pggvHYNrJPdi/Q47QJaj3p7eqs9+Ozuz2oPFawJ5rwosv1ekDT1/PqeZqgpy8nhWDr47Ivfv7ZS7d3eqrPaUiRiFQmY9lm8Cl4UNn3eZsMr1U+27T1pQZME6+cEVef31S7Jv/xU5fXpU39ecW7RJYKXyoxNijYfwd6vf4xqYYGrFRscC2NaGEUaXrNhoHCHOWm0FdmvFxn3CTqzY8HcrNo71tXHIwyhNEzQqAS0PS/FJD4hj4VDWVHhWgoacONYH2yc9IAIGsGH0luKTFhRyQB8w+kalmNd3cutBMLakVNdAShsvmfbqQ8mYWNgK1WF4dXR0Mvq7drWob0UqyLmz+Wj99I47O6W7G8Pv1e+ndC/8BwHMGnh9fBOBDjZoaShCJh9sX7+3pAVVDtJEI6Ny9Mh1XTJ1Tt/TfEUbQngvQOv6zPBLEKmlgBStfg88NPqt2DjeERI+NyqQxRcbjUVL8UkLCjzEcRApOKhR8dUJ7DAif21ItbLYLKSOhCBnVJiVpOtAzfsJrSkEAMbMQGAjcDGwYexxxJ6n/OTLktAAZnsfPaTLsjTZyZlTmvDk0oguy+qSTVvaNRsZ3phVW0zYOOuxi/PNpe7306lX9ZWgh/VlFu9d0WQjl+X48SFtuMRrRIkZU2BBrHgFbNggw06ADWJGgyE09wB7qZSmCRo3wiJpYIOkWRXMagDAoVjYTieMxgWwk7K0NIDe38D1Sdn/+oSc0mQnd+/K6mste+W2Ozo1bWj13r+7AwQwFknjGiy/b9Z/cN/ZbFFzoQ/rO5ovyfd/cFZOnhzRYf+C6qNxb8vpb6lt4xpTYCeseMWyQdQ9fAePCVtZghA0bgCtMLRmsA1dmJUQV6Nnyh26/hK85jWA2cV4Uxb+Tp7IyxNP98nOe7pkw8aMpg3FsGP17rQjadejbl6S+QjwTZbf+9o4yDc7UZTBgQl9s9iA/OAHH8r3nj+nw8PaylkmxVcnPrcdV2wmP/joj3FsMIJ2gYDlrMxKgGHGrZcOY2A6FMPYEswwGjh1ckKzXeVl592d8uBDPfr+6R7ZuCmjKUt1QmAVnoZvolfKImlmL93qm3jv+dVrWTlxXPNm778kr7x6Qc5oFrDlWJh+H1dsJj+00oaCETRuwpE0KxAwW+vMCo6r0bfSMJNr19cAeoXvvZ2VU8fzsuPNcXni431y3wM90tWdUiKuZOnp4To8tw7/qj3n961onOPaUXrO8yOaBey0fO+5s3JRX3CR11UMy7nENaYw5UYMZ73IqFW2FJSgcRNxbq0zGwAwzDj20ltlmMl1G2sAvjasz1UPvIkXO2Rlz95u+cznVsnWrTqLVyeRlRfX08UW54YswHP4jMdcxUL1R2hDQxPyw5fOyde/flKOHBnS/Alh7yukjkJjMckuttj6IiPW8+7Q9WfBC07QuKhrrTN60i4QMLAhe/IsHVpISpw0AK4d1UQnr786Lqc/KMiDj3Zrju8eWbVmqmKNt7NvFknDPxm+WZ4MaECfM7+rSUb277suBw9el6vXdS3vDUTOzj7j2vBnNwBYnSGn98XaUggawrNJGtdgBIJIdn2e1YrhOly7mcJ01mbkSs7lawAkPZGdlLNnczL0bc0trfm9d+1pk8c/2iV9/fN700ySZvv9xERBTpwYlq/+w0nNADYSJRoZH5/UeHPj9JzLrSnOj+dApLDH0CM6TicM7HL9M7/TCBpCs51VkzFSSLq8tR66AqaH0mGYtgQvPtefNUwdUk/KjacBzPYeGCjq0PekXL/WJiePFeWBRzpkx53tsnIVnk9P6yRuJJ3NFuTDD0fljdcvy4G3rkefb3RiLrXuWb8nrKJxDX/YTOjClJuJHVoPtfCoBI2LlpJ0LSEWuj/K4duGoDO/h7BQvNLz3FA6etKMAnIGNibthC4wzHRG5W67cXsVoXUaNzwQ9dWrStaDeSXqSTlzsijbd2bk1m0ZHfqeTnLiSDp07wW6CuX30XrmsyNy6NCADmUPyuEjg3LlyuKlX6XVe3i3j9alM2MKeruseBVHbJptlAA3TdBIt2YpMByfnK/ARBo/SwFBg5TQ0rMWpJWzGJsbRrem7sT1YWyYqNCouBm1SMloLZDHonPMYk2lJrWXvrxns1r1Vn4choTzmjZ1bHSs4jktjh3P5tSmwvcYyuVgfwdRnzmta4MHp+TDM1Oy86422b2nXbZt79BsZNMssRDftNgg7m0h2Ehpi3Lp4pg+Zx7Q1JyXdQLYgFy6jBz6y8OeoXmG30Nv0DkLG7HNBxsxzmorTGzoBOlpfRqjkDubs3MKdB+6NE3QIDprGR4e9prJbE2Ej+sPDg5G2FaSXrFiRWTIFtkhN4jRio1cxTA2S3HJ3q3YMBqLzlNtkyrvkEWEG/SYqajxktdZn9UeX6LBh17gcigISoM67D00OCmXLhT0ryh7HpyS2+/sknXrM5Jqb4vyxyOI4b4txRp0gQX/sc6sndT82Bj3OXN6WPZrFrA33rgUvW0qq8/Xl1PJq55RL6H9HjoCgfpgo0FkiSnAxnsGfLCBa8VGvnH4nNUGYVPWThz07Hwa8jcq8IVlQdCNbrT8dygJ5GWthPLz631HJVgDQT2car/FFdtijNXu94bYR3i8sJT1Blu4fq0gr71SkA+O5+TBR3o0dWiX3LKtQ0cRELSKVN9s5PdjowVNLjIsZzUJy6uaaOT9Q9dlZNjWYFjKeq8lGz+mdGgDIPzjAKbcTH7AIx3YILZxiYu2bl4tC1vgfqcoFkk3CgQLFDtq7caxAbDQ+13u56VuMIJ29YkOBFKGfu/bw3Lo3XG5d0+33HHXlGy5KSM9fW3RyBJ8NHSpFXwL+uY1ZAF7//3r8sorFzUb2PRrIFv5tqnQ914Lj0l2IGf0Xq1vBKwlY7X9TLlr2Uk1OXz3Oey4kHRLCBqtFyZJu0rANnRhGiYTO7QelgMehtMwlIWe441YchOT+n7knJw6mdNUoSn5xI+DqDt0tndaOjrT2ssIr5dSvy/o8/GxsbxcOD8mz2vO7OdfuCC5iekh7hupPph+D3KOK0mzOkNMfghtty0haNwESHoyxuuNWcYT0lkxQYMwwT20DbYUD4TR1dVufhbYUmFJF0eP+sL5SfmrPx2Te+/Py95HO2X7Dl2WtRqrDMI++4XfI0Bmszpp7cMhzYJ2VVN0npfzF7Kku4sHbEi/L79jkHQc4lW53EydxIWkW0bQqIxomdRUijakVtpaL6/8Zr8zjScEdirdJqvXZaRfe0NtH4ZP7dis/pbS+SH0vZTuZ6GyoEf71v5ctHZ65z0ZefJj3bp+ukMnbYXtSV/SXNmvv3ZZXnrpohzXpCN5HeJOCvflN0wbjyt2HEi6pQQNp3TrJTHUCEINWdxQOgMbcsIwmc+7m8HGCxN2anBdsaJH3tR3Cb/6Uk7Xj2pvCN2lpFRogBlkKi62hHfAPAaHinJg36QcO5yX3Q90ykc/3imbtzafDwBrmvftu6wvtDgnh48ORZnP0ChIypwGmHaYYM/p2X1a6iTdcoKGohxJuzXHTnkhttFQ+syzxtANAMiHJP7NEGm9e2zWeLDOdcPGtDz+NGbqZuTdAzl5/928XL4cdtiy3j3E6TdmgytOegBJ53I64/v6lOz70US0LGvXfe1y56522bQl7f3YZHhYe+WalvPVVy/puubrup45q0PciQ3WsomESCs1w9RJs3G2Utpwe5YEQeN22CQ9pYtdGT1pTGlhDqU3azwp7fggxWNXd7usXZ/Wta/t8v57BXln/4RO0FHpkw7MPG9y+hYJP8Fw3oVi8AW2MaIpQ48dzcvVK0U5diQvd9/boW/Napf+fuTCr38TyI/9/vtX5cUXTmkmsEE5fWZM10RjfXlidPU1t7RH5+rJziRSJrbze2yXUlkyBA2lMEma+bybPZQOo2m2cdHZ2SYbN6cjst6sy2lu3ZaW11+ZkLMfFqdnziYxc9YvI303Yp/Zo5f/h7z2pi9f0mxkA0h0UpQPjuXlqR/rlJ13d2uiiEqWBgFf02VT3/n2Sc2bfVk+ODEo1zXlKJZTJcWuASZpMLFBpKxRxRuNpJsmaJ+0b9bsQyAjZNhCajZrsWaUwTA6cJERx5LqE9fHMgXLscBGSlBg47OlwJAxw7JRwfVhnJiRCeeyFMhQrvPeXpE1a0Vu2lqUzVsw5J2Nekbnz+a1R30DDTuqPts7pjMRZTKViZEzHRNRkNG+jEXVy/4Y9KYndAnUubPFaMb35OSA5vQuyvoNlSEEL7Y4ePCqfPnLx3R9cy4ZpaliHWkd2ir3zSqHRXEH8bBZv6+GjX2IPcBG58hSqsWUWuchbiIeWjkCMc6iE1yvs7NTxsfGKdjIrAaZrXLXuv8Q+yu9yxMVFWslDKvyIUKvMgmIDqRkKT5pQR02DNNSfNKCwoAhtxXbJy0oyBzY1rzg0DecpFpR+5aHP9Ktz6Z7ZMfRrBw5qIki3hvX4FvQ+lz+PR1QMgIf9FONoDsyyGVeSdzVdHmj7UMP+cypgr6DOq8jMpWBHWubL14ckStXbf51o+kP9wsyquWb5fqA37uGf/lv1b7X8/tqx2OftTPkkxbUXctKdNCHVSfA7u7pjjpyGMFsVNAQsXbigAUdRnLjGWELS9MEDXJudvi12v0DE9iM9XsgUSY2Gi0MueHUMMb29nAp/DZubtcedUbXvXbpBKCUvLlvXE6fzGuKRbxjt1rNJPsSDehiAP0HH00KXwPwe1ZMgfTTMYWXC4A13A25MRJRILy2FzqP4i2/eutewTYOWxdCZzLr8iiWs7rnGQ1E8P4ZynfPM7xPbnACExuXRgo/kHSogtnem7a0yxO67vUz/6hLHnm8S7benJE+TfuYlEQDtTTgJkfW+j3ZH1YDrHgFKZnYrjMUVhvTaCBnNAAYhbHqx1fOIASNi6KFxyJpVDCrEpiGycUOS9Kow4y+1ei22zPy6c92yT/66T554KGO6G1H2K/tmaQkGqjQAHyT5fcVF0t2UImUG6+mX2TEqEImPzDk9cEMRtAYbgBJY/iYUZiVAMOMZwNgOoVfaH3jhQl33ZuWf/xP+uUXfqVHbr0tLZ1dSdrQ0HpeLnjMxvly0VHI+4grkTLlBj/gseJyK0HZFCSNEkeSZjcAWMbDMnr0mNs7JnXda4/82m/0y7Of1wllt7TrJI6kK73cgkCz9+Ma50lPullN2s9n+T0kSLDt9cA+MihBQ1i0plFYJM183s0m6Tj20ovFvPSv7Iiykf3ML/bIpz/XrT1qLA1LiDoy9OS/SAMgafyx/D5Rc6UGEiJdXJ1UXo2/h/J03Q11R7PgZnrVoW6ltLXOeIgPkkZPgIUNksY1QhfnrNiGLoWCknR/h7RncrJmfUq235GRt/cVZL/m+B4cCJs/PbTsCd7iacD5fULSi6dzpt8n2ItXj7WuRCFoXMw9l8IWpBqylLbWgR+6ONnjSNLMBkB3j64Zbs9Ltz6P3rixW+68u1dfqjAqRw5NyLWrCVGHtsM44jl/ROM8KYujgYRIK/XM1Enl1Xh7aAQNkd1wNIOkgYmWOv5cUAilpqSXXl2TzuiRXWtjf0bWbdCXJ9zULjvvmpD33tZkJ+9nZWS0qA2y6ucne28MDcAfE35e3LqGbzIb50xsRs4IaN/FK2zjWqgEDaWUknRoJZWSdGhsR9Ks4Tqnl9ByA889S2f0YlwgAHZvbzpKcLJhY7s+l+6SHTuz8sMXh+X8hby+5SthaUbdxgUzeSFGg5oiDDA4v29w5QX9zMR2RLogwRqc5OJVg8OW7M9NEzRSv1kKWmBQls/zV+RbtRT3zBj41oJWm2VmtSNoayo8XB/yWGa0guSA74ON4y0615XLkQw+2JDHgo17REo+h92h1XTLdpF1StTdvT3am56QD0/rG5CuTuqLOMI/gsD1my3o5cNespqXPV0lF3d2IqeNy6Upe7P3HuL8trZUlA+5q6syhBTyKZNvhZAjrhhII+v8x3IPVr8HFuKaD/ZC/d4ity82UhlbH4n6YEMnSJfqM9qKWJjT1wm3slR6l6c01oAO2IGBAa9hmJUrV0bp1iwiDQ4ORthWkvbJrz08PBwRqRXbJ782XgqCYsX2ybOLXLIwdis26tJanwgAMPZS7IwuQ3z48bRs2dopRw+l5NjhgpzWnM0D1yeV7JZaj1pfE6rON6H52NNVfDCfL0SjPxbbuxGPSWljrlMbaV1dlRnt8iBoUnan5aLrXC5f4T/17m2p+D0IFKN/1o4WGvKQ3VLcC0Gs2CBdvFfBUhCn3EtBLA0AdLDAEbmR6fhsuQbjmODLrBoJGeehEkuPu9H9V/sdxrOcsG+6Ja3Lsjrlx3Xt9Ec+2hm92rK3N7X0nksqySQl0UCrNBBXv0cMZ8UrJj+gYYGRCPS841IWnaChGCgKQ96MAqNnYrMMM67OWkvuDn3/NIj6k5o29HM/3SP37+3Sl3K0a0aypUPU6AUmJdFAKzVQy39CyBRX7GmS5mQFc3N/4kLSLSFoDDE4RYUwxHIMZissrkbfKrnxKsedd7fLP/75fvm5X1ol9+/pkv4VGW3Jltfa4n/HEL1lrsDiS5Zc8UbSQKt8s1kdM+VG7gVWZwj8EBe/b1mYBEnjj6Uodi+dZTxMo28ldv+qlL4la4X803++LiLqm2/pEJ1n1PLCtJOW31wiQGw00ErfbEZJkNvnHc4+12LqhNmJ87nHRse2NESiB8MiaddLZw53M7GXWwMAg8noTa/Wd08/+uQK+Ve/s0l+6mfXyKZNHdpIa+1QM5yVpe9GDpj8nmjAaYBJSExsTL6KK0kvdb9vKUHDMBeDpFm9dGYrjOlQrcTG8hI8h8bz6Gc+jR71Gvkx3W7W91GDwFtVmDpp1T0l142fBph2yMQGOhYRLgAAQABJREFUSbPIjik3EzuE9bWcoHETIGkUzLALXZKh9OoaZRqmBRvzs1auysjdu7vlUz+xSn76n6yWjzzZK6vXcCYPVtfC/L0WueefkXxLNBBeA7DDDNYsEgrTxhPs8BXWumhYdi9u0hhI2hF22SEL/go84KInjeuELG4onYENOaedlfeCDQzTYyQgdHHOim2tApLu0t70ps0pWbVat1s6NDPZuOx/Y1SOH52Q8TExJy2odQ3f/U5uzcfme2pyfKKBYBrAJKlW+uZCb8T5Tz2/v9GwF3q/OG/JEDSEmSVpnT00ORU2i5MjaUYDACQNfBZJu6F0BpEysa3OCqLu7k7Ltu1pWbcuI2s3tMmmA21y4lhBzmiik9zE4iY5gdwZbcwlJdFAKzWwFHxzIfdv9fsbCXsh94pzmiZon5Ry1ixVaDkiwxawrevVfNKCIhsO0r5ZsfFsxfJ8BeSPZzH4s7YgQer4a1QgK/CBax0FwPEWnbu0oAgI1vqEPBbsyMi0PqETC3ZaR/buvKdDNm5Oy6kTeTmoaUMPHZyQixf1JRyTIYm6Td/MlZEuTSdbLdVnKp2LejA6htGoam7I39GAzqoPjY9Xjkhls+oD2gNMSm0NpLQTYvEfpt9DOsSepeD3kMUnprhUw5aY4osNLkEWRis28FmlaYIGWaCCLWXVqlWWw6JjkC4TRIrAbik+aUFBXCBo/FmKT1pQNC5cA8CC7ZMWFD11H2yf9IDAhj6AbykILpYAU4plNXg4yNab+3Toe0ruuqcg+14blX2vj8vZUzkZHoa9NU/U6LWjrjr1PqpNTuvUDJaY0JaUGhrQKoBvTkxUEvTEhObc11SpSamtAWvjGQhMvwc+fH4p+L1PWlCnl/GxcdEFu/hat6CDZU0LCqDu7m59xDaOFkxdXPaPTc/KcsMwoQV1LTtLz9X32kxsOB6Guxlyo4UJZ40btqsfEKJPAXGuXd8un/jxVfJzv7hGHn+qV267vVP6+9OSaq3f+NzGsjwWQdEy8rMsb36Rb4rp97gVVkwBNmT39XucZynATqWbprCql0Ic1/cNtbwEuTsWSUM77nlGaE2hcuOIzdQJGxt2spDGBXwFxPxTP79GfuYXVmvCkx7ZvLlDOjqDmG9o07ph8DB6xgq+N4wSPW40rvFqoX5vUQ3TBtHRanUJFuGgKFaLGobJCgQso0fFxhu78i1FIYy1GZ1gxveu+3rkl351vfzCr6yR3fdhmD2lQ9EhJEswFqKBqHGe9hsZWch1knOmNdCM/zTSYVyxmR3ERjpj/x4stGGYxM1kZgiNSmA2ABbSs7PcZ1yNPp9futmBkHls955e+aUvIG3o6qh33dGxBMajLAaxDI8pTvIa58tQXU3fEmJKHDN3MWMhs5fedIU1ARCMoCEDSBp/0fh9E0LVOpXZAIDxJL30+ZrHJKClGgjQa16jaUMff2qF/OI/XynP6qstb70t6cnNr8HF+eYa5yy/X5y7iNdVlrJv1tMkk6SZ2PXuiflbUIKGoG7cnuGsLhCwetLMoRKm8TCxEQja25fecDdsDbOse3rTctOtnfKRpzrl5/6bPvnUs13S17d0XmkJOW+EAt9EYfj9jaC/hdzjUvbNevfDjFdM7Hr3xPqN0uVwPV04qyPsUDfgSJqBDRkdSWMbusB40EtnYWOYHtcIXTDczcOefq3cQuXWuX7SrrO9+1aklKxFyblbtmzNyFv7c7qOuiiDg5O6brzxMozQOrsR8eDr8MuEpBev9peyb9bTgiPShfp9q7DrXZfxG4WgIaibNOaWCIQUHiQdTbEnNABKZcc9hC7sBsBSJdJ6egzlrNGw9zol6r4OWb8hLSdPFOTwwbyc/KAgw0PTj1/qyZH81rwGQNLwTfwlZXE0EMp/qkmbYFfTyuLtCz7EXSo6CA6taYazup45A9v10uM6lH6jP0vv6mqTW2/PyEOPdcgzn+mSJ5/uklu36duy2pU0EuIodVHKZ/h9omaKamuCOiKteUATPyTYTSivyVNpPWgnF5yVNazrhtTctUJuHUmzhuuKBd7MV9dLD6kPhxUXZwVB9PWn5A79Q296/ca0pgxNR7m9r14OPzLi9JNspzUwGTQta6JViwbgmzd647xcTy5eIZ7HsTRN0NYc2DgOZO3z/NU6gxg9XZC1DzYM2WLMbgTAmhYURoBzLHpB7x+y+2DjHAs25MBwNwsbaT59sOEgVrmBjQkwVqdqhL1xs8i69VOy486iHDtclPfeGpfLV/JqM8XoHorFyuHYnAa7YrH1iQpQj0uxwA7hn52dlSEkn5/Oc74U5V4qMqU1A5aP/1hjCu4P9eKDjXOsvonjfLAb+Sau7QqwQ/q9w8UWOgFZu5HX0t+qflY+hzz5FseASu+qKm3tnchZai0DAwNevWmf/NqDg4MR2VlJ2ie/9vDwcES6qGBL8cmvjZeCoFixffJrI+G7T8MFxGitT+TVBrZVbhi7FRsBALjWuoTzQS+NSm+fyMZNE3LL9kklarzsY1KDTVavVXnmxEQhalBW/pLsgQailz1EdVo5w79QSEsH6X3Gy0X7E9oAhX1b/cfX70GMVmwfv0fObsgd2jdRryBn/Fmx0QGx5teGLiA7Ypal4Y+OEzgiPzIdn1tld00TtK/gGNplDXmjYlnYqOA4TsCCTuIqd+i6xLA30oPi/dNbt/ZpANNnpal4Dn35+l1y/NLTQJxjSmjfdLXDjOEYwXWjrRaSdjK1ckudJFbtxpBkf1pRnLaBq+Bq1252n3OoZnGqnZ9gV2rFNS4qf2l+T6GoDZeO5I0bzWsyQWhGA3H1e6pvznS0mtFrrXMdSTMmF9e6ZjP7F52gISxaL3j+h9YMoyQkXanVuAYCptxMO6msgWRPooHqGmDaeFyx2Q0AFvdUr+GF720JQUPcaZKepJE0WkoYhmGUuBp9InelNSQkXamTZM/iayDxzUqdM3USF79vGUGjOkDS+GO0ZoAbkTTpTTswnqQBMN+pmA7FxK7WWu/tbdNXWmZ0EgpnlGe+5pJvN4oGUjoRYseOflm9unJyHdPGE+xKC6vm95VHtXZPSwkat+5m1THWG0e99CleL53ZCkscqtIxFlMnK1enZO+jnfLZn+yW7Ts6K4VJ9iQa8NRAd3dann32ZvnlX75Hdty+uurZi2njVQVY4E623FipwShMuUPIyxkD9pQMJA2Cxh8+hywOG7109KhDFzeUDrIOXZzxYBu6JNiVGi3VCV5fuemmtKxanZFbtvXJW/tG5eC7E3Lpki4xyWOpRuX5yZ5EA+UawAtd+vvb5fbtK+TxJ7bInvvXy+YtKzQWTehyoup+XWqH5XjNfo8rNpZfgaSxDV2YOmlW1iVB0LgJEClING4kPTuUTnwJBmtJA9MwlwO2thelf1VaNm7ukQ2b2+Xm28bl2KEJOXp4Qq5czusyrYSlmw1Ay/V8zBJe0ZeRO3b2y6571so9u9bKvfeu1/X6mSj18ejoRN1bXw7+U/cGF/DjjUjSS4agUV/ojYKkYdwgvpCF2QCIhtJnGhiUXjpx7XgSCCqtrFwn6XSbbLmpQ9asyciOnd2y7b0xeffAuBw/OqFvywo/KlMpUbInThpo19GXrTf1ycMPbZAHHlivz5xXy+o13RrbKjPW1bsv2GHSOJ+vIZA0Xn+Lt3iFLuV+Hxp/IXhNE7RP2jdkk7IUkDQyVQHbul7N+owCPXTgoqLx2VLgJJYJYZAVf8C2EjVksOoFx2Io3dp4gSwWbOBBf5DZWp9WbOgXmYogtxUb8ljkBjayk0HfDGxkbwKuw07pfLFNW0TWruvSbUpW/yglR97PybVrBRkfw9LBsI1K3N9SLagjZMOamKi859xETvKERz5LVReQC9Tb0dkmq1Z26otZpsn5CR3SXr2mM4oJhQIyZM3dAdPvrdjOz3z8Hndg9c04+z2yjjm/n6u1xf/UNEH7kNGqVavMdwgjc2nlLCf5pAUF2fpUgE9aUGfsaGBYik9aUF9sn/SAGGGATqxy+6QHRCDAnxUbAcCaFhS4kN2KjYaIJS2oqzunF1yntNy6XTT4tsstt7Vpbu82Oa2vtLx2fVJyVQir9Lzl8hn6QAAbHy9hnZmbG89i+L/689Xlcv+l94HnzKtWtWt2uh4dzl4pD+5dL9u29WujfiryqdJj3WekqESGP0txNmi1cR+/Rz0uFb/38U1fv/dJC4o6cTpvI60CstQ7jmmaoCc1mThjAhZIFISEbegJWJAXFcDEZqTXhNwoDGw0iNArZmADF/gMfQM7shV9DIDsYKGL0wfspZyk+1elZM9D7bJte1pze+flzTcK+g7qvIyOLP9JZMgImNIXPtzopVNTx27c2COPf2ST3Hf/yoiYu7vD6gW+g8LyH+dDoeMscBGzWHLDN8ERoeWGrp3fz2+W45fFLU0TNBwVwYtB0lAFlM+oYIftKiKk2mGYzOcZccWm1qWSc0g7cR1mbBEEatl3JtMm6/R1lvi778GUHHi9KF/98pCMjBbVLzByENKylhbWdON8+tHI0pKMLw16zZjpf/99a+Wf/uLdsnPnGvV5vHiFl7Mf/sOIV9AWGzukb7raRYOZGVPg96lM2MaWk926bZqgcSE33FAriFmFqXUcsxKYDpVgV9ZoXALB6EgxmgDW2amNT/USy2jOCn339DOf6ZM77uqWl54flncOZOXKVX1tZWH5snS9xktl7cd/j7a9pUd7yLfvWCWf/tQt8thjN8nKVR3agEspOU/fX+L3lfUc+b2+4SxfY2lZ5Rn2PUx+sEvBOTIIQUO0hKSrV1DirJV6YeokVAPg6pWC/PCFYRkcyMvuB9Jyz+4O0RXQdXvpCN4Y8rzt9k5ZvyEjDz6Sk1dfGpG33hxTnOU725s5glZpPa3bk2lvk1tu7pPPPrtNnzNvlA0benQCZEYf31TOzmba+DR2/GYyg5zjOALQOosL8Ay6VHiQNP7wzAROG7owW+swesYwDHTAd1Ztmbrme0Cl8+VeukGmoGucr1wt6HKqrHxwvE17wzn56Me7dU30lHR149lX9efdIGkE8pWa4OSunpRs2dou9+7pkpdfGJVDuoY6m1W/WGbj3uzGeUCTXhBUtMxuS4888fhm+djHt+o7xft0jXN71GuuB8j1Hyw3iqvfx0/uevXM/C1YD9oJCWIGQTNImh0I0PtiDdNznZXXMuXKvbTXNE4Wp6IJX2P6zvaBgUntBU/JnXe36xB2UYm3UydJ1e4VR73prpSs17+e3pSsXavZpN4d12xkWTlzakJGhsM3YJ0PtmJb2jhvxfUZ18TcrC2apGb37rXywIMbo4QjGzf1aoyo7DHXuj7Xf7h+j1nVWKUTusRVJ6H1YMELTtC4qBvywmQpOG7I4gIBi0jZvfSk1TvfGpBwYKknHoAJj45Myfvv5eXShaKcOakZopSk77mvS3vKje27ty8tO+7skrU67L399g45rD3pt/aPy+mTueD+MV+7i/uttHG+uFcOf7X+/oym5VwnDz20Ue68a40SdZ/09nXoSgf/a8WVkEDOCUn713fIMygEDQEd0cFpQ5N0aSDA59AFmKwGAJw1GUqfX2NxIGlIjGHvi0rQA7re+dzZYvR37/2dsnlrm/StqD/bE8Pe69a363rZtB7fKVtv7lCSHpP33h6T4WG8ea0x0c/X2tL8Bt9Bwxx/cSydmmxk69ZeeeThdfLIozfJbbetlj4lZp9ec7X7Tki6Uitx1UnlnfD20AgaIjuSxjZ0YZI0GhQOH9vQhTnrML4NgPg8U0P2rDOnC3LhfFE+1O39Dyrh3pqWm25O6espNatUDW7C/vYOXTe7WYe812Vk6y0ZWbWmqGunC3L2TFGGhybVZ0Jb2+Ljwd9r6WDxpWl8RcjaofVy05ZuJeQVcv/9a+T+Petky5Y12pgO97rRuPometLJyF9jO2IcQSVoCAxnZfUYQZ7o6TJa6yBp4OJZOqM4ko4btmv1MuSOGzZelnFUE5SgV42h67t3T8p9e7RHrXm70WOuV/D71ls7dFlWtw6ZF+T9d3KKpaR/rqjZueK/fjouaU+xjn2Nvpt5x44V8pD2mu++a7Vs0MQj7e2IK/VqcGG/Mf0+bv7jNBhXuZ38zG3TBI1nFJaC1I0ga58eKVptloLjQKgwfmsBseOvUXHDdTAia8E5Vr2gAcDC9m31WuWGrpGO00dunGPRiTvOBxs2ZcWG3LATXKdewZIQC8kAZlAnkL315oTO9s7L8SNFefoTvdEQdk9fKhoarRXoIUN/f6fsuq9Tbr+jR/N6T8hrr2TlxJF8tAYbDYAGYta7BepvOogt7Zrlr6Oj0kfhthbfogrYADytS6N6etP6UoseefDBdfLU01tks87OTitho7jGuY8dwpctdgh86McH28c3ff0e8ljkXiq+CXlRfPze5QVv5PfTyNPLhqGTQovz6zdN0D55jQcHB6MeqXXI2ye/9tDQUIRtJWmf/NrDw8ORw1qxffJrj46Mai42e+PCJ8/u2NhYZMRWuWHE1vp0edKt2CBGKzZyPCN4WbHhSFZs4EJ2OHc9Z81mddWzR4MPZD6ga51fe0XfdPVWVn7sxzvlnns7Ze36lOYVVzqrMhCDgN7f3x/FBH0vhzz2ZK/svLsgr78yKvteG5VzZ/L6fBqpDOs3JlxQWcwtZEeju6ensoFeLGak09hwX0yZcS00lrq70zqrvkse2LNennnmZrlbXwfZ0VHZWPf1e5/82qOjY2p/k2Yb8/F75OxGjLXaL9PvfXwTQ+nwfSs/oCECnVsKdAG9NPJ7h4UGFDhiSONzK0vTBO0jPAIiFISbt1aCFR/YqATWcDoNWwNGIR8/uWOrbzUo2B7DBmGr6PGOjk7K3//NuLy1Ly8PP9apiU46ZPVa9KYbW/OatRn55LP9ct8D3fLm66Py6g/H9Bk1gtbSI+nGd7O0jkAvdMWKjDz6yAb5+Mdv1nc0r5eVKysbGKVS0/x+plHOiFdx902WTpzfW0m61A5a9XlRCRo3ySRp4PMcio+9kKEp3HOjAp0wsRkOhXti1iWclSW3q48zpwpy8fykkmxWnn6mS+5/qFOX6jR+sInMVBs3d8iPfSYju/f0yI9eHZXnvj4sQ0P2RzhOhmQ7p4Fdu/rlZ37mDrnvvo0zM7OrDGvMHT77KfIfYprKuPpmHOV2fl/Ul+tg5HKpl0UnaCgkIenqZoHhV5bRM7HZDQCWTpgNANSwDhZFmcPOnxP5xt/rs+XjBXngoQ65dXum4bIsHUGO0oZu0eVYn9SlWTtub5fnvj2oz7gL0bA3sJPSWAPtmIynr4F86qmNsmfPGrn99g06LKpJZqqk56yHxkxTGVffZMvNakCz/b6eHfn+1hKChpBsknYtJVRG6MKsYKbRJ9iVlsCsS3c1ZAW9fr0ob++fjGZp376zXe7e1a7JS+oPr+o8LB0Wb5P+lRnZuatbunpz0XunD+zL6estC9FQurtGsp2vAeht44YuefKJ9bL7/rXR2uYVKzBXocObnB1y4j9OE3Nbpk7gm+3EkQtWA2BOO81/ahlBQ3SQNP4YzwOB6545YBu6MAM70+gT7EpLiAKBTjiBblhl+tm0rp/WYe/r1yblpPamd+ws6GSybtmsw9nVJpE5WTCxCQk0Nm5OK1kjv3cmOv/Vlyai9dhLcRKZk70V29Wr2zXRyHpNNLJeZ9P3yupVnToyZRvObiQvbIQV2BPfrNQ+c+RiMfy+8o789rSUoCEqHthjRij+8DlkYffSE5KurK0kyFTqpHQPBnSQiWxocFIuXyxqCtHrcv/eHn0DlqYCXZ+uSyQg6p7e6eVBa3TS2crVKTn0Xk6OHy3qs+6C5k1e+s/USnUR8jN0s3pmPfPue1fLbn1P8623rtBLhNdJ4veVNZf4faVOQuxpOUHjJtzM7jiSNHMoPTH6ShOPq07K7wRt0UEl6Vd/OCpnP8zLXbtycuc9nZrwpDN6E1aj1JI9OtnsnvvaZf3GlGYkKyhJZ+SDYzm5pKQfuJ1bLvqS+75C82bftq1Xk4ys0pnZq2XbthW6fG16KLtNhyYYI2iJ31eaQVx9kyl3pZb89iwJgobIMHgMdbNImjmUPlnkLB2DXmA8yZAaNDFXmA7lsHUO+dwFiZ+QjOTEsYmoB3z8aFaTlnTLvbu7oyxjSKSBnmGtgmVbm7akNV1oSm6+dVInn6XlnTfRo87LRHb6EVKtc5fDfszzukkTjezZs1ru0+fM27b16bKpLh2FmFYaGv5YWsV8hMb0TSY2a+Kl8x9sQxc+Nuf1t83oYckQNG7CkTScCoQasjCH0ic14UBqCutcw6/vdnpJnHW+NbCdNWNZtDxfpKa+jY4W5fDBovaCJ+SUrnt+9PFeuW1Hl5JvRhNr1H9+2tWFtKFp2aA5vm/Z1i4vPT+mk8mK0esxRxRXzXPZFDRYkCZ1zeouuVlnZ+/du1ZTdK6Xdeu6qt4j4gizcc7sSSdD6ZVVyvV73tu7Ku/EtqdpgvZpKVnSyUFstO5cNimQtaXgHEsBHmSG8VufeYN48WctwLY2MCCPj16AbdWJFRuyQgbow1qfPtjIIuaD7eSx6Lurs0sKOk3aKjfkMOm7LTdT5+F7AvXuC8+R9702Jqc+yMmu3Z1y34Pd2jPuiCaHNZIbybvuuFPktu3d8saPhuTIwckoV/j1a0V9Po3MafWu7Pcb6ggTePL5Sv+M/IswMRPD/kg0custfdHLLD760S1KzJ1Vs4DVuhvIxvB73wY0Rgob1ae7B7yOdan4PWSyyu3r92bfVBlc6s7gfj+DjaxmVmzohFWaJmiXPs0i4KpVqyyHRcfAgH3SvvmkBYUzARtGbyk+aUGBiVSS+LMUn7SgaK0Dd3TUln7OJz2gL7ZPekAEc6QdtcrtkxYU2JPjk2ZsBBdLWtDuLoyIjFuqkHLMlcsF+eH3i3Lwnaym/2yXJz7WJXfdszp6G5a6RsPy2JMiO+/K6jus05o6dELfPT29LGsy0IIG6H18HLZY2YAZG8trgyDXUEbrAWij421TG5SM9zywRj7+jObN3tyrQVpntff3Ro/FLFgIuPB7q2/6+j2wrTbukxbU1zd9/B6kiBhuldvX732wrb6Juo78XmW3yo0OnDUtKLDxh5jVlm6aIi2mWfOYIFdnPDdGZU1kJyjDxq6HzhiSBvmjd+nboq5ZQyU/QF5gM+QGJv5gmNaGS4lodT9CZuichQ1bwTwA9KSXU8HyqcuXi3JVe8BHD+Xlcz+dkQcf7pUV/Zirofm9Kzuvs7ff3d0l/avy8ugTabnjroy8/EJW9r+WUzy80hIBaPbQBX3A6am0oaWwIPS5k9xLLXbds1Ke/ewtsuueNXrdud99PrH9Ho0Slt8jxjKwHS6IGg2BkMX5PcM3gQ2/h8wMuYGNONikmzStzqYJGhWLSmaQNJ7tQkMMQgJZQHaG0aNWYDQsbJbc0AlL7ghb0+sxdBIRv5IzA7tpDwsAgF7v5StF+fM/viav/mBUHn9ah3g1V/fK1ZmIqGtdwvnman2O/WPPduvrMDs0WUpO3jmQj95lDb0tvCjJq/+k09NBcuE4tc/s68vozOx++cjjG2T37jX63Ll7weTsroJ7jq3/kGJK7HWivVxG4xyxMJXhN0KdbVbbNk3QAHWBgEHSznhYJE0lJKJDoXXHyLIDfUfY2uMN/QxGQ3qEndHsQAV9fhm6QO7lStJoq2Z1KP/I4awupSrIG5qf+6mPr5B7dMZ3n/aoaxXnm906HHzzrSJr9C1Od2oWs3ffzCvGhAyPLHwGGfgd+AzfvP++lfL44xt12dRaWbOmQyfKYWSq1l367YeNM/2eZYfONxk2TsWe9XslUvXR0AXkzNBJaDkXgheEoHFhFwhoJE1aykQ1zBmyYxkPM8sOyBlDgqFJGrYCcuZhL19nhe7yOonsyuW8vjhDh74vFXVJ1YQ89Fiv3LytI8rdXY3EnG+263PclaunpFuTnazTpCjbdmTk1ZeyOnMc8yYW1puG/zh8bJspKRV+68098tij6+TBvetky+YeTczSrkOZmeDDmEy/hw5YJL0Y2HH0Taa+m7HpZs8NRtAQxDkqhaS1FQZ8RmsdsjMrGNgso2cSaVyxmfqGrbS6oOc6kZ2UM2dyMjJSlPNnc3LXvd36rFmXHt3SIV1VlmVFvqMPbyf1nz5ek3Ub2vTNWu2yWtdQnzial2NHdD22kv249tKB71NAdigL9XuXN3vv3g3ywIMbdG1zhw5nd0bLqYCL3m5c/Z7VOGfaONPvmXIDm6Vv2GErSlCCxg1QSXqmtR5HZ2UafYJd6TpMnVRerTV7QIzXrk3Pzj53tqAkO6FD3l3ygKYOXbOu0rWL+jAbvgMfxbndPW261jqjvemU3H1vl05Em4iecV+4kNMGqx9LAw8Td0DSPmVFf7s8tHe9vqN5k9xxx2rZtLlPZ4BjlcL868e5cc4iDaaNxxWb2QDwsetQx1Z6cQBk50xwWNe6DgAbQQBvanJqwa31RnIwW2FxNfpE7kZW09rfJyYm5fy5nFy9UpCz2qu+eC4v9+7p1iQnkzrjGxM45+RzvVHMrMWcAPyGnN4339qjw8sdsn5DRt7aPxZlNwP55ybmE+UcUuWn0sZ55a9zezADva9X1zNr5i/0mh9+aJOmOF0dLZvCUYVCmzYi5l8Xfu/iCu4hdGH6PROb75uc7Fp8uTmP50LbXSM8CkHjorOBYKa13kgQn9+jzF2aY3ehQ2qNruVkZwQCGGbSop5fA3xn5QSZ+XfR+m9IRvLhaSXoC3n5QLOR3Xl3Sm67IxO9Bau3d46oYdflNgiiRtayJ3Xi2eat7fL+O+Ny5FBWM5LltJeOpSzzCbPW3YJE0TDHX3nBrp6etGy9qVfuumuNPPDA9JB2f39n+aFVv0eNcyVqlt9HREqaERxfks4lj+eqWuPi7KQRNMSvFghC3VZpax2fQ5bFaK2zhun5ZMdpmXLlXnop/ELaazkWJpIdei8rZ0+l5ZYjeR2+btdkJ+gdpzTRyTRx1iOM7ZpidOOmds1K1iXvKVG/+9a4viYzp4kbbH4Gvy/nZ3zHpK+7714tDz2EZVPrZcPGXm0olHTvy2+kynem3+Ny7jEAo3FeT+dVbtVrF9d/eJM6ITfWHIdMbOMUx9SJuwZ7SyVoCM80SjgriK5aa71ZxZW21pvFqna+k73ab83ug2Gih8Qozujjho0AgEBwoxTtaMrQcFHJFUlOCvLwY5PywCMd+i7ptPZiNZGO5rOGb1abvAgy7VuRlp33dMvNt3XIDiXqF58bkmOHdVnW0GSUNrSRHt0QdTScreuZkSv7U5+4WZ746NYoC1i6iSQnke/ohDff592NZMbvrnHOwAY+dI6YxSiJb1ZqlamTyquF39N0FLcSgcvLCgewFmBbjkeQcY5lxbYSOxwVDQCfFjWOt+gFxwGfgQ09QC9e2GKTG8G3u9svQQXqx6ITHOcyBFnrEgHbgo3jkKrQohP0pDxM1SpqS46b0OfIL72YlUMH8/LgI53ywEOd0VuwOjWdKfQNnUA3+FxeNI26Tjzr1OfTq+XA/nF5/eUxOXlCG4DKMRn9r5reMxnUdVpxU7JO110//PBGTc95k2zfvlL3IWf+9Drk8mu57/BNC0GmlaR9fdPq98D1xcbx1fTh7sttFdl7VroVG77p6/eQyyI3sFF/Fv9x92r1e9hfd3c3BdvZuI/cLqbYxozc3YbfNk3QyCVtLUNDQ9GhuHlL8cmvPTw8HEFaK8Enz+7IyEgUvKzYPvm1ke8VuFZs5NmFIVsK8uCixW7FRqC21ifyDqNXasVGA82KDVzgW7FB6FZs6MPpvJ4Ox8bsL+Coh7OUfruiaUNf+E5WDr9XVKLu0Yxk+rx5sxJm25Q4/6nlmymNFHseEtm2vUvePpCWMydFJ6D1qt4rX1LT1paXjRtWytNPb5FPfOJWufnmTg3saV1Tn43+Gumkv7/fRNDAcXJbbcXH75HnGfqwYvvk13Y2aMX28XvkGkfP0YrN9Hsf34TMkN0qNxoivn6P+qzWEC23STTkYCtDI7b3HpSfH+p70wTtIwiUg5Yx/moFAh+80mMdHhRrreDS8+t9RoUCP8Ge0xL0QdUJMTEN7CNDmgw0p6Gl+SmXn14/ffFiXmdrj8snn10hT2jqUNRlI99Ut5XVa1Py5NPaIPqJlTrSUf35cU9Puzzy6GZd07xRe3MpXauNhvkUzX/gnwzfpNs4KabEVe4ozqrfM3wT2PB7hp0wPb26hxGvCONBsQxh+YpRSqS+5zY6fjGwLcNMjeQs/33W6AnPpJ3RU+SeGQaFQzGKSw/IwF7SmDqKPakzspE29PTJCfn//vK6/If/7aKSdU4GB/EK1vq+qaO40fNrDF+DsKuV6Bid/IX0nG4S2GL4D8NW5uQO35dx2BT/QacCZBdDv2f6piPpana7FPfVcDGuqHEm6aj3RTJ6DL9SHErJjoUNS2Fis/TNlpvrQWHQkYwEa6ff2p+Vr31lXL75d+Ny+OB0NrE4NqBZwXe6IUryTSVSlv/M5b4P37hg+w9LJ5CbZSdhvHI+SksIGiLElaQhO9N42Nh4bsMokBsv72AUtk4YjSKGHhiYyg8yrsunzn1YiF5H+bWvjMnz39JlVfr+6Mni9JKskNd1vUZGbxdyMoNvXO0wkbvSgpkN/8qrLXxPywgaIickXb3imA7FXHbgXt5R/a6a2zutE14DgNVwae6uF+9sEPWQLqE6frQgL+uM7+e+NSb7X5+QyxewrKpydnczkoGk8cfopUMuxBVWA4Dpm8Bm2WGCXWmxzLqsvNrC9rSUoCFynEm6OPN+44Wpvv5ZTOOhkrTOxOQFGR42Uyf1a3rp/Xr16qQc2JeT72lP+vvfy8q7+v7o69dsKy+sdxNnv098s7KWmf7DxGbWZaWW/Pe0nKAhMpwV6/wYLWrXWme0qPGMZ3pILX7PeJhGn2D7O+JSO2NCXz95+mRRXv5BVp7/9ri8+v0JOX6koG+7Qu83jLRsvwc+w+9x98wh0sR/Ku2LqROQNKtTUXknfnuWBEFDZBh8RNKaYzt0gaOyhtSAOznzlqDQcgOP2cJjGn2CzbCGxcWEbWeVkE8cK8h3vjEuX/vbMXn3zbxcPF+U0dGi2n3z8sz6fa0p4U1cgto4V91MN845qwzgP6y5EYlvVhoVUyeVV7PvCc+G9mtXHBk5q77pBkQduiSt9eoaZRpmnLEzpOVd1Wth6e9FNrKjh/Lylb8ek+9+fTx6mQaWaoUosyQdw8Y5GgGsXnrSOK+0rrjGlMo7se1pemwWzmUt1hYhhhtQEc5xLfjAhrM0KnAmGL6P3DjH0mhwx/jIjXMsenHHoaFhld2d00gnwETGHy9sc1rQaWzUjVVuHGvRCY7zlRv3aMPOzQTefCP13TC/o8c8OFiUV14q6vKsgegtWZ1djfObW/QNJabbkW1s2u8tvhydo75peTSGYzBnxGqDDtv5NL7XKjgGf17+Y/R7XBPxEHJbZWf6PeSx1KfzTWytcuNYKzYyE/roxBfblyOgF0ZpmqBdOjyLcKtWrbIcFh2DlG9IhwejtxSftKBII+mTStInPSACDGRHmk1LQao6i1ECC0YDXOBbik96QBg79O1SJzbC90kPiDr0wfZJCwps6MQqtzX1YE9PVgl6opEabtjfh4aKqnPYS2Md+fo96tPq9z5pQX1TyDL93ictqPN7xCxL8fF76Bkx3Oo/TL+3+iZ0AML1iSlo5FjTggIbNogUz22acbCVpekhbrTWLC1Y35uEIbCwQQCQmTE0BUMALgMbRI4/BjYw4SAMbOgaOo8btq/N3kjH4yEU3lQVusDvWb4J+2Zhs/3e4YfWN/QRR78HN8BWGDEF2I4jQuvbF69pgkbPi0WkrhUNIwpdgI2WEqOCgRtHbKZOgI0/5NkNXaBrYDPqMrSsywUPKxhQ4uabTBtn+r2T2zra5mNnTLmZvgmdMP0eqVJbXYIwn3vGwHJWKImFDQNiBHbnUCxs4DOclWn00DVe48iQ2wUCBnarnXSpXn/unc9Bwsi822T7D9PvoReW3yPWMmzc+T0De9Y3Y9Y4d43QeYa5yF+CeRYqWN9bRyNS6IVF0pCd5VDAZhk9y1lnHYqUc5wpNwt7kf0yNpeb9vv4+ibD76emeD07+CbLxunYSePc26+DETSujPXAKBjyDl2YgcAREsdZY+xQpNY69I2JL6yGCws7tE0vF7w4+yZkZ/k9sFk2HluSjmFMaaWfBiVo3AiMEj3dWJL0zDuIQ1dIXAnJyY0JKowCIo0jNkMXccdcDJJmjKDBxkF2LJJmNRadb7IaAHGUGz7EkrtV/hmcoHEjMPhYkrROfGG1qKEXpvEwseOaHIApN+ozKfM14Eia0TgHIeGPQdK4CxZJA5vpm2zsODagoROW3KjPxSwUgsYNxJakNQjEmaRZhskku7hiL6ajxuVa8B1W4xwEjZKQ9HxrYJJ0XH2TKfd87XO/0QgaYjuSZtwCAoHm76EMpSMQxJWkmYaZYDMseflhOr9n9KThlygsko6r38ebpBtno1uIlzDj1ULkWcg5VIKGQHBWxnOSCFsnpTFb63EdUoNhsnTONPq4Yi/E8Zb7OfB7xnNd6C1pnFe3nviSdI42JD0dUzgNgOq1EHZv01kjLC1ZOBSy1bieqfUWgO2GtWqdg98dGSEoWIsFG1iuAeCDjZ6DRS/ARxDzwXYyYVuvQOfQCwMbmMjiw8JGFh/I36ju3f3jOIu+ndwW7GJ0fXeFZFupAdh4fTtvxu8rrzd/D9aoMv0ePow/Hxu3+j3s1dvvjTFlqfm9j28iRanFN50l2LELUbxiYDtZWNumCRq5cK1laGgoCrpQrKX45NdGLlngohIsxSfPLnLVwlGt2Mj5CmOzFOSTRcvXig1cKzZydiP/sBUbpGutT+AC34oN0rVio9U7OqI6n1m210iPaPxZsaFrV5/1cMfGCtGLG+odcyP/ltbGc19vn+q9ce8Evgk7sfo96tLS4IL+kS8Z2FY79PF7X99Efm2rb/piR37f3W0yOfeuAatOmH7v45uR38/EWsuNYr6N1e8Rvy1+766LBhSwhzQOtbLQh7hLbw4GE7UySa+Vw7Wsjl0qV6PPztAZ2C5oMbCZcrueBUvuSU32wBgidY04BnYjO7pRf4etWHuXvjqKq40z/Z7tm6gjht8zfRN2gr+4+f2iEjQqNnIozWPCqGCmswIbBsSUm2E8TicsbOiEgc10ViY2bDwplRpwdsj0HxY2y8adThj+w8Zm6YTpm0zsSosPs2fRCRpiO+NhORSuwcBGBbMMEzphYgOfEQiYRh9XbNhfUio1wPZ72AvL71n+E/k9MXc3S+64+iZT7kqLb35PSwgaYrOdFdeIo7MmDoWamyvOodyEoLlfmv8EbAwHMhouzUu3PBGYfo/6xB+jPp0dMrDxOIft9yz/gdxMbIa+nd8z5A7ttS0jaNwI01mZ2ExnjbA15SjDeJiGycZmLiEBSTP0HdpZlwterH2TORJF9HuW/8DvmdhM32TJHdJPW0rQuBGmszKxIyJlOasuIWEaDxublc2MLXdC0iFDS32s2PomcdQFS8fiauOJ3PXtfaG/tpygITicNY6zu5kkDb2wjZ5FpMyEI9AJS26mvlGfSZmvATZJwz8ZQ6S4C8jOwmbaYeQ/mXi+/IbVgGbGlPkW7/9tSRA0xMZQRpsmPgBRhy6zDQBduxm6xJmkmUQaV+yl7KyhbXcp4DF9E9jwz7jNRUG9MEk6X8jTGrlMv2f6JlPuZvwsPGM1IY2bsMMg6agBYMzG43sLCALM1jrzOQwMk9UyZRo9GzujiQqSsjgacL7J8HtmAyBpnFe3D7ZvskbQmHJX11TjvU1nEoNzWYulJQuHQgVAWfhsLcCGw9QrpSQaGhvXRYDBsBewrXrBORa9QHYQqQ82ZLJgAxM6xzWscluxgefSvC4FbNyjRSfFqbzpOOjhRizwNGR6s9SpRd/OvtFLgj3iu6VYsd1wNLCtBdgWOZac3xtjCuoOfs+IKc7voWuLjeA4s28uIKb4YkNmq9yQnVWaJmik2rMYMW5g1apV5vtAKjwfbJ+0oEhROT4+HhmmRSCf9IBIs+eTAtMnLSgaLZAb+JbikxYUxohUeJDfUnzSAzpspAe1FJ+0oAgukBvpJC3FmnqwryerDSKbvJbrLrdjJpWcR0fHVO+N7cXH72HfqE9rTPFJC8r0e5f6FvJbik9a0AX5vTEtqK9vMv3e6pvQL/weHGH1ezRErGlBYXsupqRIz+stNoJjmh7iRiuTMTQFckGrN0VICwoji7AJz6RBLujpWlr21kpyx8HIYMQMbOgDemFhoz4Z2MBkYTu9J9tKDUy/6rVyf7N7upVYWL4J+2b5JvyShQ2/R1xh+E+c/d7ZSrM2V34++IyFXX6tRt+bJmi0wGA4DJIGNiaOMQwTLTDIzMBGCwzYMP7QhSk39I3CkJuJDZ2w5I6Ak/8qNIAlQW0kv2fbONvvGTElioWkeBXpW3jxCsbD0AnkniJlYYPMLq7gc6tK0wQNwWE8qAAaSZMMk2n0TEJy2DSj1wYGg6Qjh4ohdqucc6lfd1ITa8TV76Fbhv+4mMLwH+f3FGx9ZIGOBQPbER0Fm5yFrdU+GISgcRMwnsRZ51cndBJLo0fLlOisVGxii3p+7SbfoAG23+MaDCJlkgbb76n+E0O/hz5Qn4wGAOyvlSUYQeMm4u6srECQONR8E4czsRzK5TXG88CkLI4GmH7viDTxzbm6hE6oMUUbuQz/Yfr9ciXpoAQNE+I7K+e5MTsQAJ/RwnNGz3QoBrZzqEw6PJECG3bIkHsuTCafSjXA93teT5rtm0y/p2DrsDHLf2b9ntCAdtgMnZTa+mJ+Dk7QEJ7rrNMTmRizu5kkzTQeJiHRsfXZF4NImXIvpoPG6Vpcv5+eCMjoSbN9k9UAcHLHzX+YvsnUSSt8kULQuJFZZ9XZgaELDJ6ZFhTyxjEQMFu9TGxWCj84Kws7tE0vF7xZv9eJnaFLnBvQmFDH6NmxyQ7+w2oAxBE7tE03wqMRNC4cOWuac4kIW9dIM2aO0wMB0VnjavTMNHtM7EYOdiP+7kiace/ONxl+73pflMa5LkuDXlgkzfJ71GGcsbGGPM6Fw54lGoFRMlpguARSDcKZGM7qAgHLWYHPcFbohe1QLKNnEikTGzpPynwNsMgIV4HvsPweJI0/ht9DdqZe2H7PiuOQO44xBfXJLuFn6FSRuLQCYPzWAuJtdHxpA6DRsdbruuMcicJZQ2MDD38MbMhfLGhrvTsdXG5gg+yQlSm0Thw20iCysJEhyIJtOQbyJqW2Bpi+GWHrBENLjCiV0NKYR927BoCPHViwIYuLKz7YpfdQ7zNirdXG6+FU+w3Yvn5vvUfElKXg99Xuu5X7miZonzy7yJsKx7IWn/zayJ2KSrYWn/zayPkKbKuxIb82jM1SkLsXeXyt2D75tZF7GLm1rdhwPmt9Qh8+udKRqtCKjUAAW0EgsxSkWbRiw/5Ghkei0Zd62COjBa0Xuz3Vw1qOv6VTaelfsUL13tHw9mAnqFNr8cmvDb8HttXGmX7vk1/b1zd9/B7xxMc3ff1+aGjIrG8f3/T1e/S6vfxe7dDKPxjdBPbQyKjVbCnH0Ye4S6WGcnDj1pZm6bmNPqNyWdiQ27WoG8nh+ztzuI6JDX2zdOKcCPihC3SCNJUgmKQsjgbi6ptMv2dis32T5feuQU7z+xgmMQofARv4PNMw447NMEynk7hh050VJE3Ild7A/G/Yn50dMhrnccaGPhhLRp1OWH4fyU1qQMNJGHK7JEZx8vtFJ2go3xkPy1mBy8KG4TCMBzpBYWGzHIopN52kY9iijowkpv8tht+zyI7lP5GN64q0uPk92zdZsRCPQiB7XEj6/2fvTcA2Kaq772L2AYZ9mRkGGBbZ901AdmRTEFAQRBMV12jQfFc08fLL9eVK3pjkNeY1rjFRMYqgyRtcQOIlyCLKIogIDDvICCr7OmzDbF/96uE8U3ffvZzqu879PI33memn++6uPnXq1DnnX1VdXT0hAI3yLZ2VCrByqK4C0jDkthg2lkBg4VBdbFF3FJvHxbb2e5ZdsAA7scOu8R6G35vpxM8nnmLwKKpLID1hAD0MkCYPM+Mx5I0BmQDSy5OurHiHZ7sGw8YERzYLuaucdc0113DzN5vmNtlkqn8FZELdBDN+RZE5SHttWfk99mLJ28LGpXFhxtsDqQlvv+ToKr9Z8K7y+8nmaBMeebrsrFSmhbNaGo8l2FnyttRJGe+NNp7q9jtgpjv4iNluux1mug03mubrOv/qWJMtIAxLnq76PbbC1jXQsPRNy5GoMt/MZaOWvHPJOOEATUG66qzSMu0aSFsapvC2WNQg8ParsFnxxg6FNyNrm8yb6g45crZ789s2cEcePcdtvvkMN3MmC+Pkcr8/bD5d9Xux8a6B9DDkFv/JadnD9PuccufgNSkAmoJ01Vm7DNIxIOUwJuGBQ/Gqh4mz+tnXVryRv8h71uwpbtvtZ7kTTtnAve9DG7sddpzl1l57qps6jYmIUuLRvq0Guur31mCHXqwaACO/77fWot/3p5iYM5MGoCm+tbNaTRzrKkijc0vDtOZttTwgck+f1ruGL2+UbLH1TPf/fHyu+6N3beh23nWWW3PNSeU+VGcnydrvUUrXRrmQ2Qqk4W3tmxaN8y7LjextaOCVxGhJ5iRp3bFP4Q34NqUXgyct1JQ+pVyANEGADb45eQs/aVHn5E0ZRecc5+YdwM6v+CNlII9cxGpmgLQJ7+XlvMHtvfdf02259Qx31x0vumt/9py76/alfqU53apnuco+Gfho9a71TYK6+H1OO8Q38Z1U35Q4UadrkTPVNzW8yVdk1+q6TtbiNQFpK97SgBYdFfMv/tamk5jC/dp7inlV/Rbe6D0376o8686DVNINkGOWWOKYPev4sQ/HTy959jf+uIdW+kCmJe2ybPB77jmW13xJy9qlLAsalu70yzgy61hDKcsDpi7hx7Kg2tYmS/ixNKjWcFgekKX2NIRhsmyiljfLA7JpiKCbsvQgy4KynrCG4I3cOJSG0Ad60RA8kbuMt/9Oi19GdZV7/NEV7pZfveR+ftVL7rFHJ4dTa8o2aJq586e6d31gjpu/gNBQTyl+j29i51pKWRY0dVldS79nWVABsKay0hBFL1rfTPH7VN+09PtcvlmmT3StXX4ZfyemoJsphZG0Mt5tzq07Z+35/j6CFgtgLH15DyDxmy2Ak4Cz/92OpvkF6y1orbXWDAasbWmmyIABT58x3WQxEwwYQ7OQG77wt+BNIwFQtOBN74KGiBVvHM9iCBOeyF3Gm0lks3kVa8E09+qDZrkTT5ntDjpstn81a4bvrdG+fWWTfwJv8KV3FxpPBFMLW8G+rXhb+j0yW/k9vkk8tNC3pd/jk5Z+D2/kn2gaGF2XrxhbA5tWh7aFpy00vTqUREsmN294WvFGF1a8Q6vu5WH0sp6dVrdl6YS3VV3iVBa8RQ/Cv6xsbc+J3VXxBqg32HCKW3OtGW7e5s7ttMtUd/stL7gbrn/e93rwibY5T+77GH2a4n2TwC46yiWxpW9a8sYO8Xv2YpO5dWLFW+zboi6teIuOhX8uXcMHPcB/jakD92EHEmtggCZ3MXoKlLuCBaS7yJteKXKz5STRt4VhCm8LfQtvMf6cOkFe9GGhEw3vWbPGFjbZfPPZbvMtZ7jNF850v/zF8+7++5a+YoGa+pwyZUaw7675ffBN/8oe7/DmJIlXFnZoydvSNy15a3yzbf1i0xM9FpYFoFGAVIJlYLfkbQEaw3Aoi0AgdWmhE+FtIbc4q4xetHXMsvs0vH37wK3lX8Haatupfuh7htt03jT/fPoF9+u7X3IPP7TMP9diJKiMe3fPSX1a+qYF73HfXDU2qpOzBkQnFjY+4t1fU+KbFvruz224Z7L23zEelGTxPMOaNzIje25CbmveAFJuspYbeS3klmA+0bxnzpri9tx3LXfsG9ZzR79+jtt7vzXd3LmvzOfT1r5pGVOsfbOrMcVKbku/h7eF3PCdKMqOSCNn7a9KdAJZGA+86elaAJLIbcF7sgBpf23Vn0mRm6VB586b7vY/aG13/BvXc0ccM8cvGzrLfwjeL3TyCptI1mW/t/RNeFv4j6VvWvJO8Z96T+y/Cm/IQt/9uQ3nTHaARmxxVosiCG+rXrpVi1qMxwKkrY3eqgHQZbmRXft63DT/sQ2GvI85YV33tjM38LO957gFftnQtdZ6ZS0bau2b+I6F3498sz9SD8M3tf7TL131GUu5q3O1u2IC0IiLs1q1ZKwDAfJbAakl764CaQrYoT8twZfNwg7RNXaYEmToNW+59Sz3hlPXc2/1QP2aQ9byr3H5iW35n1BoVZQ9nbVvjkC6t8oCIBl919zSf+Cd6j+9Ja/+JXKn+GY1t4m9YgbQFCtUgNF70paBgApmrZYugjSyWwCSpdG3ATut28Ab2S2ctY3cLGK31lpT3Y67rOnedMYG7t1/urbbcqupXj5tiSZ/OvFNC0mFdxd70ma+6WeiW/EW/7GIKW38R2tTlry1MuRIZwrQCMh70hbBEd62zjr23LhrgWDkUFhGL6ETZu1a2GFb3sxHZKGThdtMc+/54DruhDeuFY6ZXGZhc70asf+Fb1oEdSS39fux55gWjXNr37QGaSv/oT67xtveg8ZyMAdosrEKjvAWZ+U4N2HwU9awCZjwhroYCKhPVjfKTQJ2VoEduS30jR7a8p7mv4q17vpT3AGHzHRvPG1Nd8zrZ7ktFvoe9fSJfgNz8NoNgbezI2h+DI3hjswkIG1hh/BG5xb+I75pBaRWGCFyW+gks2mUsht4YC1lnV3WNaYitJSyzm7qGr4p6+ym8mZ5SO26r6zdzaYlluVj0xBrGi9ZskSTNKRhOUFtfVKPTz31lJo362treRNknn76afWiNyyBmsL7mWeeCUOCGuEJSFreNLrQN/JriCAtvNdbz39/epOVbqutV7hddl/mbvQrkd1w3fPu0UeWq/WgyTNXmqn+wfk6c+Z4+ZvXemddY9aT1tJk8XvW7l66lGWSdYTPa/0evim+meL36DqFt6Xfp/pmit/TSRD/aaohfLKN3z/z7HNNrE2vDwzQKdJJK0kL0iktWIySYKrlnSI3ldtF3qn6TtGJpb6RG/AC8GgB56R45EKOc/FHVjZa61qQjvOePmOKW98vG7rOutPc+htMc5ttPt3dctML7u47lrqnnlzh9ZFXF3HelsfWtmLlm5b+Y8m7q/rGZyaL3+eOO239a6gAjZAY5lQ/7LXCP5vOTWO82wXHJlksHcqad1vA0OuEHmNe8MBZkdsKpAkEEgyayplyHXnh21bnjKoyvD3Pf3RjnXWnus0WzHQLt3rB3XnbC+7225a6pS+OPRpJkWkypLW2cUuQbluXTXq31smY3NhLXt9EbiuddNXvm+q67fWhAzSCAs7mFezX2dV+TlKrPDFMC9AQZ8VAc7feLI3eUieWcguQTkaQxh4B6rXnTHXbbD8lLBm6cJvpbpO5z3igfsn97rcrfENXa7WTJ53YCvWam4L/0PD33wHtmv/QuOia31v6piVvS7/PbdPwmxCAJuPxSjAA0nHeBkOklrwlgFk0ACzl7ipvS2cV3jyrBTTaEu9Or7v+NLfzOrPd3M2WufmbT/XPp5e6B3+30s8BWOle8t+k7hJZ2orll/VM5X65Rzry+9WWbKlv8U2LxvnqEuQ5Gsos7ipRqYQp/nNeKc+aq3gVzwfefqjRijd8rXhjOGy5CZ0gsxXvLsqNs0IWOgkB14/jANI5aMaMNdy+B8x0bzhlLXfwEbPcttv5STJ+BrjRROkcIpfysPZN6tLKN0d+31ulUshNGB8AAEAASURBVJcW/mMZryz9vldDg/3KjwKJ8kgFWzmUlbNSwQHs/GtYuQmdQBZGb2mYXZXbUifw5pOGPNLJRXPnT3UHHz7TnfCm2e6Ag2b659TT3Ez/uUuGxbtCnfd7owY09Tfy+9VWbO2bVvpeXYLBjvKjSwt5uuysfDC0aw6F0fOczlLunIAkJiXOasUbnVjwhi+y5+Q93femt1g4zb3+5DXdm9+2lttzn5lu9uw1fB6ircm/77Tfe/Va+o8Vbysbt/ZNrDmn/4h3SCy04C15DLKfFABNAUbO2l+NYvQWzoqjWjqrJe/cYCeaR+au8WYAZ6ttp7mT/SInf/zuOW6X3Wb4VwK705Ue+b1Y3+q9gIaV31vZOHy7yNvS71fXarujSQPQiD/mrFPNnh9h8BZD6RglZOFQlrwtDdPSWS3lHgZvZu3mprXWXsNtt/M0v7732u6P37O22+ZV0/yz6Unl3pVFHoF0v2qwQzaLnt0wbNxSbgv/EZ1Y8O6vXf2Z/JFCn3dpSl7BQknMaM5NBAIMR0AvJ394AtBWIG3FWwzTyqHQuYXRI3dXeYdXgryN57RDnj/PnLmGm76h8+9Pz/bvUU91d922hrvysufc448t97risUZOi8/Ly9I3LXlb+r21b670NtFFvxf/yWuB/m1x7yDCm+PJQIyFSTNbjnmKxTF71vFjH46fXvLsb/xxD61crl/CT7ssGxn8oSwPyLKgWgBjeUCWH9QSywOy1J6GWH0InWuJ5QHZNESATFl6kGVBZ8+erWEdQPrZJc+q33lHH9qlUgm+yK11VuqR+tQQPOGtBWkaaCyBqaWnn17innximbvvnuV+JbJlflvulw1d4ZfczBN4mKj2rg/M8d+5JjTU0x+C36cu2cuSoNr17Fmyl+WGtdRVv0/xTWIKS0drfRNda5dhxSfhHRpf0/J/c4B6XHfO2vP9jqFXZgSznix7nJO9HI+Dsz/XjrTgkso9xYDhnTJ0nWLAqXIDLFrgSuWdAlypvFMMOJU3rXTWPrcgeK89Z+2k+tfKASgit8WoCPaash68VmZJt+66c9yGG013O+023R3kX8k6+vhZbu9Xz3AbbJDnMY+fMy5ZZd3j99pGZWrGln6f0mBNlTsFuFJ54/faRmUqb3O/943hlLivlR9/RycWfq+VQdINPMQtQwLsc5Mlb1pgGCc9x9wEbxouFjqx5C36Jg9ty1SrO0veoaXrnYp9brmFH84K/5wEv1j2nLyRm3pcc81pbsb8FR6sWZFsqpvne763L1rmfnv/cj9iMjas1yZfVukjAFuQ2ErX/Ad9W8UU0cmK5d43Q0crn+bHeRv4vcQri5gS+474aS6t5ObXVi4Z3m57f7iPCrZ21oEErLhZFpW36A2I0Vu08Kx5U5dWclvxJgAAohZyCzBbtKgJBGwWvDF7ZJ82bWp4Ps1rWa/2700ffvQst++BM91W20z1w37te8ISfCvca6DTYuMDMam4WXhb2Mp4TDF4KR25p/q6tJA78Db0eyvfHIbfV5jRUE5nAWgkRVGWIB0Cu8GwWpeN3grsxFktQAPeU/zKWhZBZhjOaqETaa1b8QakxTfnrDPF7bTrDHfEMbMDUO/h35+e63vWbfFEbMUiWsGbkSgLWxG5R7xX15zoxMIOLX3Tkvdq7UzMUTaARvw4EOQuTqgEo2VBxTCtnBWDt+JN4LVwKHSCzBa8malvpRNxVgu5LXvSlrxpAMS+ycqjG/jPWgLOx50424P1LP9aFt/rnup7aOk9anQuDYDcfo8dWtmKNW/TBrSvRAsbH/N7m7dRxDctYqHwttBJbptO4ZcVoIuBIEUQTVqpBIsKtnRWkXuKwbKgYw5lBaSjtbuLdmkJpJa8y3zTtxv9d6enuAMPneXe+6FN/PKhc9yCBTP8sLcP/v4jHSlk9coOMoj/WPi9JW+JKRagwYdBLBvQdrzHHkVZ6IS6tJI7xRdyps0K0AhWFghyCmzpUNa815jSTSDF6C16SJYOBW/IQm4B0q7xrvJNhrc388B88mnr+9XINnSvOXQtt8km05MWOmHiUtxLz+nz8LL2TQADO89N1jZuBUhdlps6tPDN3Lah4ZcdoMm0KhBoBNKkGTlrv5asHYo6tTB65IYsWtQAhpXcXeVd55szZ01x2+00273l7Ru6P3rXhm6nXWb2G1rNmTreNbepL438vl9Vlv4TYoqf92Pp9xa8LX2zvwZsz5gANCKPnLW84oLRmz3b7S7Yoa2uOatlIIA3m4VO6nyTYe8ZM6e4nXeb7d7+3o3cmX+yodtld/9u/2xdqKjjXe4RaWe7DNKU1KohCm8LW+Fb5tSpBW9r/7GSG10PiwZ+D7pO0NhZpaVXlz71GjwxHEveGFFukiBj5azwteRt5azI3EXeVo8AxH+YyZzbDoV3lf/wtaxNNh1bxGKLLWe6u25f6n5+1XPu1/cuDQG7zieE9zT/oWqeleYm8fvcOkFOS97IO/LNXmsQnZj5vZ/3Y7WYVm9JbH6ZAjQii7NONfqqPA5FILAgcVaLZ1NimJa8rYwemS2MHp1YgZ3wZiGJ3CQ2bsUbO7TijV6q6nKqnyi29pxpbuHWU9xG/pn0VtvMcDf98gX3k0uX+Hqq1yI6Cb7pGxcWZOmblrzF760a0Nb+YxlTLFaQ41vsq1asMludzsK2Y564mYxdyTHLA3HMvnEt7rXX1K2ZjOGwjjQzG7XEsn/c10RteLPsn9ZJWAOb9XA1siAry31qDZmFDVjHV8ubJQWrAmpRTwQa1vDV8sZBtE5CoGHtbi1vAIalSjVEcE9ZFxx9aJdXhTc6Ya8h6lG7Ljg8sXF0oyHsDzvUErypUy1pl3CkDtFJE+8VPtA9/uhKd8eil9xzz09zRxy9jl+hrH41MXhb+j2+k+KbKX4PX3xfa+Mpfk8cRC9a3viOtpGW6pspfm/um89531SulDYMv3/2ef23D7R+STrtWtwDN2+1IIdQGDxK1YI0vLUGHFbw8T3pZcqPd8BXKzvyIjd5aMiSN/lr5SZ4pcidwpvAZcmbMmrtJEVuqUMCjQakkUOrbwBOwFn2yFZHKbzRB+mbgFTy0/JGD8F/GnyTtvJGm6zh9jlwhlu5Ym237rq6d3FT/T7Ff0RuqVcpe9Xekjd5anVuKTd+T8PSwn+Et1bfKToJDS3/pguv7Gl8kzQp+hab0Phmip0IX4u99J4teJfyFLArvTjgScAZ0LAgcagu8ta2vFPLhk6seFvaCQCHY+OEuUmcXxs4UvInIMFfOzqTwpu06EXjP7NmreHmbzY9TCbT5mFZn5Z22FXe1vrW2InWNuJ0yG1p3/i8hd/HZch5PHSARnhL4xnx7jcP68bFCKR7dW4N0gC1RRCDLyBtwdva761t3AqQLOUexcJev+SXZeO8P7fBz0wIQIuirCZ3jQyz3zAsddLVIGPprJYgDW9LkLbspWOHXWwAWPrPiPdw45Wl3/eXZLAzEwbQobXu37GzdNYR717jkEBgMcQjgdeKNz0YC96WzjoUkGZh7cyEb1qCtOWyoGKHmVUS2In/WPEmXlnYuMhtxdtSbiveln6f0z4mDKAphHUgoBKsQFp4Wxi9JW+c1er5q6XRd1Vuc5D2M16ndgykh7EsaAjsVl+/MwLSkf/0Q5ulTix595ek3ZkJBWhEHhZIWwGpJdghcxflRicWk6TEobrGeygg7UEjN1n6piVv9BBsxejrd2KHXfVNK7nha/FBING3ld8HuX3Mmow0KaQairMazdoV47EwegI7fC14i9xWRo+xW/G2cih0YiW3NUjD32K0yNI3LXlTj2Ljlv5jxTvYuMHX79CJlf8EG/cvRnTN7y19MwSUAf5MCoBG/pGzltcixmPlUF0FpGHIbTFsLIFgBKSrbX3k96t1ER9Zgp3YoQWQwps6teA9FL83GImK6zX1eNIANIKPnLW8+qwdilwtHEqc1QKQRCdWvLFFK97IbsHb0n/MefvFKSx0gm0T2LFvq96uFW+xcUvftOCNrVj6D3VqYSvo28o3kbkNsVKDgLQc8zCLY/aNS336ZV98Mh2lLD3IUo9ioBruKcuCapY1jPNMWR6QlXaY0KSllOUBU5ceTFkWFJlTlh5MWR6QerRcFvTZZ59VB19mg6csC5qy5ChBQ7ssKPaB3FoikGqXBQWI4E2Q1FKKb1rytvT71CVHU/yelfWWveRXGiRyKijF73mNkbiibWCkLAtK42WyLAds6ZuteRtMwMQ8hrrUpxaQUlprAC6Gg3FqCN5aAxbeAJ6G4KuVHafGmdg0lMIbYCE9gUZLWrkBXHinAJKWN+kAgCVLlmjFVusbhvB+dokHJOUavlq5hTdya8AOvqm80bcM3TUppw1vC99E38htwRvfxL6tfBPegKmGUnwTwCW91u/JX1ufAC68iYcaSpEbGdB5amNRIwe8Lf1e5Nb4Jmm0+qZsIaYkNKA1+miTRnrPbe4N9+CktE5yE0ZmxRtZCYpWK2B1lTf6ttKJJW966FP8jF0LCo7tJ+tgj7kJ3qmBI0WGFcttXjO09E3h3UU7tPR7S/+x5I1OLPABPwh+7xsBFoRfTgbKUjoq2OKZAAqCt1UFW66ABW+rINNl3lZ1aRkI+Gg9rW8LkJbHOCmte23gsH7f2NLvR77ZX8td9XvLGG7p9+Kb/TUxvDNZABpxKUwXQdrSeKwdygrsLIOjpb4teRMIOgnSvidg2dNAL130+y77Zhcb/pa+acl7eFBcnlM2gGZIwBqkuxoIrIBUDNO/KV1euwOcHedtMLTbVd5dBmnLoXTrpTut/KerDVGR22JEx5K3td+DDxY6GSCMDnxrNoBGEmuQNm+t++9JW5C5YU6zMUzktjJ6a95T/OxLC2ftMkgzh667Q+nGvtnBRm5XfdNKbkvftMAFDc+sAE2GnQbpFd0FJCujtwfStJnPGqMmzQpfl1ZD0paBQJ57WQDpylUrg/oseNv7ve08F0v/sWosWvsmOrFYuhO5sUEL3pa+qY09OdNlB2iEG3dWo3fILIfSLStYDNOiZ2fNm5W1LAI7+kYfVrzha6FvsRMLuU1B2s8VgSzkHvd7o9WY0DmgYUHLTRt0do3FANL4psGyoPBeY4qdb1ryxr4tbNzC9up4mgA0GQZn9S12C4caRiCgci0DuyVvC8MkgFkCqSVvK2e1bFwISFsuOWphJ9a+2dXGuTToLPw++KYlkBo2oC393op3HaDmvmYG0OMgbTS72zoQWDqUNW8rw7QEJOFt0aAT3haABG/IQm7AiFelrHhbyW3pm5a80Qf1iZ1YAKk175HfU4OrSXzTwu9X52J7ZArQiG7pUJa8kb3KoRj6YVUf7YpE8CpSFe9iuja/4W3prMhkARrITZ1aOBS8IYvAG4DUSG7hbaHvwHulTQPA0jdj3hb1Kb4ZDCbzH+FtaeNd5E2dWtm4ld9nNo1SdryfIyAtx0lrca81e1Yp4+JJHIll8CRQFq/Hvwkc9913n7vjjjsCCG6wwQZul112cZtttllPJbIc4F133eVuueWWsCTo/Pnz3Y477ujWW2+9xkDMsplaQwaQ46UHf/Ob37jrr78+LI+30UYbub322svNmzdvPE+W5isaG2D+wAMPuGuvvTYUde7cueG+OXPmjC9n+vTTTzt4//a3vw280YMQS89Rrle96lVBDyzN2UQYfcqyoLxfmfKOpXbpQeTkVRmNzFIm5EZ+DaFrdK4l7DDWbd19lryxP+264MiIDWn8h7T4m3Zd8BTfhDeUsi641u/HOLsgtxZ4eS2ITUspfo+uUxrhZX5fJRf2l7IsKL6T8rpZim+O/L6/lsTvn3tBt2RzP4f6M0Nbi7sIRHViAXIYGYBXRzjGjTfe6D7/+c+7Rx55xO2xxx7uQx/6UB9Akw6g/Md//McARCeeeKJbf/31HaDX5OAER63sGDvpJRDQePjGN74RGhBbbrml+8hHPuIAauFXxpsy33bbbe6v/uqvQtEPP/xwt/nmm4+D1q9//Wt3zTXXuJ/97GeB72OPPdYTjDfccMPQCPjgBz/otthii/G86vRYlLsuLddwVClDU1oANNZJU3rqXctbgqIWjOCr5U0dEhzZNA0A7EjLG3mFL/smSuk1wBsbQp4UvTTJwHXk4EMPU/3rek2+Kfy0OiE9fo9tif8Ij6o9dsWmIdYER5YU3lrZU/0nxVYA5xT/SeGdKneK36fKja61+sZOsEXxoab6R39a3uL3wr+JN9e1vDW82qaxebmwRhoCQBNIo0Q+ULB48WL3xBNPBPBjMfdi0OM36e6///7goIB5MU2NKEmXqGAJMhwDoA899FBoYZMvMtcRchFM6B1DDz74YAhc3Pf73//e/eAHP3Bf/vKXQy8bZ2STHif3khcjCmecccb4+br85Fost5zLtbfkrbGTtuUA4LBB9k31lpoHPHFsgkduW4SfBCUtSGvl51m36EUL0lrepLO0lRHv/proqk4sbVB44/O5/b6/BvKcGTpAI7YoyiIQCG/2uUmMvg1fAIGh+v333z/czlA8Q5AYCqMFP/rRj9zvfve7ENxJt91227lNN900pKVHSYMAwKannkoiN/vcZMnbEqSFN3aS21nh2UmQ9rYoslv5T1PjvK19YoeWvKVx3la+qvss/aervPFNK31b+n1VHQ9yfkIAmoBoHQjoacizL/KSICw9U8CRNPyGuE4PhQpkqEXu4TpDRnIfabkvJrmPe7hfjABAledS5HfwwQe78847L9zKb4CYkQFGAHj2DB+eTZ922mnuve99b/jkGYk5T1meeeaZMLwteXOePHFEGR5CTsCBvLkmRBqIskAEM5xA5OUYfjQGOAcfzkHwlvspO7xFn1y3DATIYu2s5JGb0D31gB5jXeXIh3qiHtg4zkniB8ge20+uPPjClhWQUo9WvC1tvMu8u6hvSzvJ5SfCZ0IAmswtAwEVwLDz3Xff7e6991738MMPuyeffDIES55P77nnnm6fffZxPD8GKAmi3PP444+HSWf0aHkmzDkC1cYbbxyefzMZjOe/BEXugQhigCzPpRmGJk/2gBh5vOY1rwmgCy96yFdeeWW4j+fP++23X7ifYXrAl4DLJLBjjz3WMeGtSIC3TM5BhiX+G8j33fdrd/vtt4deuDx7Wrhwodt7773DM24mlyGL5H/VVVeFPOnBb7311kGme+65x+28885BH5T7zjvvDHqhF49M6INzlHPBggVBbq7xPVahrgYZ9GIVZASkqauugfSql2d35wZp66F0y/rExq1sZeQ/EklW7y31bWknq0sw+NGEATSiW4E0z3p/+MMfui996UvhmS/5SIAEWAEdAOyjH/2oY7IWoA2QM/Hra1/7WnjuLemRk3vY/vmf/zkAlMjOnslS3/rWt8LGM3N6utxL+q222sq9613vcu94xzsCSAJ0THaDjjrqqAD6m2yySfjNHxoDACpbXSDw7H2v+wF3/vn/7c4+++wgOyAgRN4MhVM2nlm/+tWvDr1cZrz/xV/8RWhgcI5GwE033RQaL3//938fAPfCCy90X/ziF0OvFRBmDgDlEpBBd5Tr/e9/vzvppJPcuuuuK9mGPOrkHk/Y4qCrztpVkGZZ0CmrxibhZAdpb8Cil9y8MS2Cr9UIgGVgt7RxS96WOukq7xYhrvSWCQVoJALMCP51DgUIMgx86623BqCTktCj49WlGEy5Bi+AAr4Mz5YRs7+/973vBcDdaaedwgSsiy++OPS8Y7CTexlmpScK35gwIGZnQwSbWBZ61QAgPeeFvlfLdZmhDJAX8wFYyYO84FulkyeeeNxdeumP3Ve+8pXQYy8LcvTiv/vd74ZZ7QAxz7NFHzgrM8YBWxkal4YF19A3vXp0xD1F/owSfOc733E0Lo477rhYHUFuK5Cu00mPEC1+rA4EPBaon/CXyh79UZfoMraPVD5l6eFJPbJxnJOEd5UdDpKXxu8H4S86L9ruIDzl3mAr/sM6rOCVm1bboQ1vi7pEB8ORG/vO65vIbaWTHLbRizY5OLbg0eSsAN1nP/tZ981vfjMEIskC5TIbuuiEvOvI816GkVH+OuusMw5G3/72t91//dd/hWexPPelhwhoPvXUU2E2NSBJz/FjH/uY22GHHcJ95AFwMSxcJAFVrvE6GM+cr7766tCY4B74ynPf4r1lv+HHBkmQ4XN+DA0KMVzPkDPD0ZRvt912Cz11hu65ds4554QRBED2F7/4RZiYJhPOhAdlJp+FvuFw0EEHhTLLNdnz3vXrXvc6d8wxx4Rh+ssvvzzwpkcNXxpMRYDmXnFW5M8NSOM6MQA7cVYLILWUW4DUEqQteDf5vdhh2z16sQq+gLMZ75dBo2t22FX/sfTNtrYr900KgEaY2Fmp6Jjo5QFGbBqiB8ezYlnYhF4pYEQePI++9NJLw1A04EkvHCDFGSRfjknPUC7Pn0lHGpk0FcsAb4Z6Tz31VLdgswWOoUGea/MMnNen4MXWlsqMh+fV9JCRCRAFYE855ZTQo6UnTA+Y4WyG1En36KOPlmbP8Pdhhx3mGEFAX5RTiIYGw+B/+qd/Gp6L87yZhg/P0AFo6WVL+uJ+5KxFjUQNLm8PuRsu2NioJ92r8zim4Ee5qcw3c+Ux4t2vya7qpL8k+jOTBqAROXaouAhMjCpbSQyAoicJGMUgCLgCnDyLZniZV5QADNIAmgLEMjuZ9IAPz35JSxqeRbPqFyBN73j33XcvXfUJIKPnDJgBYgAkE6l4rp2LYsOEp4Aw+iJ/VjHbZJNNfaNibBUmev4sbAJJGcOPwh9mi9P7lhGGGKBp5NDr3n777YNe0BE8aXxAUlcFlj0/RW7S5iZ4A0jIlZu6Krc5SPsvJnWtJy12atXbFVuJ408ue7TmTV1akMg98vvBtTswQDOMqiUtaFHBGI9UMM86mdkMCAK8QgDwRRddFJ7Dco4eLmBOGmYmsyrXzTffHHqzgDn8AGCGtTkmH3qCgBgzpA899NAw3M1sbnqKbIDXAQccECZ1IcO2224bQEqeReP4ABcrmJE/jgpfkZ18GeKmpw6wCpGG8/BBXgEaflOGMl0hJzwotzzLhh8NjmefXV0P8BZCPkBcesCSD9dp9NCYgOCBrMKXcozxfTaUhfvIlzRCyF0mp1yXPbzQszSM5HzVHh1o+HI/ekaPWjtEH1re8KfMFrzRJzah5Y0/aOVO5U36FN4pOkGHKbypS/hrCV9Bfg2J72jTpywLit9g47GP18mET8JfQ/gcfMU3m+7R+iV8iBXwjv26jj8xTlufqb45Kf3e4DOedfotXhsYoDF2beAlOGqIio2Nl54tz4WZeY1hCxHcFi1aFMAcQ0MWAhk9QRb++NznPhd6wxgsvUz2OL+0dsmHjXsAXnqUPLfmmTe9aIbUmYQGr1/+8pcBOJlwFZeDe8kX4+I8csfX4Y9s5Cn5Ij/n+c39bEKkZYt5yDUJGNzH/ZDw4R4h6kOucw7+Ip+kkfOSD3v0E99HPiI76eN8i/fzu4rgjY4AJA2VyVp3H40PLdAhi5S5jqdcg3dsM3K+bE8ZrXhTLym88RnALrdvUm50YslbGs1lOi6eK/pP8Xr8GzBP5a3VOSNLAKgWoFNsBRlIj+waasNb2ygCoLU6QVZ0rvV7+Kbwxg7hHcesKv1gJ6m8g050bb+qbAc+PzBAEwAIqNpAMLDECgY8Zwa4AVlA7cADDwyTnQB3eta8FsUzYgxZiJ7yvvvuG4azmWgFD0D5X//1X8MwOc9xAex4GFjujffwBMhSiHswIMCQvMkLHrF8YoSib7lGOs6xhwcEWNHbhkgnacOJmj8xD5JJnnIL19sSZcO5tS31lHyQy9IGRYdFfaTIWJeWehtEt2W8kRmdW+gFecUOc/s9cmMjFrYiOukab+rX0n8seVv6JrwB3dw2WOZPE3VuYIBGcBSEoqhoC8KxUohWLK1NKpDnqLxzfOaZZwb5fvKTn4RhcVk/m2BD4H3Bf7WEXsEU/+FzVvhi2Jpnz1dccUUAc1rH8GNrohR5yZ/WNxvgz1rdN9xwQ3j2TY9WiKCFfukZoWv25INcNER41k4jg7qQYX3upYESjzoIv6q9lA+d0IJkuJ+8kZPZ7NLS5jfBP4WsAi8yUG4LMII3ekfn6CY3SMMTXVKXuXnDT2S38E0rnaMLbMWqPi3tcMQbj+klKzshF0veY76pG/XtLXG+X2kRtiZfCmMF0gQagpiWADY2HJ3nzcxm5mMU9CqZwQ2YSTBEbrZ77rkrvBtMGQBo8iM9vWaMAF6AHa3vFOK+OiIIbbPNNmGIHQAkP14p4/1pGglC9KqRh4VPFi5cGGZdU0YA85JLLgmAzSpkpLvgggvCMD1lYMie2eypRF58xpOlSZGDsvOaFauWQcwL4Ll9KlkGMEtntQS6sUAwZt9il6l6rUoPP0vfROdWfm9Zn5Z2OOLdb43U5fRpfgRt+eo5LP2p2p2xtJN2EuW7KxtASyAAFAgIg1IMbBxLkCnyjdNxjd+sogV4AH4M955//vkBtKhINgmCci+9UGaCf+YznwkAF/c4uUZ6AIqlMXntiq9Kca/cX5Qp/s29yFEkuZfgxkxqlv2kIcEzFXrEDMMXicbB8ccfH57F77rrrqGHT2+Z5+Q8b+d6XD5ewXrta18beMe8JO/4XPEYPjwO+OQnPxkaK9KbETBhQh2vd7UhywCG3BZDmJQTkBY9tCl33T1i3+zFPuvSp1yDH1su3yzmLbJ3qZdOGbBDq/q0tPHO8vbgbOWb+L1VXRbtfZi/+5FjgNwlsOQIBAz5MjwNmLDndzEQkA9DvYAmPT5mUlNJpD/yyCPDEpiXXXZZuEax6BnzCtLTTz8d3g+mFwhfiAoGmFm6El44AQQwA/h8vIKlM/lNz5VeJefJi8kKMZGG6+THBghjmJznN8R1zlG+hb5HfNZZZ4UZ1V/96lfDMHcsA+nIE/k4j55ZiIXfrCbGil80JJCZdGw0UN7hlxg9/fTTg14Y9ic98spEFuSqInSLLskbgrf8Ju+3vvWt4fWyqvubzlsHGStntQwE0ku3AGl4Uqc5fLNYt9hj0TeLaQb5jc5HvfReDYo/opvcZO2bo560vsYYf5WxYzkmanPMnoeg7MPx00ue/Y0/7qGVJUMWU5ia7jngtDHRo9MQDs8zYoZTMRZmAjJ7mvslyBDM4M+QLj1I0gCYvDYE6NJzXuwX1OA9aSZe8XyW61v595rl2SrgA19AmcU/eP7LM1eGxdkwfmZ/8y4w9wGqBH74sfQoz6zhwSIfNBIAW2RnmJpeMEBIvuSBfORBrxQizwULNvf3bRR4UB6ucx+8ZbIY/OENuLNHHnhC8Kf8lBN5mdhGPqRjWJuhcxohyAx/GiaMFCAjxMpj8BViSPvf//3fw0ZA5EMfzGyXMpMO3sx4ZzgdfWiJBkTZLNQyIKUhIQ0nDX9sRJ6Nx+ml3FJertF4QUdaQm9lM8TLeHOOBqOWqnije2w7lhu7l3rX8Ode6rtI8IHa+qbwK5ssif2zDcobPyjyIN8ykEYnUiaRrW5PXaL3IpXZIa8TkaeWsEFssUhlvGnUS+O3mL7sN7GGxnmRynhj39i5logj0miP7ykDUuJFHDPi9GXHyIzsRUJuvmwWr5CY6pspfo+uix2pokzxb/HNKX5Y3oLWnbM2X0MCIDHGpS/vCcz8ZgtBOmsP2jMNFBbaH2BRA5wcMOULSwQafk/1a9+y5zfOK44DYNBzxlGpdM6TDueit8wXq6QFjgEQ/CV4jfGZ5h18jcCDezAozsue9MjCXgIB4MoEstWyjeVJ4ckbmZBHriMX57mPL2JR+fCS89yH3JQDGRYuXBgcHQPkPoyL6+w5J61mQIxnzICwDMVTrdNnjPW4RSfCn/wBZaE6JyZf+DKMLWCJXpABB00xdsmvbE9ZgrN6naCvnNRV3tgH9Y2+c+sEntgeG8c5Kdi7b5lb8EZO5EUvZQA7aDnGYgQN2fw9UrFD9rlJeKOT3LbC8+KRb+ausTR+JgCNCIMGAhwRACkzOs6Js5KXAC+gIsQx56tAiPNFR8cY2aA4EJCWoCPEcRVfuRcgK5Lw4N7i+tqSNpZBzsX7osyUM27Vxg4V6wMelIlNQ9xLWnqE0iuMeWt4aNNYBhnhjb2w5SR4oyP4ltnpIHlRz1a8kRdbZMutk0Eb53U6i/2+6Ad192mvAc7o3IK32CG8c9vKiHd/DVvqpD83uzOrUccgD3F+AaacWcTOmpOv8EJ2nNWCcNIpU22WqcQw0XcRnHOUw5o3+rawFeRGHxa8Q10a6Vt4W8ht6ZuWvK39Hp1b+b21/1j6PTqxjCkWNo6+p06xiSk54qmGhylAI0BXnXUYgcDKoQYJ7MhEj5lnzDxbLwarQXg3GaQAqUUgQG74WvG2rEtktghglr5pydvaNxndKtp9k+1qr1v6j/C2sHFpXFjYoaVv8tUxK7/X1vkg6RgTFpCWY7qNHLNvnCQ2e6ZuMgIVy/NTKkNLdcPIMQ94Y0BsWmIIWmPI8EZmZNcSQ8EaQyZ/gk3Z5I+qvFJ4w79s8kcVb9YpZ0Y4q7AxyYyvXPHMumq4PoU3+kB2DZHWkvf483qFMOiwrPxltyK3JW+ZF1GWd/FcqtyWvmnJO9U3tX4/2Xxzmp+Dw6ibhlL9h8aItkFCurLJnlVypfq9lf8gNzGFeKsh8Z8XlvZPzNPc35RmaJPEtMELgZlBSXot2DEbEUVpiPeHAQAtb57bao1ybIWxsQaGRhYmlGnBSGYfa+VGf1qdy+xJLW9eweKzlWxNJE6q5Y1OtHKPOSmvvukaRTTktLyRl6BOD0/jrNSjljd8pZEoPcg6PRK8tDPKBYjwB441pOWNHtA5/iDyN/FPmSSY6vdMSkQ3GsJ/kFtrhyl+j9zIoeWdYoeTye/Rn9bGpeFsoRNpgGLfGt9EZq3c4vfw1fgmOsF/rABaY9uk0XmBlpsiHYrSgpeCXU8SeGsrrOdGxY8R734lWeoEcLaqSwIADqht/PWXvPqMOL8WYKo59V+RRgWy5yYCF3qx9E1L3la2YmnjI979VkwD0cK+yQn7xuct/L6/JHnODB2gRVGWzjrN6N21kUP1G11XdWIZCABSgoAVSFMLTH7JQdKjIHhRl/SQkJ9jNvTENWkcDJInvCz9fgTSvbXTZd+0shNsGb/sCkjrHgr21vvAv+LWOk6bm+h9UcEWvMXo2eemEe9+jVrqRADDwk4IBNJLx95zkvAm0ACcqYQ8Asw8BmFBExYG4rEFQ91C8OfRBMPC7Jk8yDFAKI2Q1ECH7CPfFA2P7S1tvKu88UnsDPlzk/gP+8lOEwLQKEVAmiBmoSjL4NtVox/J3e+OlnYiYMR+soA05WW1Oj6lylfT+HAM4MzKdczjALAF9AFSnsPxvJnnq6zkx+I3TCBk/fhddtnFLVy4VUjjBwxUJH7PpCdm2OYmbNyyAWDJ2wqQuuz3VvoW38QfJjNNGECjFJx11cqxD9FbgLRlJYwCQb9ZdzUQ4KRWwdG6AaDtpeNrd999t/vOd77jLrzwwrCcLJOgqDNpQADMAs7ULr1jNhmqZ8+GrgBtwPukk05y73jHO/2qfzv1G0TFmQDSK8dGGCz83lLnlry76j+WclvqG95Wfl9h+smnJxSgkTasPLRqShgOzO2s0lrvYi/d0jBxKKuWqTVvK4fqapDBZ7BvgBV7LyN6zBdffHH4Dvq1114bPhSDfQ1Css43+U6fnh5GkLWrjfMu+6al/1jFlK7qexD/knvTPUvuzLjHyaV1Li143sm977771M+RGZ6rClDSC4gbAPQApGfQVBSG/eJ7i+mLDQBeE8FYY8Ix+JIVi39oydIwu8q7qw0AS33XgTTD1+ecc4777ne/6/g0qbwep7XBpnR8CIZh7zbU+ca50TC9pa1Y+o+l3F3l3cYv4nt6USS+MuTjGKQxIr6sdMEFF4QvPGlE0Sz2AVALiAOY/NYQ8sh9VembeBPEDjnkEPfOd76zikXpeWvDLDYuSoVocdJabqvWOnXdRZ2UgTQNS75Odu6554ZPr1K2nEQDlw/JpLwTXcxf/N5C5/gs/C14Uw6eoZvx9iMcVjbeVd/sqtxFm0/5PWkAGqHFWQE7PiEJQPMZxVcC8aWqlM8zxmXGMK0CgQT2uhGCWJaUY5GbpRNzkzirhdyiE+wxNw1DbuRnNvbPfvYz9+Uvfzn4UlMDs005AWYanjR2ByHxewsbtwZpWRbUwg7Ff6x4WzYAqMuu+Y/o20Lutv4xMEDLijgaAbQtbRQU90g1vCd7GspED6aoL5xEs6Qp+uB+Aq+2JwRvjc7hTRBgFEIbDHBADW+pF4ZWtYZPzyyVd1Gvkm9xn8KbtPDV8kaPWrkteVNmGrj/9m//Fp43W4AzeTC8jY1Rt3V2k6ITev0pw/DyKVTkqSP0zTve8KaeNMSrZZq0pMF3lr64VL1sr6nf+6F3rc6JPcSUuvqLdZXq9+hc6z8pvonOqUstb9JrdZLqm7F+ch8PDNA4Py0PDWkVBD/et3ylkYB0XC6CAM6qIZwDZ5Ll9pruoWej7d0gA0ZMgNQQsmh5Cz+tM6GTFN7IzRwEDaUsxwg/ZiqjE03jAh2myI0/wFsTHAkayKIheN5zzz1hXXWtb2r4FtMwp4K6KrPrOK3W77mHtNi35pEV6VOWBSVtCu+UZUFTfTPFDuGNPrQNF2wwxQ7R42Tw+xSdSN0TUzQN0FSdiN/7BdDJasJo4JXECABagEkpJUF3RL0aQCcEw1Tn6+VS/QugsOJtKTcOamGDaAqdy1atufZXkB3wzUkv+p7clVde6R5//HFVw6Jt3jyyAcRy+iq6YITIwg7hbWXj6GCMt+7jQSk6X817sEcJVXla+6ZFXVIWfIfGiwVZ+nyKvFkigxVIpxTkDymtVQBDh13lbWmDBF6Ce04gEnslOEK5QJqg9fzzz7lLLrmkNTgjCw0eesds9Gz4XZRx3XXXDb364nkpW9s9eu6qHS5b9pJJ4wJddlcnNg0udGLt9+QxkaQbW1VISBCjNcN+RPYaEGdln5u6yhtnpbVuoRPsGpAij9wESOM7AJ0Adts8uJ93lO+4445kXtJrYOia74HvsMMOAaB/+9vfhpXGHnroofDqo8hGOvRtpRfq0ZK3la101X+6KreAtIVviq1P1D4bQNNyl0AzAunhVGdXHaqrclsGAmngApL4Ulvimdxtt92W3FCmcbDXXnu5j3zkI+6AAw5w9I5pNCAPsiETG3MgWPjkV7/6ldt8883Du/0iu4XfW+ocO+TDOtrPmqbUSVdtvKtyW9pJSr3nTpsNoBFMnDhHTyB3QV+p/LrqUF2V2zIQCNDx6o6Hw1Ymy0QilvRMIUB4yy23dB//+MfdwQcf7HglsOrZHj7O9U022SSkYQicc5aNc0udjz6s028pXfZNq1GRfi0N50yWZ9CxqDJEl/u5VJxHV48JhBYkDjXivVoDljoBMAgEFhRAelr7iS/0cH/zm98kiYavHnjggW6fffapBWeYYsM8k2a2dTxBLG6cJ2WuTCyNF2XypGTSAEi6SZk42OHo87c92rL0TUt99xRiSD+yAzRyC0hbAdKQdJM9G4IYz9QsCMO05G0FSObOagSklvoeBDB4HYd3oFMIgN51113DoiNVPWcNP/F7i8Z53EvXyJKaBp0PUva6/Ja9/PnbujRtr3XZf8xiite3Fe+29dT2Phu08NLgrOKoOFcKAewLFixwr33ta9VLfQJOVQ0C3pG96aabwkQXrRzw4r3JfffdN3wHt4p3GT+cvVjmOXPmhIk3EnzZ5yZL3hII2OcmATsLnVjyttR3W970NLXvm0s9YtubbrppFoASv8f3BbAln0H3AtIWvJFNeunsc1Pb+tTIEXzT99JpCOQmS/8JchtN6rTUSW4d1/EzA2gyxUFplbIvAladUAQMWvTvete7ahcskAYA/PmYfBU9+OCD7otf/KK76qqrqpL0nUeGhQsXujPPPDN8/1by6ktYcoLFEIpgQ4tu4403Dqm5hl66GAisZtVKAFux3C44Wuq7a7yLZsuwdUojtHh//Bt/xF8sgFTiiAVvymC9dKeV/0gvvRh34nppeyy+acFbGgAW/iM6seDdVpep95kCNMKgHAFprXA4Hx+FB3TFIavuJS1ED7UqwPBVLL7mk0pMhnnNa14TgDpl+IseDIZXR6KXKpnr7m26FhzKL/dnxrtmtKJJtrrrEgjq0rS9NgzeVvqe6uvST8FsW/QJuS8G6dwCEBP88jHjI3Q5+TM5D9lT/D0lf+wQ3la2UjeSmCJnMa34j6XcxTxz/LaUO4d8TTwGBmjt8oMYJc/HUJiW4kkodfcA0vCtAkVmtrZpRSGzzFLVLoWHnDhJyjOQFN6UVatz0lrxpoyThTdBQ6sT6hR7aGr4ib2l8mb0hACvokS5NWsml43eaGTBf9CLNgBr9Y0Npvo9PqeRA974NWXWknakQPJPsfFpviGl9Xv4p/BO8Xts3Ip3qt9TTq2tWPJu6/cvvlTf0dLaXdt0AwM0Bq+lJUuWBPDSgjTvYoqjNOXB4gxUcBlIEyDUQTPKiLzhSeDCQcp4R8nHD+n5c5+G5HmhljfGrtU5TgoQaXnTINLyFpDT8pYVqTQ6AYhS5EZmrdzIi/1hDxqQph61H2QALOAPX429haDr5zloSIBIQKnqHsm/6nrVee4jD3xFQ9qgC6+nnnoqABd5aIgvZFFODT3zzDOhR6rlzUgbwVpDxKsUv2dmuxagu+r3Yw1Qvr+gq8sU35Q4rcUHdK31TewDvqtWet9c1dyAxkbC2u0TDNA6L9BYszINStKCl5LleDIqQesg4zcpD6x5YxAS2AmUsnFOAyRVxbCWW6tvKVuVnMXzueUGMAU00S361jb+irJJWeAn9YRdsxFkpL5kX7y/7W/4sWkBJiUf+FIeeoEWRH1q/F7KWNQrv6UOSRNTblsZBm/KMlnklrqPdS76Luoa3QDOWr+PdVl2LHVKfvgPjXNt46yMX9058pgy1WbJ3rp8B7lm440NEqEonJUKyU1i9OxzU27eEoxolcowHa12NsADJ5BRBHrl9ELbUG65Yxm0vJ9//oXgfDzX15KWdxM/7E2+diU9P2wvxQbjQAUvAgnBhT0jFXHrn7qi5wCQ0qvKCajkSQBj4zgnhUDtexfIi85yk0bn9LalkYMf4Bf4AqM70rOWd7Bj+XLZSsxTjnPzRrf0/CHpdZNHbtLKHdswI5HUE7pGtjlz+N53/3wWLe+qMmFr6IGRBEbj2Mib8+RL3Gsb76ry5LzYIHnHPl13z0RemxCAlspJCZApSgrGY/jaAcDZ1qEoO7PKb7nlFnfrrbeG7ZFHHglBCeOBr4AJ+cjkN4I+r8LsuOOObvfddw/rJPNb2wsc1KHq9F/Hm2Uhf/7zn7urr746yP/hD394fDZ7HU+5Vsdb0lTtuZclKS+++OKweMeRRx7pTjrppPHk4qzsi0TQol5+97vfuSeeeCJ8vvHRRx8Nw7XUj4AIe4ILewhwY2gM2ybAsPHVpy222MJtt912bvvttw8TILnelixBWnhbgTSBkbJTN4DUr3/96+ADrB2OvjknjQ9pCKEn9AhoCFjPnTs3rH7GcqM77bSTmzdvXlCnaUwZwO+lrm+44Qb3ox/9KJT5qKOOcq9//evDpUFiivAu2xf9h8Ykk2YXL17s7rzzTnf//feHDgH2LnWCP6Br7JgV41gC9vDDDw+vicZ5FHnH14rH1Dv+Qz1T51LfgLIANLJRfzSiAeltttkmTNJ99atfHeJgkWfb33V+35an1X3to8SAEgFUBAOrQGBZCSmG6YsZWm2PP/5YAIv//M//DHsMkwBEC7LYmpOeEcFIAJigha4Aarb58+e7/fff3x1//PEBsGnpTplSv1JZldys3fzNb34zACn51BGz69/+9reHlafiFm7MG2fnAwvMnL/ssssCOFLeY445pnTyykUXXRTy5xvGEOWvat0CsmeccYbbaqutSsXkPnpe1113nfvWt74VvokMyBJwFvrX5tA5ehTCTpAdEL7rrrvc7bffHt6Z51gAgusED/bUVSwf+ckGz7jO5Jj80BVBZ7311gtAffTRR7tDDjkkBEGCs4bIh7L85V/+ZWjkld2DnATfFKJcf/M3f+M++9nPhgCpuZeG4wc+8AEHyPDRDA2ha3rINEx/8pOfBHt7+OGHgw/gB1xHv+hNdMoe4pzYJsfoFABhQ6e8lok+WQ2NZUsHaQBhj1/96ldVemTd8ve85z2hAVamA2yFRsfNN9/svvKVr7gbb7zR8dERzvNBEsBJwJk99Ue6H/7wh+MNdfhSdsothP7f8IY3uPe///1hdEHOx/sVfsnYF154PgAjdk0jmQYrQEk+6BxfFXsWncODvETP//M//xN86ZRTTnGve93rQkNb8sF2RH45Bz/O4z/YK42Sa665JoAy+Ure1Ddp2SD2ki97RqG+853vuP322y/4PHVLuXMQeVs15nLIJzwmDKARgAoR4MExcxKvS8BzEEetkwcDbKpgnI/WIu9f831eAhOBn/MSeOryKLuGUxHUCMI4Hbxp4QJcBCiClQSysvvLHAqHQc5f/vKXZbf0nGMZySOOOCL0GGOApjx8fxiZfvrTn7pf/OIXISgRDHAGCJB+8sknQwCNmQKOixYtClt8vuwYoD322GMDj7icS5e+5EHr96EMBH8AmlEKdI2dIR/lpPwxQJPHpz/96ZA3jYrHHnsslGNsMky+IWTqjXKSB2tlI9uFF14YAO6ggw5yu+yyi2qiGz117k1dLaxMl3IO3SAXm5YYgkSXBNImIh29tuuvv95de+21wQ+wI+xhEL9HpxBy33vvvcHmAL0999wzNCB33nnn0DBrkq94HRtlYSN8oonwARodLKwUE/YDOMHn8ssvH/cHsSvuQ35+Y9MQeiKmMMIGqGGvVcT99G7f8pa3BIAUm8bXGLUiziA/MYfeKo0C4gaNhVSdIwe+jW+gZ0CaXq3kidyANHqgR07ebNg5vykPoyOUNYVoPNDYJoZw/2mnnRbiHCOHOagLID2hAI2STUHaBx6MUQwpR6XGPOoqmGAMUPzgBz8IzomxAha5iHLhMOSDExIIcGoclqGhGDyLeYpDsU8lggpOjvNIa5ZyIcOll14aykpAIBgU+eOgBOVBCGeFT9zAQQ+U/cc//nHYExzIB9sSkqFo5OZ5Zkz0aq644opQpphvnCbXMfyRH3sAtJCVBs2b3vSm8d6oBvRyydOWDz5FD6dOVsqKrdAQoYFKA5AAP0gDtUxe8gFE0Oli33DFF2gIMCxLL5NRnzo5y3hqz2F71Gdsa4AhDWf8gR4rI1QATZwGmdED98aEz8QNz/hafEzsoaFG/oxgYNf4IA1j8kTPNBAAx2LeMR/tMfkxwoVfUaeM4u22227hdmIQjS9pDGDXNBIAdfyOsg5C6In6JPbAj8cCsujTIHy5l3IVRwAG5Znz/gkHaAojII1hxkaco6AYBzytHJSVr+KeNPnRu7nkkkscw9kYVtGBc5RLeFA2nIaAQLDHGd/5zneGZ52SpmzfFqQJBLSUKRMbvReGznjOS3AgYFS10HEwWsKDEEEHJyUPAgXBD4BjCA2gZVitLCCQnmsEcnp/MQlgl90Xp8t5TF7UAXUGqKBH6u64444Lz1OtGpW5ygA40wisklPskkcn5513Xs9oRi4ZinzQKbaBLgFJQIrjd7zjHW6hf7yBzLkJIMKuCfQAFfUJMPNoB6DkWllMQ1bsF5ssUln6sjTYDaAICGP7gCRD6cQf/LTKD4u8tL+RC/+9wjdmecSGPgFjfI/GFwBObMCuNWXQ5ks66hV94rvMN2AUD2DNQcgbx/AcPHPxmBQATWGoUJzdCqRzKazIR4bSkR2HwIABq69//evBaXIbajF/+U0+9Fq/8Y1vBMN929veFp6L1TVMxDCFh2ZPGQl+ACN54pxMemHCSRMRjOgBD0KAGCDNUDrBCF0zhEggrKMYoIvpJNgUezPFdFa/CT405CCGO1mDnollk5kIjjxTLwNowIo64tklz7UZah2WH4jOkAEA41kyeZ966qlhgiU9v5xEgw9ApJFHYwBwxh5pqNYR9si99A7bEACPvTLPgrJiPzQQrPVMvvg/oyKUkThAwxwZuGZJ6AyQpqzMOWCuQS5C/skI0pMGoFE0FdBJkPaGiWMQaOk5A5KAh7WzlBknz8/OPvvsEDAYNmX2cN2QGYZZFmTLeMs5Wu0EFxoEDCc2gaPcR0BBvkEIndKCl1Y7vSQaGk2EbSFnmazMBAZs6NFMJNEL+e///u9QZzzjq6u3iZSTvLEZelBF20HP2MUFF1zg/umf/imAlnXgrtIF+eKTgDQ2wsgSczQIxDmJERw2/IIeJXk2EbJhi20BGv74wve+972mrLJfR5c8xqJRTn0PkxgtJLaSf06ApgyTEaQHtlQCtZbkHdSm9Dh9qvHSgq3qLTLTsxhImmTgOg4AqPDubhVv4YOhMsx0zjnnhOGeiQBnkYWWND14eoa8jtI0y5beUIp+cBA2gkxK8MVWaHXTk47BB4dP0RfBn/Rs2vxJJ0OKRTtkRjgAPdFEYGcGMZP+eG660UYbrRbJT8bCjuvsfHVi+yP8gQ2Z4yCNjnne/KUvfSnrRLZBSkTg5XETDTGeXbKvI+xRa1fwYZ4JOki1R/wB2WJ7pPGQuwFRV9a211L8tW0eZfehZx4jANCMNGnxB1uN9VzGW87hY/DV8pb7LPYDAzQVhZFpSKsgeBEweY6iaY2SnmcTVSBKSz8GBNJrCGMgfxymDsBwZnqGX/jCF8Kztoky3rhMPBvj2TCfy2x6X5rypeinbfmwE8CZIB7bQipAkz6VqCMaW2w0SGJbIWDL7Pe2ZUuVpyo9PSoaIDQaeBVL6oU9w7PILueqeAzjPM+f8St8hA1Cx4xonH/++WHocxhyaPOgwf+1r30tvNpEbKkb6k4FaG2MKsqKP6xcycpwxJfVrzfWxZoijz/E3zxGXLz4N0Fv2rrCb2jgaon4FAB6yupXMrX35ky32ipacsXILFp8GCnKt+DdsqiVt6EDnjuxIAeNislABE2GgZnpOZlkAoDKhpmHoTPyZRJLEYR57ssow2SxNWaksw36OMBSp/hnUV80vHhGyCjAZCRe+WHCGkOzKT1kq7IAAM8887SPc81D4lYydJEvDaLf//53YbNqzNCA599E08AATQEAKCtFWTUAcikeR8fRGNbjtYJi8M+VTxs+8h7kZAn0NBoAyYkaOqL3XPbKCa+LTSaARk9McAJQJisxtwGfj/2exiAAiJ4nK9GQZrbzRDUSY70wmoQ9EuNGlKYBJiHSiLXEhxUrh/t8vUwDAw9xC1OACWeV4S45n2MvlTAZDZlyMzOZ2cRtAhPPiPnm9GGHHRZWzGG4VXomKzzvJzzoY4isLMREFF6p0OqYxoP0xlhxbKIptEp9y1TKN2x5sB9a38VGFENfPCJh4QdkBKwZ8uZ5JfXDjGqusTH0xfAu8xK4T4abGe0h4BL4meXKc7Ir/GQ29F/WKKgrO/IRgB588CG/6MbqlMiGLO973/sqe9c0Er///e83ziJezXVslSpe72IpUoYCNURadIQt4vfky2IzlLcNoUdAn6Vs2W+77bbhPXvOow9GgZh8xrNHdMumHd6M5cEG6EGzUMoee+wReMTXR8fd0AC+JjPlqVPsFnt4pVE2gAYMcCRxqNyKohII7OwnExE4mBzGM99i4G+Sk8lA733ve/0KYId6INg0BH+e6xGIIa9St5EPyKxSxKxemXyTEgSZGcyELgJw3Ntpki3ndeqNhgcrnSEHYDhMh0Kn6JoVkJBhml+nPSaGuE8//fTwbiXPJpmchYw8q8SeqWPKwAYv6pljqaeYF+CNjbKy28knnxwWq/niF7+Y/Ezgl8ASAAAxJ0lEQVSW4WIm+5E3PCHyQ653v/vdlY00ngEDlBK8YtmqjrELGnCs0KZ9Todc8hwXfdAoAfhSgyT6pdHBKlHkDzBTTsrMNQj54IteGX2h8YLP8bYE796mxATSAu68GsW66JQ3VeYqPWrPY/ssEYrODz744L6Fc7R8UtOhTxqdNIKIKdg9DVZ0yNsYViNtUp/MuiYOsMd/yI98GelLrQN53VJ0wP3DjCmSr/U+G0AjKCBNZWAIqWClKai01rU9SA3PQdPwTJXec+pEka233jqAM4DFbGsMtkjgNOdxJMCCXtvil4c+te8T09Lk/UycoWdWcDEzo9/0QN/85jeHdbhZYIBgTC90GA6FHdJLIn/WLUcWdBBPyKHYgAHr/BK80TeOzh5gwNYIBjHNmjnLLfOf3CsS9wjAMWxOD5NeN3XA+soEQi0B0E8+2QvQ3ItMdfXIM3YBdG1e+Cw2RvDGzjREPkL4OiM79EpT/R790Eh9h19MhHJhG4xCFPmgW+oH+0FOVstjWc9/+Id/CM+9i+lFtuKeGMWjAwAa34Wv8C6mtfiNPdIYpKEIUGEj1KkV4QPomIU9iDVMPsQ2mamMnaM3Jl3R+P/85z8fYkUOWbAp8sGvKCvvLTMyhW1ynnyJATQoebWQiZE0+rSEXxZj7jBiila+XOn6UWFAzigeo6CCcIacJL10CZw5ebfl9eKLS4Nxp5QV3fCRAXrFzLAmQDQRZSYwnXDCCaHFyWsjmqBEGoYGAem6wN6Uf8p1epkL/cpNlI/lFg888MCw+k9RXnGoFN5NadEtIElAOPTQQ8NjA47RHdeQrUicl95g8VrZb8BZ01qnXgmOfCSEHh/vyGobl4AHwI6OJjsRWBniTum1UyYanCeeeGL4+ArAUUfoTfwecGHj0RAf7GAxFEYNivZVxQ85ZclYwEIaZuxzE7aFrHxxC1+goYg90pOUxlzOPMmPRg4dAPJkXfIddtjBLfT+yEZ5ic8x0XDGnmm4MNrTluDB64Hky9ryrIVOveJ7NKy4LiT+Q940RlmmlQmGWmIkhXeiiyQxpQt+U5S97HczMpTd1XAOR5nqp6f7N1XNQBoj0zpkg7itLxM0GIakV5siC4EG8MBwOU4hhuVwOlZpKjPQMl7IyBCkNREccFCGKgFnPovJs0qGZQnigE6RcKRUHRR5yG8AkeBA44chbYIEgRC5clNKICAwogcaAdo6Q1/MabAAjdy6QFZAD5DWEnXOWs58IQkwaaKyxjkAx7uwrGSFDxLoNUTPC1kZGcEHIQuQpjEIOPK6nNgjoziAk6ZRrilLnIYGDz10eq343rbbvsr30rdojDPEUvyWj7a0AWipS17pJH9iFDZP54Oylk0KFf+hMcGQO76aAtDUIT3/MhLe7LtOJgCNUpgBR8UBXCm9S41C4UfQnWiQxgAYhiwOtdSVAbkZTiRgt2lB4/QEFVqe2mBPutTeTV0ZitcoE2XBQfneMo0PGUrTgC8NnWKrvphH3W+CHfogX4by9t5779BzpecCSWu9jkeba9pAQJ3Rg2CIT1tn6IQtt++0KWfTPegBsCs+Cqi7T3qV8sGFurRyrQykGaGAB0O0LDupIWISjVa2uHEASGvstSkPePDYCsCjAcHnEpETH6FOcxP+BzDSMCUveq4LFoytjucvqQjZUr8SRb74Fo0shs+pB3m2LQ2Qutgo/oNvoK8UQo91M/GFN/sukxlAoxSUaAXSOBlBHSOxCmLwriMqX/ssWPjAk1mq9CrbghLDVBi1lmTCkTa9Nh3yE2iZ2ENgYPidgISzN+mumEfKCITcSxCg10Drm8k2TLrhuWSRLJ1Vwxtd0FNgSyHsOgdgpOTZJi1+zugIPWkt0cjED1IeLcAbnbBhe9gMzzQBBfihZ20sYE5GWY9b4oq2HHE66opGGKM4PHdlJIljIfSEzeYeFUEXNE7/6I/+KOgCOyt7lCNyVO3bxCPmLDCHgBEzaRBX8S87j/8QL1LnTZTxKp7T+Gbxnsn22xSgKayANPvcNIgzaWWpM1pah0yOSSWceJDgiyOkBDaCZ11rM1V+0qMXWtwEBobwDvOviTU9R2yTT9U9BCCCH/nybI8hPRo9VSTOqg3gVXzKzgvvqkYGgZv60k7AivOQoF7FO047Ucf4AfZV11sqyiaTHqWnVbxe91v8XnyTepdnq9o4g0+UDb1iH21sBHtkOJuGIqM4DGkzAaxI0ktPbcAW+cS/0QOjcthZG33GvFKOKQPlZth+kHzRSU59xGUQ34zPdel4YIDWtppoJVERKa1HbasKw8RpqYwyomXfJsBh+CJD2TvO8K3Ks0wOOYcxwxfjJo8y3pK2uCc9LWSt3uV+9F6VD4E1VT/IzuSns846K/Sg+V3FX2Sokln0IOk0exoDfLHrjW98YwgQWgcnL+otJQhXyV2Uk3RluhS7T9Uxdo2dYC8yTN8EQOTflKYoN7+5B72Qp4ZinSCj9r6YN/oo803qSEP4AvWIfrT3CF/u5Z64HHINflp7knuY68DHOPj+NIAF/yqCN9fL/KVN/cFPYorYShnvKnk4jx5Sdch91CEyU49Vsb1Mx9wr1NZ+qPsm3pIHZWvj9y8tz9+xFJk0+6EBNMLwagYGVFWRRYFpGWsdhWd78C4DTIy1TdDCiWSSA8dF3vAtniuWoew3Ro1xsZd3D7V8aOikgAv5kx7+VU7bJijwzJfJajzDoxxVvKX8OCGylxH1VhfQyu5hWJ1nbQxxU74q3sV70QMb9qDRI7JpRysE5OCLToQEoDX5yT3syRu9EYTgTa8Pf6iz5TLAi3lWHWMDL3m9TFGuAhb3DpERWVMIXYhNFstDb1BrDwxTC7hwT5FXlUykxbfLAjzntXFH+GOPzH2In2nLtbK9jGihg5ioB218jO+LbYWRAdFvnKbqGB2wUY+pRD7YHP5f1kgDGJse7bSxH+Qk77L6KysDeka3EnvL0sTnKAujMi89W/8Z2/gei+M0r8ogwQrfIsGY2hhhU/ZUgvQ0mtKmXs/Je7GfcXruueeGYSkJqASMOKhXyYfB874p7w9ONBEMrfRtWTZsDxtEfpw8J8ET59bWZ0re2Ad84a8FIi1/9LDK87fgrZWhbTrqMxVQ2+aV876cMaUolyXvYl5d+Y3PWPm9lQ6GDtA+DITg8ocK0gRZVs75xCc+EYJKG4CABw6YQgReC+pqIBCQtmgoCkgDGm3qt66eqHurBgCyCv/cDYC6MuW4llvPOWTS8LD0H0vemrJNxjTi99h3F2xm6ABNpYVAsGJsuUSLAIlhTuYGAEGwbIKKpUFjkFa93a4GAmyvTidST5SPkQ7S1wEX12TokrqU1jr3M9sfHjmIfEYgnUOTk4OHpf9Y8kZ7XRy5EJC2wJ7cFjUhAE0hVq7yz+j8f6shNYKYNUjnrgxrfpbOOsZ7hu/Zd+vTeUWd0HiUxWd4FMG6z8wTAGB53imPJMrqinuLAE4AA+hZKCbn16msQZqyWAzTl+ltdM6FETEaizwnzU1FG8/JHzshznaNugLSE6pZApflMzUBaQvjwei7aJiWzgo41/VILeohB0/RCb1fPi7CJwlvvfXW8AEUVpxiyU2ukQ6bnSwkIG01lI5vWoJ0F3tflnUvdmiRh/Bmn5sE7ADrLpHIPZl70hMK0FSmgLRFIJAejdXzVyoWubtGls5qydtSz6xV/rOf/cxdeOGF7tprrw1LQQKAkz3oSCPUQlZL35S6tPJN4d+1Pf5jFVMsfZNYyIxq8ugSIfdk7lRMOEBTmQQCy2dqBFmr1vpkD+BVzmLprJa8q8ozyPknnnjS/ehHP3L/8R//4W655RaTNwwGka/pXoKM1eMca9+kbFaPuZr0Nlmvo3MrsvRNS95W+oDvBMitHmqYNN0/egCAqEXr0dLguwrQsWFaGL8YvQVveOZscF199VXuvPPOC8PagF0XSUDaQnbxzZw6FznhDVn4veQx2vdqwNI3LXn3liLvryHL3T2ARt2WgaDLQJrXFHu5YZhWw4yWRk995pgDwIQwwJkv6VhM0OnVtu0va5DGTqxA2qpxbqvx7nLHN3P4T5kGLP2+LL9c54YotxqgBx7iblpBKlaedtUXAgGvIcFbGxDqVsEh3zYgRM+bWbusmsRziiLBt+x8Md1E/0aHyFmlf3TTpgdTxzMuM4EA46+yFYAldZQDedlYpYg6quIdyyHHogdkuuSSS9zPf/7zbK9ASR459uglLpvIXcd70LpsygM/Y8JcrG9kRNYUim1SfIj6hC/8tH7Pwj1sqf6NvVXZJOdTG/TIjg5ivdTpA3nLZIZPG+CMbQUeTfUospGXyI3eU4l6wibIr1geeNPobdJJG/sROZt4Szr2Wp1gT6zal8I7zqfp2NvW8ACaymXTULw8YFN6lldEQTiLhuqWBcWAMNpUokeP8RBAisYHL/hKcEnhDS8+FsBeG4iEf0Ldhlvgz6fuWD6xykDbBDiYawE6COJN8oUX+78HzTVZgi+kU/7B+SU4oxMcSkPcA6jLPZ/73OfUn4DU8M+ZRuwPP8B+qcMmGqQuJdA25cESiOhb/B4fkaHqpnvlOnYp9hP7ED6R4vfoBLlTQQ2ArgKPtgBN2bRBHf+Pyy16oZ7LYo1cL9tjy9QF9UD+2Dd2oCXuYWszgoS85FVXB02+2RagyVurb3Sd8rEaiQ9rTB24D1tWDeoFvgfOHcOQVliZJG3PYaTwRrFakG6b1zDvw6j4FB0fRt9oo42C0ZQ5apVM9F7EIavSyPnYUVMbAsIj295/udPCTpAPnabyJhjdcccdbrF/1zm1955NJx1lJL6ZqnNNcYV31/we/8IvuyY3dSJya+onNQ16sbATkQN7SW0cyr11e/gSV9Rd3TpmhWveTIYH0OQNkFopCnC2rOCC7obyE6NFX5QLh2avJdIDLnwcoqnhAt8U3loZ2qazbHClNhRJz5KrODcBKoW22Wab8GlBvqhFD04aPzh0Wc8F/swOv/LKK93DDz+cktWkTis6zy0k+sS2LcFO6iy37NZy55YXfqJvq1ghdsI+N+G/yG3Fe8q09JHX5jKuGi5AIxC9ECuQtqzgZmVOzhRdDARo0lLuFDtBjnvuuSe59X3ggQe6973vff5LWrv4r1yt1dMAwv7LhtGQ6wc/+EHI75UE0NTn8pc/fsNxbtLaCsOcDKOmjITQaKK+LEgrt0Xeg/C0ADmRB95WDa4Uvxd5JnLvbU/33NYLqe+6NZQIg7cGaasGQEPRJu3lrgYCS7m1gQBbfeyxx5J6z7TUAeeDDjooTBykxxwT18s+TUl56WmX9a7j+7t5PLa8aZseKTGjidBdUw+Jxz48x0wlel9WoGFp46nlnCzpLXWi9fvJoAtv9WqA7o0wA0qPw7FZtUylATCgmNlur+oxNWUg32ttSqe5LkavSTuZ0ljK3cQbGyWNPM/X6AUA2nzzzd2rXvUqt8EGG7SadKjJp4tpaKgAdCl+j+75Pjz10EQE3yreYDzfgmeddA3gS15MamJrshVJ32ZvybuNPJPhHkudWPLOqrtVK9ULrmcFaAoBiOIoxd5FjgLCF/4WvNvIR8t+ww03TLqVMvA9Z+3sQw3zzhhmoTCWctfxxobocS1ZsqQgUfVPAHr+/Pnh2T/3A0gjGtMA4MmcCABPS6xxzvKq2pnD6LwMpFn/nQ+RwC8FoJmJzgZhK/iyBdXZoUV+XeBpqRNL3rl0u3KVUw/3ZAdoCoEzEdAsgBQnZLPgnVoBDFnOnTt3fJKQ5n5k58tIfCVpBNJjwbEs8Gp02ZSmzlnplXE9JagDQGJ3dbyb5HqlXccPGMIXwNOUjx70XXfd5e69915N8lBPZSBN7/n2228PHzbR1iWxiYZ13LjGHixB2oo3yqM8XSNL/7HknUPPq1aufFHLRwvQzQ+LCjnyfAfDsTAecUQJloWsh/aTXtTGG28ceg8p5UQ3LI7BEB9BJxfFhomO4C26ypWHBR/0YVWXsU5i2WkUALgp9UavO66vKt5xPoMcW+lkEJnK7kWPgN36669fdrn0HHW+aNEid8EFF7hHHnnE22lpsp6T2PIq3/0QvdDA/cUvfuGuv/768InQnsQ1P/DbTTfdNMwjiJNZgrQlb/QiOonLM9mPLf3Hkvegel2xYuXzWh4agFa4Tnl2Eng9TJcnGOCsBMqUAJuaXRNvrjO0t9tuuyUFehzq4osvDgGKnkROYqiPIT96FQ888IB6AY+cMrThJfXZ5t6me4rOSjBj0ZayGdd1vB588MHw6UnsWqjIW87LnnKxnCgglFrX3Gs1uiDy5dijSxqqLIiTQr///e/dt7/9bff9738/jCj5wNV4O9+Rx3/4BCjA/JWvfCWAdIr90JhgDYKyIXmJWY2CtEhgCdJjtmIzTN+iqOpb8B+r0YUm31QLmTnhqpUrYoAGXwVjZT+eY0qNcjMepAH18QwweCoA48xNEsBSnDNVhqaWKcHpiCOOcDfccENP76opH4LLN7/5zTA0uNdee42v/iONAtnHfAhM6JGNY3SLEbLRuyNo8b4tvPme8dFHH+3e+ta3Ot7X/UMncVb0hm7pRdG4KtNzma6wMRo8NHw222yz0PuSe2PepJN6YjIgDabLLrvMffe733V33313Gevac9QxsrKfrISP0CNlEh3HWn8kHa+6/e3f/q27//77g60CnNg3uo19D52SXuwcG//Sl77kbrzxRvVzbNEfcjKfoGxlPfJhsyLKZtXoWrHCbpjeSh/wRSdxXefMS3wzJ89BeS1fsUI9+SUFoDHc5d5xetaQ0746Qm+FIJMSaAhMGkIGnLeKNxNRtEEjzg+jQQaCRdVkFpwNIGTJSAHOmEfVMWnpOfDt4dNPPz3wWLBgwfjKYsWyUzZkIECxEfyZubrYr4TFszyG+q666qrxciLzwoULw8IYAEodIUuqfuDPfVV6KeZH0KuyFcqa6qDIi/NJ3VbxLspBr4n7kJ2eFOXQEvd96lOfCvfRqOKVKmn9Iwe2wHvOTD5jnsHll1/uzj333ABC5JdKsf2xKpymnpCxyg/q8o/1WZdOrhX1veWWW7odd9wx6ENrE/AiXyaLfeITnwir673zne906BbAp8yiX8rFI6HbbrvNXXTRRWHRl1SbJT90ykIzW2+9dekrcaQhzxS74B5kgXdRL1wrErzJo0xPnEutP/hhe+JHyFDGuyhH/Jt7NLLH93Ac201ZfXCuia/E2CLvpt91MaV4r/i9tvElvJf7Ryq5acXyZVkAuk8yL/RSbww9AI0TaQkHwzC1wapufe1inkwWwUjLeLOIQarRwx+Ho2KfffY5fzwGSMV8MUCCyU477RR60WX5F++JfzP0CbgzVEeQmzdvnqPcxeFXhkcpI2VBjwxj02OmXBiTbMKb3wzJAhTcWxdweJaXqh/4U1YaChpCj1W2IoFFw0fSkLc0VAgAVbwlvewJ9FJeelHUcQrRC/6zP/szd8ABB4SRCXp86Ja6oG5YnYyeNiMZ5IN9oKs2hF7o5VM26keGyMsCofCXPOW3do8uuVdLxXX1aQTuueeewQ/4MlgqoSMeBXz6058O+qTs5EHZqWsaPWxSdtmn5kP82WOPPcLrclU20wYwqB/iTxXPopyhLr1ZLFve+5oZwJoaQ+Ad2wo+iX60fBhJQG58NJWoN+wG26f8RdL4JjaO/KlE3lp9i9+jF40/UhYmPT7jY39uemnZsic9T4JCY2Ao60FzU2m3whcMDx57N8EftCEMOQWkU/LAIC1408mCN0ZERcdEgCeQHHvssWFtZ0A0hTAWNpzqzjvvDMOgBPwioEq6eN8UpFiIg63IK0W+urTkb6HvujxzXMMGCUo777xzaVCpywP9MwOf0Q+cmPKjX7EL7AS9kAdpcxJ8sTe2prpPzVfsijIheypx37777uvOPPNM96EPfSj19vH0Ui72NF5jkmvxudTjww8/3O2///49M7hTeeRKDziXxZQc/EO8mubjVaEBkIN3V3lg19gpdpTbN1N04hvDj2vTJ3UffMF03aWa3FGMKKomWetLAtKtGdTcSBAua+nRSjzssMPc9ttvX3q9huX4JdELedCKpkcTb5zjGuVDf5pgxdAhPWhauGVyj2c+wEEIBC1avwNkmeVWQJVhzm233TYZpNE9dSOPGXjUwDGb9ICsAgB5I3tqz1+jNGSGP0GsDbGACyMLJ5xwwsDyiSzII1sbmeJ7kO+0005zu+66a+syxvxyHFfFlCy8X24A5OD1SuEh2GPVadHoyceLRzXpSJME0L5wz2oZ16UT52sbCOp4c23YIE2wfNWrtnMnnXRymB3aJN+wrtObZ9gQgDYNBBUNl2GVs20+DOn98R+/vfJZpJavFRhX5U+QsQRpytPGN7mHCYmnnnpqaPhUyT8R56nrM844I/SeeYQ0majLvjmRQNe2DsGHNvbdNr/ifY8/+qj6izlNAC3j5GG/YvkKxs6zkDVIE8QYfrSgModaa6013fHHv96dfPLJ4Zm0Rb6pPDFEhgkBaahM7lSeVekteVflOeh57OO44451u+++u9kIw6AyVt0/DtJrNLlwFYfq8/RY8c82vXTAj7XK3/a2t1VnMOQrgAhD28cff7xjImabclmLbOk/lryxE6s4a6lzy05ck9w33Xrrb19OI/jKT3keJvuQJMm7fUWPRfqXuQ+6o3LZLFoz8LUG6aJh8vrGKaecEgIB74VOdOsSHSz2s7xZWlTI0lkteYv8ufdMFCNwM0HPOnDDP2ceAaT95EULOwOk4ZsqLz7BhLE3velN7oMf/GAARAv/1tgB8jOJ6OCDD3Zvf/vbwyxzJiRNVrL0H0veEwl2g9TlRMjtY/LyL3zmMw95uXuAuKocSQD9/NIX1F3zqgyL5wdprRd5FX8DUPC3ChBlFczEo7e85S3hnc7tttvOLO9iWat+M+u4uJyipbNa8q4q46DnjzrqKHfIIYeE2fOD8iq7H5CjIcAkKp555yRAGvu2AOnxXrqXP4WYk4Htf/jDH3Z/8id/EmZNc26YhE54I4KGwvvf//4A0vG3u4cpS0pe+E9qo0jL39I3iYVW81y05WuTbthy+xnc9/tXMYvvXApYy368KEljwEuefvoBN3fe+M25DgBRjJKN45wkDQCLAIac0kunoiECEbNEWaObXhmzfa+77rrwGgINhmEQZWXjNQGG9Ko+gWg1g5RAgB6YMNUFYuTjpJNOCq/x/PjHPw6vsQ1aV2Jv9Nh4/ejQQw8Nkwivvvrq8N56Tr1IQ1FsMCfvuAGQohN60jRG3v3ud4cVxnh3mff0Wbglt4/H5UXvMkP/da97XXi7gi+QFUe74nsm27GlfgSk2ecmS965ZY35DVPuF59//s4476bjGKBBD0EQOe7Z//7BB+/dfvsdmni2uo5R0uq1AGkCC7xTnBQ5mFgigbaqUPAugjT30ZPeYost3A477ODOO++88F4s7yUz45cZwLmcEPkoFxtgwPvTrInMEDuzyhneo+dWRmKYMY+ydGXnAHd0WkWAs7YBAB/SptQPDQDqKAeRP3qi3mjMXHHFFeEdcuopBZTQI7yoB57F8o40M4bpxclqcej8nHPOaWy8IAu8muxPyi8gTfpUXaL3urzEvtmn6oPlP3nswzoBTCC75pprwmtqzIvINeMd2bEH6k7WJDjuuOPc61//+nEfRnYtCb8UeyRtTntMqcOm+iuWW/yefUwSB+JzdceUl8ZQbKNVvOv4cD86T9E391DnuaiN3G3yfvKppxf5+3pwtY5PDNB16cK1s7/85UWHH3Y4zEvfk25k0JAAJ5JAkRIIGtgGJ6U3S5AUIp86wlgAVxyliZBVGhhxIKAHy/ApPaibbrrJ/fSnPw1LRTLkzPvJLFbADGvuYYNHVblxBmSWPQEc5wCQCYIM51FGNoCZVZ0Y0msiDJN0BM+9995bHWQYsuW1lTrSGj0retGgoTyQ6LOON+XUlK+OR/HafvvtF3TJ2uqXXnppWCtdZsEDgMVGFXWBnbAhOwDByAn6Z9tnn31CPWAHEsQY0eCZ92I/NwCqskPKRtqUoIWM2AM9RuyqinfIOPqDLfEuv8gYXRo/lAYAdlplo+OJSw4A6I9+9KNh9IBlOm+++ebw6IVXAVmABLDGXuAtvlBkg3xi/+hFfABQFrunMcqkPxqoEHUm98BXQ9gjNpBiX7yyp100o04GZMW3iFWyMA3pOV9VP9geOkixlTLfRP6qxrzIHMco5EHPRaAs4y33l+2RG7/BX4o+VpZe9MCKcDkpVe42ed+26ObrKu4DV/sIoI27IRyDXHKeJoqc43jGo088+eMZ06dv7Y8DzZrRDGCSFifXEIGFAIPhSWU03VfHG+ePV9SSYIPRVxH5YrAYDseaoEQ6ggDyF4Mj99MjA5hZCYyJW6zrzFrELHxBoGJ1MNKUEcEaQKRXxiQcfhMUAFbkJJgQZNGZlEsbTFkFCCAiIBTlLpOFczRc6CVqXllBHmSpauzI62DUExQHgXCi5A9AhD4ARe4jWGsI3k1BgDpg9jurgjEkzXKs9913X9/CGQRFRkmoBwCZId2FCxeGOqpqvPCuNMO85LHsJf8oYGZ5LwCdAezUNwFMgKupjOgC/tQntqAh7JZ84oZE1X3YB/aSAkZF38QWAGXkZGlUvmqF/bPHFliXm5XZij5HHQNeNEbZE6B51o0vUBeMHFXZAfqUACz+UVVGRrmQjRhUlKHsHvSHrmkoY5caqvNNYhV6KNpplW9ynrLji9hKHe+ibMhOPvgm9Yru64i0sU64j3hUBGl4oGfqvuxanAdpKC8+F/OO0xSP4U1ZtXM6+AraipW6Bhr6xD+p0xe9j+YiX7YX9tpj9z18XGE9EYIdz3MRimP2gDTn2AJgA8RskIAyqCXHAtCcCwB93+LF/7jBhhudzg3QGv7rMhiEhgAQLeFMKKno3FX3Y5wYWxVR8VL5yCs916r08XkCV5VzxOk4Ft7IX0UiC3sCnQRgka/sPsoGb9EJv+Ot7B54NzmH3Ce8BSTlfNVeei91Opd7KRfOr+WNzE3gImWHN3WJXjQEbw24wJdgBG9kLwZLyUvkYE89CsjV6QXebOgDuTluIgKStkcnvLUAQ95N/hPLJ3JjMxoq83spM/t4E951fh/rHLnRjZyrk0fjm/H9NP7grSHKQF1qbRwgr2qwxrohb35Tl3UxJZYxxe/hneKb+H3cCKrTeypvjd/H5UQnWn2ja23jiTzgTX2uMTVpkDkWr+94ybNLLl8wb96Z/gKAHAM0YCHALPsQFJpyJ1FP9Lh50aKLDjv0sHGAJnABXlpn9fxUJC06gl6ds6qY+USxIeF0VEAu3rEMAuR1vGNZKCdptYTR1/HW8immQ270ouUdl6HIq/ibtPDFVjR1SXptYBTe2J+Gd1G2qt/wRSc0FJCbDd3XkeiwLg3X4M1GQJIA08S7iWd8XXiHAOPzQfYm4h4tITdBnfK29XvJT/aSN/4AT/LQ1Cd2orUV5E3xH2TT8kb+FN5S3rK96ET2pOEY3WhBuoxv2TkpY4rfa3UC7xS/Rz4tb9JiI9hKWxuERxWJrus9vuru8vP33H33heVXxp9J913WNQ/Hbgtg/Z4zz7zGK2T8fWiMkgCA8ecmeOOkVLIFWfOmki3ISm5LfVvyRsdWOoE3ASAlcHCPhsR3pvjFRuJgrLlXk0aA2VJ2C7+nbFb1OQw7tPJ7wNmKN/q25G0Rw6lLfNOCNzaYE/j9d8xf+PjH/r9LPNuAo9GerCqpDKDLGg3j5/xzghUPP/Tg/405SqDpmrNSBkvD7LJDWTqrJW9LZzXj7Z+NAaIjkI6jih1Id9nvLWOKJe8QZ/3HOyzIqjGXU1a/vOf3r776Cj6NNY6lL/Mv/u7JtgjQkpg9m4yHx/sV/3HOOd/w13oeQAlIW7TWkZhKsGoAYJhWwdfS6Ee8sYxesmxwWQYC6aWPQLq/Pke+2auTzvr9ctsRACs76dV+u18//J//+Q9/p+Ao2CnHgrXxfjyTIkCPX/AH3FCkcO5/f+ITDz715JOX9l18+RmdFUhbDaVTDsvg21mHMhxS66pOLO0EkJ46Jf+jIuwb3wH8LRoAw2icWwXfrtrhSG6supcsfbM3p7Rf/o2Fn5911ll3+btiTJVj9nLcx7gMoIs3yM1yPuy/f+EF/1bGePTcq0/H4QQONQoyvbrpapAhEJgN06+wm3Nh2UsHpCGrxnlovBjMc0HmkW+ihV4a+WavPgb5dcUVl/+rv78HP1/mN+Y0Yz/kek9WMUDHiUkkN7CPu+Ph+EMf/OCiRx959Ps93F7+Yd9at/nABuITfK2G0i1beF11qJHc/R5kaSfjID3+dmV//m3PdL1xbuX3Ixvvt6gxnZSvAdCfOu2Mpb7TJHHuyaeevPxtZ5xxjb8P3BQsjbFVjmPWnAsUAzQn5ILshakwEaAO+0//n0992jvli2Osev+OBwI/rJabVvl3r2mxW7XWCTRWzmoZfC0Nc8S734otdYKdWPXSQ290WjeH0i39ftRLH66NL1vGcsCvXJD2trr862ef/b+9VgU342fPco49JJgr+3CyCNBlCQWcZS9pVn3hC194yK+E9dnAqeSPpcEPo7Vu1QCwBunRUHqvMVoCaVd5W9qgZePc0u+xmlHjvNd3+GVr469ckH7ggfu//Nd//df3eRX2YefL51AvxHVI9mO//N8ygB6/WLhBMgHxOQ4tAP+Rga/5ZdrowpeSZSDAmSwnvlAgK5C2bLxY6tzWWe1meY7k7ndP7GS60asvAtL9uQ5+RvzewjfpocPfgjclt/bNbjbOxz6sM7hl9HOw9Pv+3Fafef75524+6sgjP+/PSE9ZMFNwlMTx8eqboyNWACERxFi0HLPnNwAugMxvOecPw5rdq/xKSKv+7u/+7i8/9alPXeCNo3ItT1Zkwmkxfi0xxIfDNBFGSTqMX0sMYWuckAYA6ahoLXGPZnjSkjeyIoOF3PBmub8U3tSPRifwllWkNHVPemzKineK3OgkxcZTeLf1H/TTRHx9K0Vu+Gn1TTrqB/5aEn9uSi/+m2KHKX6Pf6bwTvF75LDgjc7QeQpvuadJ31xP9U3WwNbaCv5DDLfw+7a+uaIZfvrU5u39uU//82c+4r+twONfAA/jB5xkiJs9G9zZBGP9YQ8G98wUAXyheB9/OAMwZ+M65/k6AXu26d/+9rcPfPOb3/wlb6SVDxVYEB2n0jpryvrAqbxT1tdmYX+cT9sAYA1fbUuWD1RgxMv97F0Npayzy4cZ0LVW34AAm4ZYKnX5suVquXEQgEBDLH/JMpVauQkamvW1yZvA9eKLfO5T91Um6pH61BDyonMASRNk8AXt+trw5AMSEMcaKlsDu+w+ZMXGody84Znqm+hEwJf764gPW+CbWltJ8fuxD3b4SKr0zbr1tYtlwO/RtVbuFL9nGVb4auNVit/LeuNauVN8E79n08oN8GvX14anrKmv8U0aUNjKM8+ytoiePO+VP774xx8+5ZSTWTUsXm+bjwUIQMdgDUALWJORNAnCPh7ilgskKhLXihtpxs+dfvrp111++eX/rz9XGT1QDEZJ4S0Io9ECY2r+VLAZb+NXayzkpi5pVFjxtqxLAq6lDQIugEZOEt+Bpxa8UvIXYLbgLbJb6tzODm1snLqxsvHgm0bxCt5WcqMTqzgrclv4JnIL3XDDL/+XB+fL/e9xbIyOJRl7rlfR+LUYoMsSx5lIV509m7QC2IftyCOPvOhXv/rVP5YxknPWzmpVwcg/4i21uHo/0slqXcgRAcwqEFgCqSXvkd+LdfTu8R/tEHDvnc2/Rr7ZryPxzf4rg5+56667Pn/k4Yf+p+ckmChD2dJzlt/gZ4ytlZmXAXR8I8cCyLKXTNgLSMvx8j333POcq6666q+9Q3KulIbhrFat9S4bvWUgsORt0TvCMC3rkkCADebuSSM3QApfPrKRm0YgXa5RSyDlsYul/1jy7qpvZpZ71aJFt3xy3733+oK3nnEs9MdFoBYMLe5jzO0xwCYP58YixcxiAB8/f9BBB33nggsu+LB39tJ3pGEISLNZASmBxoq3ZWDvaiCwDjKZHWrcpq3r0soGaQCsMcVm6c7xBoAfqs9Nw2icW9mKpY13lbdlvLLmncNOvD0v8yuFfew1BxxwDrDmN8B3HAsrjv1pHRU9EMZVVMxcWgFyXn6H/UknnXTlv/zLv/yxfzB/XxVDAgEO28XnXpaBvavOaim3tbN2sZdh2UsPDQB66UYgbdk4H9OLzSdqsfEcgb0sJlr6z4h3v8YHjeFLl774u3O+fs6ZJ55wwg899x78K/kNTsZbv0AlZ4oAHSeJmRUzpxsvXXneP6Irz55Za2zh+M///M8X7bfffm++//77/9ufK6Uut9ZXLLeblDZyqH5z6apOrBsXVkPpliBt3zgfe8TQb0WDnxk0sNdJ0FUb76rcbX3z4YcfvujkE0885ayzPnCDr89xzPPHYJ9sMsQdPwqOsTTGWDELzo1TGUDLTZJIbpDzso8zEsCWc/wOx4sWLXp+yy23/F/nn3/+n/hXc+4VpvHeMhBYDqn5QXrTGY1dNfqR3LF1jx1b6oQgYzqU7nvSps/SjXrpNAIs9TLqSffauaWNTxbe/jWzBy750SV/tt2223zcz7V6xmtAsK+4FyyM94KdMaaKEuWa/A77MoDuSVD4IUyq9iIM13uOTznllKt33HHHU6+77rp/8AHliQLfAHRh4ouRs1oNqYUGwIqVpsNeo0DQay2TxVl7pWr+ZSl3255As9RjrwNZzUrvbOPc+HUjbGXk973Waek/Tby9nT5z069u/D+777rLyS+/RhXjWxUexucpjPyW494ClvyqA+giM/kte+klS8sh7s5LF79n/9RTT710zDHHfNsPex937bXX/o1f1OHOWCac1SoQWA6prfQf7xi11uOaHDtuMvr+O/Rn4M0iCBY0Jrcl7+kWYodFWKyepeObXRxKpwHNZvUsfaVvnFv10ml0jUC611WsY0rRf5hDdf311/3DoQcfduwhBx/89QcffPAFL5HgmjzajX/HOCgYWQbmUjDBU/nds29aTSG+znG8Ae78Zs/G6iP8DiuLvXyO3/EKZKST1cjCvWefffbeRx111PFz5859rTfGdfz1EY00MNLASAMjDYw0MCEa8I3R5/wz5st++tOf/sAvwHWtFwKABUjZx6DLMYAs13kWXZZOzgkYy94nD8TvUgIk6yi+zrH8Zi8AzTGgLADNeboIkgZAjq/xW+5lH47nzZs3/ZOf/OTee+yxx57z58/f3S/3t9MIsL12RjTSwEgDIw2MNGCmAQ/IfqXbJXf43vFNt9xyy68+9rGPXX/fffexNKcAqwAwewBZznMcA7aANenYuCZgLDz8qfFzHEPZABpmAK+Ar/wGgGPQjQFawFvAuKcH7e/jOiQ82UNT/NreGxxxxBGbb7311vM23HDDTfyayBv69ZzX9WvHzvFDEWv5oaU1/TbbD1/N9M+vZ/jjaX7PFvL0e8nTH46vvSj8x3IZ/R1pYKSBkQZGGuiKBgKY+ccW48DnDwMY+v0Kvy33gLvc71/yjx2X+uMX/fa8Hxp/zk/wWuInKj/lwfiJxx9//NHFixc/eMUVVzxw7rnnPuYLL/zYx2AqACzn5bcAsPzmOkPdkk6u8xsSnvJb9lyLj/k9TilgRdo4vfxmL0AIY45jwBaAlnTxNUnLfXKdPcQ1OeZ3fFz2m3MjGmlgpIGRBkYaGGmgqIEiCMa/OY63GEw5lt/s4x40v6WXLMeSFn7xseRX3Ptk1URvNoWEuYCl/EaQmLjOtTgdx4AuRHp+A9aSrniPpBEesve3jGikgZEGRhoYaWCkgdYaEOxi//+3c0a7jcMwEPz/v242wQB7hJzYDpzg2hGQkFxSlDwPZd2H8kmz+AzdxP2GTI7BG0ttcujTT5+s6IfW0QFN8xzEwMRv2xdh0GZvdOLsp8f0U4vWNdFdEpCABCQggXcIMKNi+aQfftutwdt618fPwk7/ntzzdWRA5zCG5TwwF83bcdcwYKOhR+sB3X5y/Wdt9t/kf85dxdFcEpCABCQggS0CmUO9iJlRycXvwRu/4/nG3Dl8+tA/8amVIXhm9T78tvwpOxpDN/6Mt3K5E/XxsxL3mnHn9CUgAQlIQAIQmMOy4/jEsQxa9I7b79qcQy5+90uchfaIdnwfeYPeapdDMyzb5qIMUPzEaCs/Gj1u7r2WeuJYVufQXtnDgF41NC8BCUhAApcSOPOzfl5o/uzvOD4xflsGb7T2uwY/58bPwj6iE99nB3QOXkFrvS+XWuJpk6MXb9R5FDRsa/FdEpCABCQggaMEmEHZh982QzgrWj4z7lpqUp/VuYfy+EZv7aXfw+9l8Sh4tjc58iuLNgcyeo6K3zFarEsCEpCABCRwhsAclqshSw25tjmz88Roqzs9y63q79rZN2guROM5SGeeOmwumz35zYS9sfg3d9NPziUBCUhAAhJ4h0APzfZ5Y07v6HyIVzZar+7X+iG/B+KhjaN41ae1lR8NfctyDHlirQQkIAEJSOAdAj1EVz5abPuciZa4/VXMnkP2isG36tkaPjYXxsf2Q6y0zutLQAISkIAEzhCYgzU90LCvtD6397R+yv/E8JtnzDgXn9qMTz2cmyQgAQlIQAI7CczhOuO0mdqMdx61ryz/avPq9WzYrnIr7eo72l8CEpCABCSwGrgr7SOkvj2g85B7B/Leuo+A8xAJSEACEvhvCewdunvrLgHx7aH37fMvgWpTCUhAAhL4NQS+OqR/DUUfRAISkIAEJCABCUhAAhKQgAQkIAEJSEACEpCABP4SgR/Sh71gyBC4MQAAAABJRU5ErkJggg==;" vertex="1" parent="1">
                    <mxGeometry x="699.11" y="441.64" width="41.78" height="38.36" as="geometry"/>
                </mxCell>
            </root>
        </mxGraphModel>
    </diagram>
</mxfile>